# Blender 4.5.0
# www.blender.org
o Sphere
v 0.038922 0.277740 -1.110391
v -0.131053 -0.663191 -1.114873
v 0.470008 0.302875 -1.100556
v 0.268105 0.194203 -1.212649
v 0.719394 0.652707 -0.871159
v 0.015905 1.213403 -0.019573
v 0.431407 0.818538 0.010208
v 0.218300 -0.839448 0.177844
v -0.460659 -0.731514 0.702200
v -1.016066 0.176704 1.081156
v -0.614266 -0.714335 0.728038
v -1.016425 0.590977 0.484310
v -0.419749 -1.175472 0.206536
v -0.732909 -0.291560 -0.904462
v -0.634800 -1.134607 -0.629125
v -0.546528 0.274627 -0.838238
v -0.387205 -0.393461 -1.113531
v -0.063155 0.049502 -1.170058
v 0.047014 0.784214 -0.469350
v 0.322448 -0.570201 -1.041284
v 0.386085 -1.197078 -0.621580
v 0.198618 -1.322816 -0.296928
v 0.245632 -0.111956 -1.275415
v 0.269042 0.528699 -0.818118
v 0.111567 0.459483 -0.932968
v 0.575894 0.513239 -1.031687
v 0.619733 0.065414 -1.140885
v 0.783493 -0.194010 -0.988141
v 0.451861 -0.672499 -0.757265
v 0.479941 0.656470 -0.820076
v 0.110543 -1.273797 -0.623673
v 0.511143 -0.297566 -1.190284
v 0.173764 0.845747 -0.279736
v 0.707697 0.738491 -0.577601
v 0.613320 -0.489870 -0.970960
v 0.514072 0.889023 -0.677058
v 0.831802 -0.369027 -0.658233
v 0.632583 -0.546664 -0.375951
v 0.952521 0.570883 -0.868047
v 0.319998 -1.303012 -0.451521
v 1.126800 0.015707 -0.879314
v 0.974945 -0.204480 -0.860412
v 0.701156 -0.530238 -0.733058
v 0.426754 0.916413 -0.309056
v 0.620171 0.864553 -0.409190
v 0.675295 0.659294 -0.285535
v 0.860129 -0.506680 -0.265152
v 0.651070 -0.654318 -0.300055
v 0.957730 0.649817 -0.501994
v 1.221032 0.101327 -0.654563
v 0.233943 0.711215 -0.034275
v 0.793569 0.781939 -0.041899
v 0.795669 -0.275148 -0.228421
v 0.562416 -1.074979 -0.196041
v 1.157182 0.133538 -0.341449
v 0.939913 0.532585 -0.254137
v 1.153867 0.330506 -0.038022
v 1.283738 0.174303 -0.011556
v 0.863188 -0.584780 -0.106226
v 0.642762 -0.725600 -0.190622
v 1.057277 0.366350 -0.230853
v 1.046494 -0.042671 -0.229884
v 1.332738 0.323455 0.291479
v 1.252023 -0.374394 0.295609
v 0.887287 -0.549800 0.229993
v 1.115433 0.504901 0.248168
v 1.343325 -0.136520 0.071622
v 1.124951 -0.359193 -0.016540
v 0.761022 -0.525632 0.099790
v 0.688775 -0.635936 0.075409
v 1.008769 0.609911 -0.095303
v 1.411999 0.018821 0.227942
v 1.193433 -0.097251 0.741815
v 0.186963 -1.048327 0.096810
v 0.352027 -0.838844 0.135048
v 1.392763 -0.041471 0.519476
v 1.215418 -0.317382 0.583584
v 0.997772 -0.513180 0.437308
v 1.199654 0.436703 0.428758
v 0.891458 0.297992 0.801256
v 0.913838 -0.408841 0.945465
v 1.003235 -0.598091 0.751809
v 0.870647 -0.808450 0.889701
v 0.615243 -0.897093 0.228273
v 0.930055 0.516360 0.551908
v 0.997799 -0.350595 0.704385
v 0.459584 0.554557 0.642258
v 0.658082 0.514646 0.853055
v 0.575377 -0.138584 1.223972
v 0.890529 -0.188509 0.842488
v 0.649871 -1.029516 0.564003
v 0.701475 0.482219 0.686366
v 0.398042 0.447795 1.060265
v 0.609745 0.183673 1.238460
v 0.619117 0.424476 1.064232
v 0.201095 -0.910324 0.303426
v 0.838324 0.232348 1.064854
v 0.675440 -0.651424 1.120912
v 0.248323 0.732995 0.270222
v 0.422812 -0.899832 1.015965
v 0.687886 -0.920172 0.921129
v 0.086691 0.744969 0.263497
v 0.315612 0.165847 1.235607
v 0.099251 -0.784170 0.934738
v 0.311039 -0.609724 1.144679
v 0.053823 -1.128167 0.344118
v -0.029312 0.572635 0.404025
v 0.016104 0.346401 0.359217
v 0.062273 -0.474519 1.120951
v -0.017440 -0.594023 0.901331
v 0.164047 0.309083 1.068371
v 0.206718 -0.009960 1.207621
v 0.067018 0.684987 0.365808
v -0.175546 -0.274502 0.844638
v -0.169078 1.133925 0.260199
v -0.193890 0.595836 0.635791
v -0.346461 -1.158215 0.566816
v -0.030113 -1.137290 0.530154
v -0.201966 0.453959 0.901753
v -0.261457 0.119692 1.089133
v -0.047896 0.725208 0.361609
v -0.780761 0.521820 1.024757
v -0.619555 -0.512585 0.744677
v -0.166481 0.869820 0.387522
v -0.170504 -0.387199 0.632857
v -0.269642 -1.038116 0.706409
v -0.445010 0.476707 1.040416
v -0.233213 1.220862 0.194364
v -1.010363 0.404688 0.977696
v 0.018353 -1.052838 0.074236
v -0.439656 -1.184252 0.392473
v -0.563073 0.658559 0.849164
v -0.571118 0.733307 0.588705
v -0.906364 0.644844 0.731016
v -0.915570 -0.194214 1.058170
v -0.662072 1.089197 0.135254
v -1.228036 0.143105 0.388091
v -0.896078 -0.976729 0.320749
v -1.216787 0.031770 0.823151
v -1.197259 0.364792 0.700840
v -1.114997 0.119588 0.149398
v -0.947343 -0.272075 0.141683
v -0.763705 -1.008200 0.126299
v -0.487763 -0.951229 -0.004005
v -0.529349 0.698400 0.340499
v -0.576976 -1.056676 0.298737
v -1.095821 0.433773 0.291096
v -1.192979 -0.182839 0.502598
v -0.878224 0.437407 0.086787
v -1.093774 0.417864 -0.024009
v -0.978260 -0.378725 0.094253
v -0.452323 1.226373 0.167305
v -1.056423 -0.648531 0.149010
v -0.695017 0.847556 0.200803
v -0.928858 0.562119 -0.325765
v -0.767257 -0.808442 -0.100446
v -0.903457 -0.848567 0.031461
v -0.783907 0.891156 -0.048837
v -1.308601 0.150011 -0.067560
v -0.357146 1.321022 0.012276
v -1.183435 -0.149064 0.010232
v -0.919662 -0.498320 -0.067374
v -0.488454 1.263422 -0.307129
v -0.624094 0.682206 -0.450038
v -0.735903 0.682965 -0.306586
v -0.929925 -0.385682 -0.443339
v -0.940111 -0.669012 -0.342122
v -0.813064 -0.971935 -0.347937
v -1.307208 -0.134545 -0.263158
v -0.901005 -0.423837 -0.261917
v -0.614308 0.903206 -0.467848
v -1.142352 -0.221407 -0.559129
v -0.209617 -1.019580 -0.053606
v -1.146648 0.469709 -0.300200
v -0.507277 -1.100286 -0.181600
v -1.117106 0.400095 -0.533079
v -0.749471 1.027883 -0.231213
v -0.635635 0.702621 -0.635307
v -0.850892 -0.911452 -0.658764
v -0.723618 0.547034 -0.623782
v -0.863337 0.315299 -0.696826
v -0.192098 1.190909 -0.417942
v -0.604272 -0.079060 -0.802893
v -0.641682 -0.971883 -0.926080
v -0.850844 -0.640922 -0.863316
v -0.514505 1.116214 -0.448106
v -0.496751 0.764050 -0.781796
v -0.527924 0.526158 -0.919540
v -0.345217 -0.014719 -0.815645
v -0.430686 -1.108621 -0.866341
v -0.361240 -1.205778 -0.637714
v -0.109554 -1.178031 -0.604075
v -0.029073 -1.299703 -0.401383
v -0.671595 -0.621230 -1.046856
v -0.327293 -1.209286 -0.386737
v -0.599801 0.102920 -0.851089
v -0.236359 0.991641 -0.563977
v -0.298039 0.198199 -0.829626
v -0.367255 0.394023 -0.944497
v -0.454514 -0.729111 -1.121859
v -0.371828 0.820517 -0.593370
v -0.208172 0.582622 -0.878196
v 0.126306 -0.865698 -0.865647
v -0.035015 -1.126059 -0.726242
v -0.025201 0.627339 -0.513077
v 0.018959 -1.276068 -0.189774
v 0.161292 -0.400793 -1.178142
v 0.016181 1.176067 -0.228652
v 0.094204 -1.255573 -0.118379
v 0.133657 1.049437 -0.118935
v 0.010701 -1.164255 -0.007112
v -0.035196 1.127093 0.183406
v 0.048428 -1.097437 0.198615
v -0.057743 -1.165308 0.193437
v -0.096359 1.234106 0.086551
v -0.107750 -1.062856 0.005542
v -0.198406 1.290715 0.061613
v -0.147395 1.306420 -0.137855
v -0.104560 -0.356335 -1.095406
v 0.014681 0.508120 -0.643856
v 0.026515 1.012432 -0.408078
v 0.209305 -0.681386 -0.862326
v 0.129614 0.743201 -0.694608
v 0.211368 -1.055693 -0.810835
v 0.097995 1.090829 -0.211395
v 0.232569 0.930997 -0.525353
v 0.313191 0.781905 -0.792388
v 0.499575 -1.000735 -0.687322
v 0.837618 0.443300 -1.054329
v 0.861350 0.108559 -1.128383
v 0.562653 -1.102976 -0.429528
v 1.130752 0.378216 -0.870924
v 0.191310 -1.253037 -0.108052
v 0.223132 0.795493 -0.166838
v 0.589395 -0.617105 -0.543722
v 0.649519 -0.826653 -0.456317
v 0.454847 -1.221339 -0.258525
v 1.030255 -0.257918 -0.548469
v 1.100769 -0.109085 -0.383395
v 1.163166 0.397571 -0.446143
v 0.513394 0.767853 -0.162142
v 0.452729 -0.991050 0.019988
v 0.164331 0.925354 0.075345
v 0.232940 -1.174118 -0.011536
v 0.888105 -0.419317 -0.084899
v 0.512815 -0.666487 0.032269
v 0.845525 -0.743196 0.271468
v 0.932540 0.717046 0.277241
v 0.944476 -0.766586 0.467473
v 0.662680 0.818616 0.286368
v 0.360202 -0.960162 0.297836
v 0.594181 0.708468 0.526405
v 1.200493 0.268782 0.688183
v 0.951883 -0.003793 0.864534
v 0.857629 -0.042085 1.088023
v 0.654225 -0.414433 1.139417
v 0.430149 0.801250 0.314975
v 0.228312 0.597177 0.492092
v 0.441147 -1.051660 0.667841
v 0.156696 -0.960104 0.456932
v 0.436530 -0.294471 1.278889
v 0.146683 0.666856 0.213678
v 0.076179 0.499769 0.373412
v 0.135101 0.465192 0.505536
v 0.205988 0.512345 0.781626
v 0.196456 -0.952918 0.784027
v 0.056586 0.995505 0.207556
v 0.127981 -0.215682 1.228024
v -0.073219 -0.154353 1.038633
v -0.092275 0.492660 0.370012
v 0.061486 -0.895423 0.645866
v -0.022535 0.325939 0.721117
v -0.059384 0.065957 0.895664
v -0.293702 -0.171977 1.034137
v -0.045845 -0.779278 0.739574
v -0.574008 -0.177231 1.135598
v -0.469105 -0.427458 0.880153
v -0.294179 -0.711940 0.753904
v -0.221088 -1.239364 0.337176
v -0.653184 0.168724 1.207713
v -0.413369 1.031988 0.337578
v -0.395181 0.687067 0.401610
v -0.578675 -0.996455 0.522719
v -0.830009 -0.675301 0.678615
v -0.766079 -0.927639 0.580470
v -0.858448 -0.394703 0.894069
v -0.924485 -0.453321 0.587852
v -0.200828 -1.151031 0.083555
v -1.182423 -0.171529 0.719950
v -1.010556 -0.358345 0.361572
v -0.982055 -0.736159 0.549936
v -0.711200 0.705812 0.400427
v -1.048251 -0.751222 0.350556
v -0.694955 0.565118 0.109801
v -0.755225 0.621932 -0.041144
v -0.329961 -1.015410 -0.034801
v -0.174672 1.303338 -0.018256
v -1.064204 -0.341778 -0.092153
v -0.600755 1.239625 -0.034287
v -0.838489 -0.519014 -0.125499
v -1.332608 0.005159 -0.418069
v -1.318117 0.228156 -0.420558
v -0.592867 -1.161113 -0.419234
v -0.870405 -0.275773 -0.613350
v -0.797300 -0.029400 -0.749825
v -0.388761 1.332280 -0.191288
v -0.934372 -0.529259 -0.693898
v -0.204122 -1.173324 -0.296689
v -1.129707 0.105121 -0.690790
v -0.094622 -1.147970 -0.069175
v -0.657567 0.568196 -0.790945
v -0.672499 0.391282 -0.768860
v -0.115411 1.267590 -0.243496
v -0.071030 -1.236500 -0.180537
v -0.286781 -0.120707 -0.965603
v -0.224904 -0.937366 -1.035035
v -0.215436 0.740426 -0.729563
v -0.105629 0.407609 -0.830404
v -0.191285 -0.263169 -1.041701
vn -0.3564 0.5751 -0.7364
vn 0.3202 -0.1249 -0.9391
vn 0.0162 0.4734 -0.8807
vn 0.0185 0.4292 -0.9030
vn 0.1233 0.8692 -0.4789
vn 0.6568 0.7364 0.1625
vn -0.2128 0.9624 -0.1690
vn 0.3492 -0.9225 0.1645
vn -0.0967 -0.1703 0.9806
vn -0.5886 0.0975 0.8025
vn -0.0415 -0.3105 0.9497
vn -0.6044 0.7839 -0.1424
vn -0.4249 -0.8380 -0.3423
vn -0.6248 0.4372 -0.6469
vn -0.4976 -0.8452 -0.1951
vn -0.2819 -0.0870 -0.9555
vn -0.1288 0.2940 -0.9471
vn -0.5148 0.1827 -0.8376
vn -0.1081 0.6174 -0.7792
vn 0.0926 -0.7581 -0.6456
vn 0.4796 -0.7045 -0.5232
vn 0.0893 -0.9860 0.1411
vn -0.0296 -0.0391 -0.9988
vn -0.3179 0.5990 -0.7350
vn -0.1993 0.8390 -0.5063
vn -0.1549 0.5645 -0.8108
vn 0.2453 0.0248 -0.9691
vn 0.5462 -0.4680 -0.6948
vn 0.5724 -0.5476 -0.6103
vn -0.0216 0.6397 -0.7683
vn -0.0713 -0.8634 -0.4995
vn 0.3887 -0.3173 -0.8650
vn 0.4232 0.9036 -0.0664
vn 0.5207 0.8398 -0.1534
vn 0.5644 -0.6392 -0.5223
vn 0.3463 0.7928 -0.5015
vn 0.6677 -0.7373 -0.1027
vn 0.8812 -0.3397 -0.3287
vn 0.5123 0.7413 -0.4335
vn 0.3334 -0.9293 -0.1586
vn 0.8021 -0.2985 -0.5173
vn 0.5649 -0.6635 -0.4906
vn 0.6959 -0.6960 -0.1770
vn 0.1296 0.9244 0.3588
vn 0.6427 0.7459 0.1749
vn 0.5562 0.8310 0.0129
vn 0.7851 -0.1572 -0.5991
vn 0.8797 -0.3545 -0.3168
vn 0.5474 0.8297 0.1094
vn 0.9870 -0.1394 -0.0801
vn 0.3762 0.9034 0.2057
vn 0.3490 0.8965 -0.2728
vn 0.7998 -0.4980 -0.3352
vn 0.8199 -0.4623 0.3377
vn 0.9001 -0.0624 0.4312
vn 0.6518 0.7538 -0.0835
vn 0.8087 0.3869 -0.4430
vn 0.7621 0.2622 -0.5921
vn 0.8271 -0.5544 0.0921
vn 0.8228 -0.5610 0.0911
vn 0.9473 0.3199 0.0182
vn 0.9035 -0.3926 -0.1720
vn 0.8527 0.5212 -0.0338
vn 0.7224 -0.6904 -0.0379
vn 0.6242 -0.6349 -0.4552
vn 0.7046 0.7096 0.0054
vn 0.8553 -0.2902 -0.4292
vn 0.5291 -0.6479 -0.5480
vn 0.7064 -0.6747 -0.2136
vn 0.5754 -0.7669 -0.2842
vn 0.7022 0.6295 -0.3327
vn 0.9908 -0.0100 -0.1349
vn 0.5784 -0.1866 0.7941
vn 0.0976 -0.4940 0.8640
vn 0.3756 -0.9133 0.1574
vn 0.9347 -0.0929 0.3432
vn 0.6457 -0.6057 0.4649
vn 0.8141 -0.5794 -0.0391
vn 0.5962 0.7592 0.2610
vn 0.5943 0.5779 0.5593
vn 0.7669 0.1345 0.6275
vn 0.9566 -0.1845 0.2257
vn 0.7185 -0.5363 0.4430
vn 0.3161 -0.7547 -0.5749
vn 0.4061 0.7283 0.5521
vn 0.8040 -0.2500 0.5395
vn -0.1165 0.8869 0.4470
vn 0.3770 0.9028 0.2070
vn 0.3745 -0.0658 0.9249
vn 0.7535 -0.1345 0.6435
vn 0.3480 -0.9327 -0.0945
vn 0.3909 0.8171 0.4237
vn -0.1393 0.7938 0.5921
vn 0.2537 0.2553 0.9330
vn 0.3011 0.7357 0.6067
vn 0.3342 -0.8741 -0.3525
vn 0.7407 0.3803 0.5539
vn 0.3580 -0.2696 0.8939
vn -0.5051 0.8352 0.2176
vn -0.0882 -0.7102 0.6985
vn 0.3515 -0.7845 0.5109
vn 0.7075 0.3688 0.6028
vn -0.2559 0.2570 0.9319
vn -0.5736 -0.5180 0.6346
vn -0.1933 -0.4079 0.8923
vn 0.6385 -0.7688 0.0347
vn -0.1554 0.0003 0.9879
vn -0.0373 0.7562 0.6532
vn -0.5626 -0.4117 0.7169
vn -0.7848 -0.3515 0.5105
vn -0.5906 0.5120 0.6237
vn -0.4053 0.1951 0.8931
vn 0.5313 0.4030 0.7452
vn -0.2472 -0.6387 0.7287
vn 0.2717 0.5673 0.7774
vn 0.5815 0.7930 0.1815
vn -0.2468 -0.8046 0.5402
vn 0.4313 -0.7649 0.4785
vn 0.6018 0.5505 0.5786
vn 0.5141 0.0553 0.8559
vn 0.2637 0.2519 0.9311
vn -0.2177 0.6542 0.7243
vn -0.0487 -0.5471 0.8356
vn 0.2200 0.2316 0.9476
vn -0.2957 -0.4848 0.8231
vn -0.0841 -0.4929 0.8660
vn 0.2758 0.5733 0.7715
vn 0.1168 0.7679 0.6299
vn -0.6143 0.4919 0.6170
vn 0.2550 -0.9174 0.3057
vn -0.4833 -0.8638 0.1427
vn 0.1060 0.8894 0.4447
vn 0.0537 0.9933 0.1028
vn -0.4339 0.8638 0.2562
vn -0.4515 -0.4466 0.7725
vn -0.7348 0.4696 0.4894
vn -0.9691 0.0537 -0.2408
vn -0.5987 -0.7975 0.0743
vn -0.9174 -0.0936 0.3868
vn -0.8924 0.4099 0.1885
vn -0.9880 0.0789 0.1329
vn -0.9775 -0.1914 0.0882
vn -0.2945 -0.8858 -0.3587
vn -0.4101 -0.9112 -0.0392
vn -0.4125 0.7999 0.4359
vn -0.4583 -0.8871 -0.0546
vn -0.7362 0.5312 -0.4193
vn -0.8927 -0.4277 -0.1416
vn -0.5981 0.8014 0.0016
vn -0.5276 0.7016 0.4790
vn -0.9978 0.0623 0.0218
vn -0.2925 0.7574 0.5838
vn -0.9528 -0.1210 -0.2783
vn -0.7932 0.0710 0.6048
vn -0.4695 0.8742 -0.1240
vn -0.7722 -0.6262 -0.1080
vn -0.6748 -0.5191 -0.5245
vn -0.9870 0.1128 0.1146
vn -0.8987 0.1754 0.4020
vn -0.1013 0.9602 0.2602
vn -0.7315 -0.4064 0.5475
vn -0.7748 -0.4418 -0.4523
vn -0.3814 0.8035 -0.4571
vn -0.7198 0.5481 -0.4259
vn -0.8042 0.5067 -0.3108
vn -0.9007 -0.4029 -0.1627
vn -0.9632 -0.1688 0.2092
vn -0.7603 -0.6006 0.2475
vn -0.8762 -0.4795 0.0486
vn -0.8652 -0.5007 0.0262
vn -0.6413 0.1519 -0.7521
vn -0.5697 -0.5959 -0.5661
vn -0.2602 -0.9569 0.1293
vn -0.6135 0.7897 0.0007
vn -0.3079 -0.8093 0.5002
vn -0.4671 0.6776 -0.5681
vn -0.8899 0.3676 -0.2701
vn -0.6961 0.7131 -0.0837
vn -0.8450 -0.4828 -0.2297
vn -0.7523 0.5331 -0.3870
vn -0.3942 0.4019 -0.8265
vn 0.2294 0.7043 -0.6718
vn -0.3581 0.1698 -0.9181
vn -0.4993 -0.5725 -0.6503
vn -0.8244 -0.1012 -0.5568
vn -0.4067 0.5122 -0.7565
vn -0.2699 0.8053 -0.5279
vn -0.3608 0.1807 -0.9150
vn -0.4251 0.2917 -0.8568
vn -0.1240 -0.8149 -0.5662
vn -0.0489 -0.9774 -0.2057
vn -0.1529 -0.9425 -0.2971
vn -0.3670 -0.9265 -0.0835
vn -0.5458 -0.0234 -0.8376
vn -0.0168 -0.9834 0.1806
vn -0.1953 -0.0459 -0.9797
vn 0.1270 0.3367 -0.9330
vn -0.2953 0.0068 -0.9554
vn 0.0504 -0.1770 -0.9829
vn -0.1870 -0.2249 -0.9563
vn -0.1028 0.7015 -0.7052
vn 0.4222 0.3873 -0.8196
vn 0.3749 -0.3177 -0.8709
vn 0.0086 -0.7535 -0.6574
vn -0.0132 0.6187 -0.7855
vn -0.2372 -0.9178 0.3185
vn -0.1690 -0.5082 -0.8445
vn 0.6378 0.6960 -0.3298
vn -0.0985 -0.8733 0.4771
vn 0.8906 0.4547 -0.0086
vn -0.2448 -0.6994 0.6715
vn 0.5329 0.5925 0.6042
vn 0.6713 -0.6859 -0.2808
vn 0.3635 -0.8818 -0.3005
vn 0.4302 0.7938 0.4299
vn -0.2320 -0.9719 0.0405
vn 0.2189 0.9072 0.3592
vn 0.3219 0.9440 -0.0725
vn -0.3181 -0.1357 -0.9383
vn -0.0482 0.7210 -0.6912
vn 0.6321 0.4177 -0.6527
vn 0.3247 -0.4854 -0.8118
vn -0.6201 0.4154 -0.6656
vn 0.1538 -0.4182 -0.8952
vn 0.8071 0.5238 -0.2723
vn -0.3244 0.9327 -0.1577
vn -0.2137 0.5037 -0.8371
vn 0.6886 -0.2985 -0.6608
vn 0.2740 0.4317 -0.8594
vn 0.3540 -0.0978 -0.9301
vn 0.8375 -0.5239 -0.1555
vn 0.8142 0.3510 -0.4625
vn 0.1408 -0.8628 0.4855
vn 0.5640 0.7510 0.3433
vn 0.8876 -0.3941 -0.2383
vn 0.9721 -0.1056 -0.2096
vn 0.5746 -0.7810 0.2447
vn 0.6764 -0.7342 0.0581
vn 0.8079 -0.5007 0.3109
vn 0.8946 0.4025 0.1942
vn 0.2086 0.9720 0.1085
vn 0.6096 -0.4153 0.6752
vn 0.8914 0.3281 0.3127
vn 0.2393 -0.7074 0.6651
vn 0.7898 -0.4753 -0.3876
vn 0.6129 -0.7899 -0.0219
vn 0.6745 -0.5038 -0.5397
vn 0.5690 0.7880 0.2354
vn 0.8247 -0.5266 -0.2064
vn 0.1655 0.9608 0.2224
vn -0.0964 -0.9069 -0.4101
vn 0.0534 0.7792 0.6245
vn 0.6133 0.4374 0.6577
vn 0.7337 -0.0501 0.6776
vn 0.7244 -0.2789 0.6305
vn 0.5011 -0.0718 0.8624
vn -0.2309 0.9263 0.2978
vn -0.5074 0.6220 0.5963
vn -0.0568 -0.9955 0.0763
vn 0.3159 -0.9434 0.1006
vn 0.1156 -0.1296 0.9848
vn 0.2615 0.7980 0.5430
vn -0.3642 0.2934 0.8839
vn -0.6707 0.6920 0.2671
vn -0.3942 0.8975 0.1980
vn -0.4251 -0.8463 0.3209
vn 0.6614 0.4085 0.6291
vn -0.4366 0.0019 0.8996
vn -0.7948 0.1525 0.5874
vn 0.4585 0.3925 0.7973
vn -0.0673 -0.8138 0.5772
vn 0.0840 0.8750 0.4767
vn -0.1038 0.3052 0.9466
vn 0.4790 -0.4218 0.7698
vn -0.3348 -0.3914 0.8572
vn 0.0742 -0.4394 0.8952
vn 0.2251 -0.8157 0.5329
vn -0.1370 0.1485 0.9794
vn 0.0578 -0.9982 0.0130
vn -0.0259 0.1056 0.9941
vn -0.2473 0.4025 0.8814
vn 0.1261 0.7466 0.6532
vn -0.3762 -0.7286 0.5724
vn -0.4497 -0.1391 0.8823
vn -0.3146 -0.7011 0.6399
vn -0.3695 -0.7763 0.5107
vn -0.7889 -0.4046 0.4625
vn 0.0329 -0.8381 -0.5445
vn -0.8416 -0.4755 0.2562
vn -0.9637 -0.2513 -0.0897
vn -0.7909 -0.2595 0.5542
vn -0.2385 0.9420 -0.2363
vn -0.9496 -0.2956 0.1041
vn -0.8105 0.5686 0.1404
vn -0.8962 0.3515 0.2708
vn -0.1860 -0.9820 -0.0340
vn 0.8411 0.4815 0.2465
vn -0.7129 -0.6887 0.1321
vn -0.6278 0.7693 0.1184
vn -0.8782 -0.4274 -0.2144
vn -0.9406 -0.1551 -0.3021
vn -0.9033 0.3361 -0.2668
vn -0.4171 -0.8956 0.1547
vn -0.7096 -0.1076 -0.6963
vn -0.3240 -0.2029 -0.9240
vn -0.1273 0.9733 -0.1909
vn -0.9568 0.0643 -0.2835
vn -0.2876 -0.9188 0.2703
vn -0.5111 0.0460 -0.8583
vn -0.5422 -0.6706 0.5063
vn -0.7858 0.2860 -0.5484
vn -0.6056 0.1298 -0.7851
vn 0.3981 0.8435 -0.3605
vn -0.4809 -0.8066 0.3438
vn -0.5114 0.3709 -0.7752
vn 0.1731 -0.5615 -0.8092
vn 0.4588 0.7946 -0.3975
vn 0.0311 0.5378 -0.8425
vn -0.0754 0.3597 -0.9300
vt 0.755367 0.400645
vt 0.716226 0.470860
vt 0.728921 0.401203
vt 0.712072 0.292424
vt 0.768386 0.327461
vt 0.732096 0.826017
vt 0.719975 0.757133
vt 0.758656 0.778500
vt 0.754642 0.186846
vt 0.729225 0.247445
vt 0.708382 0.212855
vt 0.757616 0.507312
vt 0.743713 0.578252
vt 0.712504 0.547606
vt 0.707304 0.035685
vt 0.696772 0.030436
vt 0.703125 0.000000
vt 0.670713 0.506371
vt 0.685977 0.429513
vt 0.742583 0.877855
vt 0.670952 0.932052
vt 0.659913 0.878940
vt 0.700870 0.347363
vt 0.678116 0.817728
vt 0.686121 0.734184
vt 0.663001 0.281498
vt 0.745516 0.710578
vt 0.664536 0.690082
vt 0.703753 0.669655
vt 0.722398 0.147639
vt 0.662618 0.175692
vt 0.650391 0.129463
vt 0.729224 0.643042
vt 0.650636 0.221293
vt 0.669478 0.627559
vt 0.639671 0.663090
vt 0.681980 0.572204
vt 0.644868 0.525708
vt 0.644645 0.444327
vt 0.661344 0.372448
vt 0.629674 0.350464
vt 0.646594 0.754784
vt 0.618911 0.949495
vt 0.588938 0.888571
vt 0.615266 0.452345
vt 0.606257 0.397246
vt 0.607960 0.827923
vt 0.595956 0.769082
vt 0.619004 0.291257
vt 0.599600 0.704971
vt 0.606075 0.183876
vt 0.643433 0.599263
vt 0.616502 0.630021
vt 0.605961 0.578324
vt 0.575787 0.664463
vt 0.589738 0.129518
vt 0.656272 0.083932
vt 0.584987 0.051021
vt 0.622912 0.950772
vt 0.611328 0.992188
vt 0.609375 1.000000
vt 0.618531 0.032274
vt 0.602151 0.052748
vt 0.608498 0.009082
vt 0.604984 0.504634
vt 0.581152 0.434911
vt 0.599668 0.242159
vt 0.544211 0.395330
vt 0.585697 0.299953
vt 0.547589 0.337279
vt 0.564664 0.266066
vt 0.561982 0.733137
vt 0.552348 0.800952
vt 0.550314 0.159316
vt 0.560769 0.595404
vt 0.542528 0.658571
vt 0.528220 0.596243
vt 0.546921 0.536310
vt 0.509213 0.068239
vt 0.577995 0.525798
vt 0.555407 0.473668
vt 0.552767 0.947459
vt 0.547184 0.990249
vt 0.538944 0.963245
vt 0.531916 0.477515
vt 0.512927 0.357230
vt 0.534870 0.240940
vt 0.520241 0.311924
vt 0.508222 0.746601
vt 0.512290 0.674172
vt 0.487397 0.257489
vt 0.491219 0.206623
vt 0.499868 0.136918
vt 0.503983 0.586503
vt 0.500544 0.543887
vt 0.498683 0.405021
vt 0.467331 0.628446
vt 0.465637 0.570608
vt 0.490174 0.469618
vt 0.473480 0.507652
vt 0.462044 0.413535
vt 0.457993 0.332293
vt 0.480939 0.311020
vt 0.449137 0.282171
vt 0.434378 0.204651
vt 0.453282 0.695466
vt 0.439184 0.136170
vt 0.419016 0.301535
vt 0.412873 0.643028
vt 0.445973 0.603379
vt 0.419634 0.558679
vt 0.430486 0.061748
vt 0.442656 0.492342
vt 0.455989 0.019008
vt 0.518709 0.894273
vt 0.375285 0.845910
vt 0.489723 0.838063
vt 0.391175 0.105053
vt 0.411536 0.477701
vt 0.428742 0.428334
vt 0.434142 0.362592
vt 0.403044 0.409910
vt 0.396717 0.355601
vt 0.385671 0.726406
vt 0.378709 0.641054
vt 0.388156 0.227824
vt 0.388195 0.584601
vt 0.350345 0.631989
vt 0.383609 0.500170
vt 0.380791 0.950831
vt 0.395008 0.968020
vt 0.390936 0.979696
vt 0.379504 0.448300
vt 0.404641 0.936647
vt 0.353003 0.876574
vt 0.372314 0.400994
vt 0.375402 0.319237
vt 0.402415 0.807759
vt 0.437782 0.766239
vt 0.354341 0.039271
vt 0.371094 0.046875
vt 0.355950 0.489325
vt 0.320348 0.462364
vt 0.331171 0.401816
vt 0.297657 0.881813
vt 0.334875 0.354165
vt 0.322811 0.763709
vt 0.348165 0.691676
vt 0.298470 0.157580
vt 0.386679 0.147423
vt 0.355797 0.552509
vt 0.333976 0.601811
vt 0.342172 0.121269
vt 0.307513 0.615767
vt 0.293527 0.668349
vt 0.265985 0.098998
vt 0.323633 0.540847
vt 0.321130 0.064004
vt 0.327117 0.029082
vt 0.303815 0.430851
vt 0.295439 0.356420
vt 0.352929 0.287532
vt 0.316045 0.287033
vt 0.279293 0.494959
vt 0.268620 0.442422
vt 0.261003 0.377039
vt 0.282729 0.792564
vt 0.293399 0.725709
vt 0.342503 0.212522
vt 0.291297 0.223014
vt 0.276001 0.588048
vt 0.235081 0.140363
vt 0.293023 0.539272
vt 0.290788 0.979934
vt 0.297341 0.935213
vt 0.297271 0.993176
vt 0.298828 0.007812
vt 0.296279 0.018699
vt 0.296875 0.000000
vt 0.251841 0.207622
vt 0.271835 0.275991
vt 0.246700 0.625489
vt 0.237582 0.526292
vt 0.242402 0.449468
vt 0.234360 0.851901
vt 0.276118 0.843376
vt 0.249270 0.312555
vt 0.237256 0.805768
vt 0.210579 0.785342
vt 0.253497 0.745489
vt 0.178705 0.856814
vt 0.218569 0.403510
vt 0.210279 0.327014
vt 0.225140 0.248256
vt 0.196310 0.727873
vt 0.210932 0.644113
vt 0.279984 0.056346
vt 0.212811 0.050421
vt 0.235062 0.014233
vt 0.204484 0.448323
vt 0.184414 0.624107
vt 0.208062 0.536155
vt 0.170763 0.540935
vt 0.155105 0.102504
vt 0.174180 0.458860
vt 0.209857 0.949284
vt 0.155536 0.915325
vt 0.170307 0.376482
vt 0.187849 0.268810
vt 0.128782 0.406377
vt 0.140262 0.793017
vt 0.137368 0.345191
vt 0.159102 0.269962
vt 0.135641 0.295083
vt 0.156135 0.679053
vt 0.146647 0.621227
vt 0.169052 0.983951
vt 0.171875 1.000000
vt 0.186873 0.053414
vt 0.166822 0.025042
vt 0.171816 0.011166
vt 0.158982 0.050773
vt 0.136054 0.457297
vt 0.161637 0.166816
vt 0.120013 0.148499
vt 0.130257 0.534850
vt 0.122434 0.589630
vt 0.142866 0.965455
vt 0.108313 0.922315
vt 0.107851 0.850700
vt 0.129237 0.725488
vt 0.093440 0.766934
vt 0.107793 0.657723
vt 0.109169 0.201161
vt 0.191428 0.200015
vt 0.101840 0.256541
vt 0.088455 0.376903
vt 0.109148 0.320128
vt 0.084142 0.580723
vt 0.074760 0.123810
vt 0.078233 0.045619
vt 0.111386 0.008239
vt 0.107811 0.010772
vt 0.109375 0.000000
vt 0.096204 0.509611
vt 0.086957 0.460983
vt 0.053329 0.879305
vt 0.050076 0.535337
vt 0.061882 0.456020
vt 0.058269 0.390795
vt 0.030739 0.825472
vt 0.078842 0.313903
vt 0.043208 0.777526
vt 0.055869 0.250921
vt 0.080304 0.717066
vt 0.073900 0.652344
vt 0.068523 0.174325
vt 0.026661 0.709867
vt 0.043587 0.613909
vt 0.006609 0.163794
vt 0.045411 0.969426
vt 0.048828 0.992188
vt 0.046875 1.000000
vt 0.022869 0.527074
vt 0.027447 0.415881
vt 0.052438 0.948009
vt 0.010480 0.916028
vt 0.011869 0.380235
vt 0.021760 0.964140
vt 0.009310 0.970660
vt 0.014990 0.026103
vt 0.013672 0.007812
vt 0.015625 0.000000
vt 0.004468 0.469039
vt 0.022958 0.324416
vt 0.004436 0.769361
vt 0.009591 0.261639
vt 0.010186 0.719248
vt 0.014185 0.639550
vt 0.000397 0.132240
vt 0.002481 0.610704
vt 0.002408 0.529133
vt 0.976085 0.326614
vt 0.978222 0.244711
vt 0.989102 0.345612
vt 0.944488 0.308384
vt 0.998178 0.214987
vt 0.993163 0.171247
vt 0.996141 0.259324
vt 0.994060 0.611967
vt 0.947312 0.659601
vt 0.958014 0.615809
vt 0.994695 0.659538
vt 0.987990 0.718854
vt 0.943537 0.151585
vt 0.981367 0.101168
vt 0.988605 0.531655
vt 0.950436 0.552973
vt 0.988281 0.040314
vt 0.958078 0.064709
vt 0.982422 0.992188
vt 0.986328 0.992188
vt 0.984375 1.000000
vt 0.987780 0.856036
vt 0.993158 0.911346
vt 0.928166 0.897330
vt 0.977073 0.960789
vt 0.951314 0.796698
vt 0.996518 0.808205
vt 0.986904 0.410382
vt 0.928694 0.453325
vt 0.931486 0.381847
vt 0.907927 0.859419
vt 0.954241 0.371226
vt 0.936306 0.236065
vt 0.928253 0.594928
vt 0.950131 0.504729
vt 0.968859 0.469965
vt 0.945030 0.706423
vt 0.901405 0.732643
vt 0.885524 0.667181
vt 0.896742 0.587734
vt 0.914073 0.525841
vt 0.846642 0.096660
vt 0.903189 0.420382
vt 0.896535 0.360675
vt 0.881617 0.498105
vt 0.851222 0.472752
vt 0.859004 0.417838
vt 0.871807 0.342382
vt 0.898002 0.778082
vt 0.839022 0.770948
vt 0.894059 0.275889
vt 0.845954 0.275152
vt 0.873422 0.707254
vt 0.859153 0.661786
vt 0.869619 0.617263
vt 0.891137 0.044054
vt 0.848343 0.537327
vt 0.824875 0.229461
vt 0.873393 0.218733
vt 0.831591 0.647996
vt 0.833711 0.175101
vt 0.895607 0.179159
vt 0.842185 0.585950
vt 0.815782 0.053270
vt 0.863906 0.040046
vt 0.858031 0.019333
vt 0.821133 0.935009
vt 0.818702 0.880600
vt 0.842508 0.352902
vt 0.887315 0.824617
vt 0.813423 0.827463
vt 0.799180 0.463518
vt 0.804160 0.390304
vt 0.797026 0.740739
vt 0.838884 0.717875
vt 0.812455 0.326314
vt 0.786844 0.268027
vt 0.862460 0.129433
vt 0.791130 0.151192
vt 0.810811 0.618295
vt 0.803105 0.559317
vt 0.813510 0.494409
vt 0.757829 0.094707
vt 0.795366 0.992151
vt 0.800331 0.941263
vt 0.797490 0.987718
vt 0.788663 0.682303
vt 0.771406 0.636394
vt 0.742154 0.939962
vt 0.764768 0.975487
vt 0.778477 0.421590
vt 0.705768 0.980415
vt 0.692775 0.941642
vt 0.673596 0.038202
vt 0.536826 0.944080
vt 0.544957 0.024927
vt 0.449084 0.939619
vt 0.104288 0.054207
vt 0.081801 0.966533
vt 0.052660 0.308742
vt 0.029156 0.213281
vt 0.058884 0.055793
vt 0.006182 0.850358
vt 0.006179 0.419895
vt 0.000791 0.332111
vt 0.990371 0.774027
vt 1.000000 0.695333
vt 0.999980 0.086092
vt 0.996245 0.455407
vt 1.000000 0.398542
vt 0.945837 0.034986
vt 0.962673 0.046277
vt 0.886345 0.953046
vt 0.811171 0.054710
vt 0.766945 0.012343
vt 0.774816 0.055240
vt 0.757678 0.035482
s 1
f 219/1/219 23/2/23 207/3/207
f 207/3/207 222/4/222 219/1/219
f 219/1/219 222/4/222 2/5/2
f 19/6/19 223/7/223 205/8/205
f 204/9/204 203/10/203 224/11/224
f 18/12/18 1/13/1 4/14/4
f 18/12/18 4/14/4 23/2/23
f 206/15/206 209/16/209 211/17/211
f 23/2/23 27/18/27 32/19/32
f 221/20/221 225/21/225 33/22/33
f 207/3/207 32/19/32 20/23/20
f 23/2/23 32/19/32 207/3/207
f 19/6/19 33/22/33 226/24/226
f 223/7/223 226/24/226 227/25/227
f 203/10/203 222/4/222 29/26/29
f 223/7/223 227/25/227 220/27/220
f 227/25/227 30/28/30 24/29/24
f 31/30/31 224/11/224 21/31/21
f 31/30/31 21/31/21 40/32/40
f 1/13/1 25/33/25 4/14/4
f 23/2/23 4/14/4 27/18/27
f 29/26/29 228/34/228 224/11/224
f 24/29/24 30/28/30 26/35/26
f 26/35/26 30/28/30 5/36/5
f 3/37/3 26/35/26 230/38/230
f 3/37/3 230/38/230 27/18/27
f 32/19/32 28/39/28 35/40/35
f 20/23/20 32/19/32 35/40/35
f 29/26/29 35/40/35 43/41/43
f 227/25/227 226/24/226 36/42/36
f 222/4/222 20/23/20 29/26/29
f 227/25/227 36/42/36 30/28/30
f 225/21/225 210/43/210 234/44/234
f 42/45/42 37/46/37 28/39/28
f 226/24/226 33/22/33 44/47/44
f 44/47/44 45/48/45 36/42/36
f 29/26/29 43/41/43 235/49/235
f 36/42/36 34/50/34 30/28/30
f 30/28/30 34/50/34 5/36/5
f 228/34/228 231/51/231 21/31/21
f 229/52/229 5/36/5 39/53/39
f 26/35/26 5/36/5 229/52/229
f 229/52/229 39/53/39 232/54/232
f 230/38/230 42/45/42 28/39/28
f 34/50/34 49/55/49 39/53/39
f 231/51/231 237/56/237 40/32/40
f 22/57/22 237/56/237 233/58/233
f 210/59/210 225/60/225 6/61/6
f 209/62/209 233/63/233 211/64/211
f 42/45/42 41/65/41 238/66/238
f 37/46/37 42/45/42 238/66/238
f 235/49/235 236/67/236 29/26/29
f 236/67/236 231/51/231 228/34/228
f 37/46/37 238/66/238 53/68/53
f 38/69/38 53/68/53 47/70/47
f 38/69/38 47/70/47 48/71/48
f 38/69/38 48/71/48 236/67/236
f 46/72/46 49/55/49 34/50/34
f 34/50/34 45/48/45 46/72/46
f 45/48/45 241/73/241 46/72/46
f 236/67/236 54/74/54 231/51/231
f 49/55/49 240/75/240 232/54/232
f 56/76/56 61/77/61 240/75/240
f 240/75/240 61/77/61 55/78/55
f 54/74/54 244/79/244 237/56/237
f 50/80/50 55/78/55 239/81/239
f 210/82/210 6/83/6 243/84/243
f 62/85/62 245/86/245 53/68/53
f 47/70/47 53/68/53 245/86/245
f 44/47/44 241/73/241 45/48/45
f 47/70/47 60/87/60 48/71/48
f 47/70/47 59/88/59 60/87/60
f 46/72/46 56/76/56 49/55/49
f 46/72/46 52/89/52 71/90/71
f 48/71/48 60/87/60 54/74/54
f 49/55/49 56/76/56 240/75/240
f 56/76/56 71/90/71 61/77/61
f 60/87/60 70/91/70 246/92/246
f 60/87/60 242/93/242 54/74/54
f 62/85/62 57/94/57 58/95/58
f 62/85/62 68/96/68 245/86/245
f 57/94/57 66/97/66 63/98/63
f 67/99/67 58/95/58 72/100/72
f 58/95/58 63/98/63 72/100/72
f 67/99/67 64/101/64 68/96/68
f 245/86/245 65/102/65 69/103/69
f 70/91/70 247/104/247 84/105/84
f 71/90/71 52/89/52 248/106/248
f 70/91/70 84/105/84 246/92/246
f 71/90/71 248/106/248 66/97/66
f 246/92/246 75/107/75 242/93/242
f 84/105/84 75/107/75 246/92/246
f 65/102/65 249/108/249 247/104/247
f 69/103/69 65/102/65 247/104/247
f 248/106/248 85/109/85 66/97/66
f 63/98/63 66/97/66 79/110/79
f 79/110/79 253/111/253 63/98/63
f 75/107/75 74/112/74 242/93/242
f 242/93/242 74/112/74 244/79/244
f 72/100/72 63/98/63 76/113/76
f 244/79/244 74/112/74 211/114/211
f 51/115/51 99/116/99 7/117/7
f 75/107/75 8/118/8 74/112/74
f 253/111/253 73/119/73 76/113/76
f 76/113/76 73/119/73 77/120/77
f 78/121/78 86/122/86 82/123/82
f 247/104/247 249/108/249 84/105/84
f 252/124/252 92/125/92 85/109/85
f 249/108/249 91/126/91 84/105/84
f 85/109/85 80/127/80 253/111/253
f 85/109/85 92/125/92 80/127/80
f 80/127/80 92/125/92 88/128/88
f 253/111/253 254/129/254 73/119/73
f 267/130/267 243/131/243 6/132/6
f 73/119/73 254/129/254 86/122/86
f 86/122/86 254/129/254 90/133/90
f 243/134/243 262/135/262 51/115/51
f 86/122/86 90/133/90 81/136/81
f 82/123/82 81/136/81 83/137/83
f 257/138/257 252/124/252 250/139/250
f 8/118/8 130/140/130 74/141/74
f 255/142/255 89/143/89 90/133/90
f 90/133/90 89/143/89 256/144/256
f 243/134/243 102/145/102 262/135/262
f 81/136/81 256/144/256 98/146/98
f 90/133/90 256/144/256 81/136/81
f 83/137/83 81/136/81 98/146/98
f 252/124/252 258/147/258 87/148/87
f 252/124/252 87/148/87 92/125/92
f 92/125/92 87/148/87 88/128/88
f 91/126/91 260/149/260 251/150/251
f 80/127/80 88/128/88 97/151/97
f 97/151/97 88/128/88 95/152/95
f 251/150/251 96/153/96 75/107/75
f 88/128/88 93/154/93 95/152/95
f 265/155/265 93/154/93 88/128/88
f 87/148/87 265/155/265 88/128/88
f 96/153/96 260/149/260 106/156/106
f 95/152/95 94/157/94 97/151/97
f 255/142/255 94/157/94 89/143/89
f 8/118/8 213/158/213 130/159/130
f 256/144/256 261/160/261 105/161/105
f 256/144/256 105/161/105 98/146/98
f 101/162/101 98/146/98 100/163/100
f 89/143/89 112/164/112 261/160/261
f 112/164/112 268/165/268 261/160/261
f 261/160/261 268/165/268 109/166/109
f 262/135/262 263/167/263 258/147/258
f 258/147/258 263/167/263 264/168/264
f 259/169/259 100/163/100 266/170/266
f 259/169/259 266/170/266 260/149/260
f 265/155/265 111/171/111 93/154/93
f 106/156/106 260/149/260 118/172/118
f 93/154/93 111/171/111 103/173/103
f 93/154/93 103/173/103 94/157/94
f 89/143/89 103/173/103 112/164/112
f 212/174/212 267/175/267 6/176/6
f 74/177/74 130/178/130 211/179/211
f 266/170/266 271/180/271 260/149/260
f 266/170/266 104/181/104 271/180/271
f 265/155/265 272/182/272 111/171/111
f 111/171/111 273/183/273 112/164/112
f 273/183/273 269/184/269 112/164/112
f 112/164/112 269/184/269 268/165/268
f 102/145/102 121/185/121 113/186/113
f 105/161/105 110/187/110 104/181/104
f 105/161/105 109/166/109 110/187/110
f 113/186/113 107/188/107 263/167/263
f 107/188/107 270/189/270 263/167/263
f 264/168/264 263/167/263 108/190/108
f 264/168/264 272/182/272 265/155/265
f 267/175/267 124/191/124 121/185/121
f 109/166/109 269/184/269 114/192/114
f 268/165/268 269/184/269 109/166/109
f 110/187/110 114/192/114 125/193/125
f 104/181/104 110/187/110 275/194/275
f 108/190/108 270/189/270 116/195/116
f 108/190/108 116/195/116 272/182/272
f 104/181/104 275/194/275 271/180/271
f 272/182/272 116/195/116 119/196/119
f 213/197/213 214/198/214 130/199/130
f 273/183/273 274/200/274 114/192/114
f 119/196/119 127/201/127 120/202/120
f 120/202/120 127/201/127 280/203/280
f 118/172/118 279/204/279 106/156/106
f 120/202/120 276/205/276 274/200/274
f 212/206/212 115/207/115 124/191/124
f 274/200/274 277/208/277 114/192/114
f 107/188/107 121/185/121 270/189/270
f 275/194/275 125/193/125 278/209/278
f 276/205/276 286/210/286 277/208/277
f 124/191/124 282/211/282 270/189/270
f 277/208/277 123/212/123 125/193/125
f 9/213/9 123/212/123 11/214/11
f 125/193/125 123/212/123 9/213/9
f 278/209/278 125/193/125 9/213/9
f 119/196/119 116/195/116 132/215/132
f 127/201/127 132/215/132 122/216/122
f 127/201/127 122/216/122 280/203/280
f 115/207/115 212/206/212 215/217/215
f 215/217/215 212/206/212 6/218/6
f 214/219/214 288/220/288 130/221/130
f 279/204/279 288/222/288 214/198/214
f 280/203/280 135/223/135 276/205/276
f 117/224/117 131/225/131 279/204/279
f 10/226/10 122/216/122 129/227/129
f 280/203/280 122/216/122 10/226/10
f 280/203/280 10/226/10 135/223/135
f 115/207/115 215/228/215 128/229/128
f 115/207/115 281/230/281 124/191/124
f 135/223/135 286/210/286 276/205/276
f 286/210/286 123/212/123 277/208/277
f 116/195/116 282/211/282 133/231/133
f 282/211/282 145/232/145 133/231/133
f 132/215/132 133/231/133 134/233/134
f 9/213/9 283/234/283 126/235/126
f 11/214/11 285/236/285 283/234/283
f 123/212/123 287/237/287 284/238/284
f 11/214/11 123/212/123 284/238/284
f 11/214/11 284/238/284 285/236/285
f 134/233/134 140/239/140 129/227/129
f 279/204/279 13/240/13 288/241/288
f 130/242/130 216/243/216 211/244/211
f 135/223/135 139/245/139 289/246/289
f 128/229/128 152/247/152 281/230/281
f 286/210/286 289/246/289 287/237/287
f 286/210/286 287/237/287 123/212/123
f 140/239/140 137/248/137 139/245/139
f 287/237/287 148/249/148 290/250/290
f 152/247/152 136/251/136 281/230/281
f 287/237/287 290/250/290 291/252/291
f 281/230/281 154/253/154 145/232/145
f 291/252/291 138/254/138 285/236/285
f 292/255/292 12/256/12 134/233/134
f 285/236/285 138/254/138 283/234/283
f 138/254/138 146/257/146 283/234/283
f 283/234/283 146/257/146 131/225/131
f 145/232/145 294/258/294 292/255/292
f 154/253/154 294/258/294 145/232/145
f 292/255/292 294/258/294 12/256/12
f 294/258/294 147/259/147 12/256/12
f 146/257/146 144/260/144 13/240/13
f 12/256/12 147/259/147 140/239/140
f 217/261/217 215/262/215 6/263/6
f 148/249/148 141/264/141 142/265/142
f 217/266/217 160/267/160 152/247/152
f 290/250/290 148/249/148 142/265/142
f 142/265/142 151/268/151 290/250/290
f 147/259/147 141/264/141 137/248/137
f 160/267/160 217/269/217 297/270/297
f 216/271/216 310/272/310 211/273/211
f 141/264/141 161/274/161 142/265/142
f 151/268/151 153/275/153 290/250/290
f 136/251/136 158/276/158 154/253/154
f 153/275/153 157/277/157 138/254/138
f 154/253/154 295/278/295 294/258/294
f 294/258/294 149/279/149 147/259/147
f 144/260/144 296/280/296 13/240/13
f 141/264/141 150/281/150 159/282/159
f 300/283/300 156/284/156 162/285/162
f 156/284/156 300/283/300 167/286/167
f 143/287/143 156/284/156 144/288/144
f 143/287/143 157/289/157 156/284/156
f 150/290/150 155/291/155 174/292/174
f 149/293/149 295/294/295 155/291/155
f 144/288/144 175/295/175 296/296/296
f 156/284/156 175/295/175 144/288/144
f 159/297/159 150/290/150 174/292/174
f 159/297/159 174/292/174 302/298/302
f 216/299/216 296/296/296 173/300/173
f 218/301/218 217/302/217 6/303/6
f 299/304/299 160/305/160 306/306/306
f 297/307/297 306/306/306 160/305/160
f 299/304/299 177/308/177 136/309/136
f 298/310/298 172/311/172 166/312/166
f 306/306/306 163/313/163 299/304/299
f 162/285/162 170/314/170 300/283/300
f 300/283/300 170/314/170 167/286/167
f 156/284/156 167/286/167 168/315/168
f 174/292/174 176/316/176 302/298/302
f 159/297/159 301/317/301 169/318/169
f 159/297/159 302/298/302 301/317/301
f 165/319/165 177/308/177 164/320/164
f 165/319/165 180/321/180 155/291/155
f 155/291/155 181/322/181 176/316/176
f 176/316/176 181/322/181 309/323/309
f 175/295/175 308/324/308 296/296/296
f 176/316/176 309/323/309 302/298/302
f 301/317/301 302/298/302 309/323/309
f 166/312/166 172/311/172 304/325/304
f 166/312/166 304/325/304 307/326/307
f 172/311/172 305/327/305 304/325/304
f 304/325/304 183/328/183 14/329/14
f 307/326/307 14/329/14 185/330/185
f 171/331/171 201/332/201 164/320/164
f 179/333/179 185/330/185 184/334/184
f 164/320/164 201/332/201 178/335/178
f 155/291/155 180/321/180 181/322/181
f 178/335/178 311/336/311 180/321/180
f 180/321/180 312/337/312 181/322/181
f 173/300/173 308/324/308 310/338/310
f 309/323/309 181/322/181 305/327/305
f 181/322/181 312/337/312 196/339/196
f 184/334/184 190/340/190 15/341/15
f 311/336/311 312/337/312 180/321/180
f 311/336/311 188/342/188 312/337/312
f 15/341/15 191/343/191 303/344/303
f 312/337/312 188/342/188 16/345/16
f 308/324/308 314/346/314 310/347/310
f 211/348/211 310/347/310 314/346/314
f 306/306/306 313/349/313 182/350/182
f 185/330/185 14/329/14 194/351/194
f 186/352/186 182/350/182 197/353/197
f 171/331/171 197/353/197 201/332/201
f 171/331/171 186/352/186 197/353/197
f 315/354/315 17/355/17 14/329/14
f 201/332/201 317/356/317 187/357/187
f 200/358/200 316/359/316 184/334/184
f 187/357/187 188/342/188 311/336/311
f 195/360/195 192/361/192 308/324/308
f 16/345/16 199/362/199 198/363/198
f 196/339/196 16/345/16 198/363/198
f 196/339/196 198/363/198 189/364/189
f 189/364/189 315/354/315 183/328/183
f 183/328/183 196/339/196 189/364/189
f 22/57/22 193/365/193 31/30/31 40/32/40
f 308/324/308 192/361/192 193/365/193
f 6/366/6 313/367/313 218/368/218
f 189/364/189 198/363/198 315/354/315
f 17/355/17 200/358/200 194/351/194
f 201/332/201 197/353/197 205/8/205
f 317/356/317 202/369/202 187/357/187
f 197/353/197 221/20/221 19/6/19
f 2/5/2 203/10/203 316/359/316
f 316/359/316 203/10/203 204/9/204
f 192/361/192 204/9/204 31/30/31
f 318/370/318 25/33/25 1/13/1
f 208/371/208 313/349/313 6/372/6
f 315/354/315 219/1/219 319/373/319
f 315/354/315 18/12/18 219/1/219
f 182/350/182 208/371/208 221/20/221
f 319/373/319 219/1/219 2/5/2
f 207/3/207 20/23/20 222/4/222
f 223/7/223 19/6/19 226/24/226
f 205/8/205 223/7/223 220/27/220
f 2/5/2 222/4/222 203/10/203
f 25/33/25 318/370/318 220/27/220
f 25/33/25 220/27/220 24/29/24
f 31/30/31 204/9/204 224/11/224
f 219/1/219 18/12/18 23/2/23
f 221/20/221 208/371/208 225/21/225
f 19/6/19 221/20/221 33/22/33
f 220/27/220 227/25/227 24/29/24
f 224/11/224 203/10/203 29/26/29
f 4/14/4 25/33/25 3/37/3
f 3/37/3 25/33/25 24/29/24
f 206/15/206 193/365/193 22/57/22
f 27/18/27 4/14/4 3/37/3
f 208/371/208 6/374/6 225/375/225
f 224/11/224 228/34/228 21/31/21
f 3/37/3 24/29/24 26/35/26
f 206/15/206 22/57/22 209/376/209
f 32/19/32 27/18/27 28/39/28
f 33/22/33 225/21/225 234/44/234
f 29/26/29 20/23/20 35/40/35
f 43/41/43 35/40/35 28/39/28
f 43/41/43 28/39/28 37/46/37
f 33/22/33 234/44/234 44/47/44
f 226/24/226 44/47/44 36/42/36
f 29/26/29 236/67/236 228/34/228
f 34/50/34 36/42/36 45/48/45
f 21/31/21 231/51/231 40/32/40
f 230/38/230 26/35/26 229/52/229
f 230/38/230 229/52/229 232/54/232
f 27/18/27 230/38/230 28/39/28
f 5/36/5 34/50/34 39/53/39
f 39/53/39 49/55/49 232/54/232
f 22/57/22 40/32/40 237/56/237
f 209/62/209 22/57/22 233/58/233
f 230/38/230 232/54/232 41/65/41
f 41/65/41 232/54/232 50/80/50
f 230/38/230 41/65/41 42/45/42
f 38/69/38 43/41/43 37/46/37
f 235/49/235 43/41/43 38/69/38
f 38/69/38 37/46/37 53/68/53
f 235/49/235 38/69/38 236/67/236
f 236/67/236 48/71/48 54/74/54
f 231/51/231 54/74/54 237/56/237
f 232/54/232 240/75/240 50/80/50
f 238/66/238 41/65/41 50/80/50
f 238/66/238 50/80/50 239/81/239
f 233/58/233 237/56/237 244/79/244
f 54/74/54 242/93/242 244/79/244
f 50/80/50 240/75/240 55/78/55
f 62/85/62 55/78/55 61/77/61
f 234/44/234 210/82/210 243/377/243
f 233/58/233 244/79/244 211/378/211
f 239/81/239 55/78/55 62/85/62
f 238/66/238 239/81/239 53/68/53
f 53/68/53 239/81/239 62/85/62
f 241/73/241 51/115/51 7/117/7
f 234/44/234 241/73/241 44/47/44
f 234/44/234 51/115/51 241/73/241
f 52/89/52 241/73/241 7/117/7
f 46/72/46 241/73/241 52/89/52
f 56/76/56 46/72/46 71/90/71
f 47/70/47 245/86/245 59/88/59
f 59/88/59 245/86/245 69/103/69
f 60/87/60 59/88/59 70/91/70
f 70/91/70 59/88/59 69/103/69
f 60/87/60 246/92/246 242/93/242
f 61/77/61 71/90/71 57/94/57
f 61/77/61 57/94/57 62/85/62
f 62/85/62 67/99/67 68/96/68
f 62/85/62 58/95/58 67/99/67
f 51/115/51 234/44/234 243/379/243
f 58/95/58 57/94/57 63/98/63
f 57/94/57 71/90/71 66/97/66
f 68/96/68 65/102/65 245/86/245
f 68/96/68 64/101/64 65/102/65
f 52/89/52 7/117/7 250/139/250
f 70/91/70 69/103/69 247/104/247
f 64/101/64 78/121/78 65/102/65
f 65/102/65 78/121/78 249/108/249
f 7/117/7 257/138/257 250/139/250
f 248/106/248 52/89/52 250/139/250
f 66/97/66 85/109/85 79/110/79
f 75/107/75 84/105/84 251/150/251
f 63/98/63 253/111/253 76/113/76
f 67/99/67 76/113/76 64/101/64
f 72/100/72 76/113/76 67/99/67
f 78/121/78 64/101/64 77/120/77
f 64/101/64 76/113/76 77/120/77
f 77/120/77 73/119/73 86/122/86
f 78/121/78 77/120/77 86/122/86
f 7/117/7 99/116/99 257/138/257
f 249/108/249 78/121/78 82/123/82
f 250/139/250 252/124/252 248/106/248
f 248/106/248 252/124/252 85/109/85
f 79/110/79 85/109/85 253/111/253
f 249/108/249 83/137/83 91/126/91
f 84/105/84 91/126/91 251/150/251
f 253/111/253 80/127/80 254/129/254
f 254/129/254 80/127/80 97/151/97
f 254/129/254 255/142/255 90/133/90
f 51/115/51 262/135/262 99/116/99
f 82/123/82 86/122/86 81/136/81
f 249/108/249 82/123/82 83/137/83
f 83/137/83 98/146/98 101/162/101
f 257/138/257 99/116/99 258/147/258
f 257/138/257 258/147/258 252/124/252
f 83/137/83 101/162/101 91/126/91
f 91/126/91 101/162/101 259/169/259
f 91/126/91 259/169/259 260/149/260
f 75/107/75 96/153/96 8/118/8
f 255/142/255 254/129/254 97/151/97
f 258/147/258 264/168/264 87/148/87
f 87/148/87 264/168/264 265/155/265
f 259/169/259 101/162/101 100/163/100
f 96/153/96 251/150/251 260/149/260
f 95/152/95 93/154/93 94/157/94
f 213/197/213 96/153/96 106/156/106
f 8/118/8 96/153/96 213/197/213
f 255/142/255 97/151/97 94/157/94
f 243/134/243 267/175/267 102/145/102
f 256/144/256 89/143/89 261/160/261
f 99/116/99 262/135/262 258/147/258
f 98/146/98 105/161/105 100/163/100
f 105/161/105 261/160/261 109/166/109
f 262/135/262 113/186/113 263/167/263
f 262/135/262 102/145/102 113/186/113
f 266/170/266 100/163/100 104/181/104
f 104/181/104 100/163/100 105/161/105
f 89/143/89 94/157/94 103/173/103
f 264/168/264 108/190/108 272/182/272
f 118/172/118 260/149/260 271/180/271
f 111/171/111 272/182/272 273/183/273
f 103/173/103 111/171/111 112/164/112
f 102/145/102 267/175/267 121/185/121
f 263/167/263 270/189/270 108/190/108
f 267/175/267 212/206/212 124/191/124
f 113/186/113 121/185/121 107/188/107
f 110/187/110 109/166/109 114/192/114
f 110/187/110 125/193/125 275/194/275
f 126/235/126 271/180/271 275/194/275
f 118/172/118 271/180/271 126/235/126
f 273/183/273 272/182/272 119/196/119
f 106/156/106 214/198/214 213/197/213
f 269/184/269 273/183/273 114/192/114
f 273/183/273 120/202/120 274/200/274
f 118/172/118 126/235/126 117/224/117
f 273/183/273 119/196/119 120/202/120
f 106/156/106 279/204/279 214/198/214
f 120/202/120 280/203/280 276/205/276
f 121/185/121 124/191/124 270/189/270
f 114/192/114 277/208/277 125/193/125
f 126/235/126 275/194/275 278/209/278
f 274/200/274 276/205/276 277/208/277
f 132/215/132 116/195/116 133/231/133
f 126/235/126 278/209/278 9/213/9
f 127/201/127 119/196/119 132/215/132
f 118/172/118 117/224/117 279/204/279
f 117/224/117 283/234/283 131/225/131
f 279/204/279 131/225/131 13/240/13
f 10/226/10 139/245/139 135/223/135
f 124/191/124 281/230/281 282/211/282
f 116/195/116 270/189/270 282/211/282
f 117/224/117 126/235/126 283/234/283
f 9/213/9 11/214/11 283/234/283
f 122/216/122 132/215/132 134/233/134
f 284/238/284 287/237/287 291/252/291
f 133/231/133 145/232/145 292/255/292
f 133/231/133 292/255/292 134/233/134
f 129/227/129 122/216/122 134/233/134
f 10/226/10 140/239/140 139/245/139
f 129/227/129 140/239/140 10/226/10
f 130/242/130 288/380/288 216/243/216
f 115/207/115 128/229/128 281/230/281
f 286/210/286 135/223/135 289/246/289
f 282/211/282 281/230/281 145/232/145
f 148/249/148 139/245/139 137/248/137
f 289/246/289 139/245/139 148/249/148
f 217/266/217 128/229/128 215/381/215
f 128/229/128 217/266/217 152/247/152
f 287/237/287 289/246/289 148/249/148
f 281/230/281 136/251/136 154/253/154
f 291/252/291 293/382/293 138/254/138
f 285/236/285 284/238/284 291/252/291
f 131/225/131 146/257/146 13/240/13
f 134/233/134 12/256/12 140/239/140
f 293/382/293 153/275/153 138/254/138
f 146/257/146 138/254/138 143/383/143
f 144/260/144 146/257/146 143/383/143
f 288/384/288 13/240/13 296/280/296
f 140/239/140 147/259/147 137/248/137
f 148/249/148 137/248/137 141/264/141
f 290/250/290 153/275/153 293/382/293
f 291/252/291 290/250/290 293/382/293
f 141/264/141 159/282/159 161/274/161
f 152/247/152 160/267/160 299/385/299
f 151/268/151 142/265/142 298/386/298
f 142/265/142 161/274/161 298/386/298
f 152/247/152 299/385/299 136/251/136
f 153/275/153 151/268/151 162/387/162
f 153/275/153 162/387/162 157/277/157
f 143/383/143 138/254/138 157/277/157
f 154/253/154 158/276/158 295/278/295
f 147/259/147 149/279/149 141/264/141
f 141/264/141 149/279/149 150/281/150
f 157/289/157 162/285/162 156/284/156
f 158/388/158 165/319/165 295/294/295
f 150/290/150 149/293/149 155/291/155
f 149/293/149 294/389/294 295/294/295
f 288/390/288 296/296/296 216/299/216
f 218/301/218 297/307/297 217/302/217
f 161/391/161 159/297/159 169/318/169
f 161/391/161 169/318/169 298/310/298
f 162/285/162 298/310/298 170/314/170
f 151/392/151 298/310/298 162/285/162
f 136/309/136 177/308/177 158/388/158
f 158/388/158 177/308/177 165/319/165
f 173/300/173 310/393/310 216/394/216
f 172/311/172 169/318/169 301/317/301
f 306/306/306 297/307/297 218/395/218
f 169/318/169 172/311/172 298/310/298
f 170/314/170 298/310/298 166/312/166
f 299/304/299 163/313/163 177/308/177
f 167/286/167 170/314/170 166/312/166
f 155/291/155 295/294/295 165/319/165
f 156/284/156 168/315/168 175/295/175
f 164/320/164 177/308/177 171/331/171
f 165/319/165 164/320/164 180/321/180
f 168/315/168 15/341/15 303/344/303
f 174/292/174 155/291/155 176/316/176
f 168/315/168 303/344/303 175/295/175
f 296/296/296 308/324/308 173/300/173
f 172/311/172 301/317/301 309/323/309
f 177/308/177 163/313/163 186/352/186
f 167/286/167 166/312/166 307/326/307
f 171/331/171 177/308/177 186/352/186
f 168/315/168 167/286/167 179/333/179
f 179/333/179 167/286/167 307/326/307
f 172/311/172 309/323/309 305/327/305
f 304/325/304 305/327/305 183/328/183
f 307/326/307 304/325/304 14/329/14
f 179/333/179 307/326/307 185/330/185
f 180/321/180 164/320/164 178/335/178
f 168/315/168 179/333/179 15/341/15
f 175/295/175 303/344/303 195/360/195
f 175/295/175 195/360/195 308/324/308
f 305/327/305 181/322/181 196/339/196
f 303/344/303 191/343/191 195/360/195
f 312/337/312 16/345/16 196/339/196
f 305/327/305 196/339/196 183/328/183
f 306/306/306 218/395/218 313/349/313
f 163/313/163 306/306/306 182/350/182
f 186/352/186 163/313/163 182/350/182
f 15/341/15 179/333/179 184/334/184
f 184/334/184 185/330/185 194/351/194
f 178/335/178 201/332/201 187/357/187
f 311/336/311 178/335/178 187/357/187
f 14/329/14 17/355/17 194/351/194
f 184/334/184 194/351/194 200/358/200
f 15/341/15 190/340/190 191/343/191
f 195/360/195 191/343/191 192/361/192
f 188/342/188 199/362/199 16/345/16
f 308/324/308 193/365/193 314/396/314
f 183/328/183 315/354/315 14/329/14
f 192/361/192 191/343/191 204/9/204
f 198/363/198 199/362/199 318/370/318
f 315/354/315 319/373/319 17/355/17
f 197/353/197 182/350/182 221/20/221
f 17/355/17 2/5/2 200/358/200
f 201/332/201 205/8/205 317/356/317
f 205/8/205 197/353/197 19/6/19
f 200/358/200 2/5/2 316/359/316
f 184/334/184 316/359/316 190/340/190
f 317/356/317 220/27/220 202/369/202
f 204/9/204 190/340/190 316/359/316
f 191/343/191 190/340/190 204/9/204
f 199/362/199 188/342/188 202/369/202
f 188/342/188 187/357/187 202/369/202
f 317/356/317 205/8/205 220/27/220
f 199/362/199 202/369/202 318/370/318
f 318/370/318 202/369/202 220/27/220
f 193/365/193 192/361/192 31/30/31
f 198/363/198 318/370/318 1/13/1
f 18/12/18 198/363/198 1/13/1
f 315/354/315 198/363/198 18/12/18
f 211/397/211 314/398/314 206/399/206
f 193/365/193 206/399/206 314/398/314
f 182/350/182 313/349/313 208/371/208
f 17/355/17 319/373/319 2/5/2
