# Blender 4.5.0
# www.blender.org
mtllib Prototype_Ship.mtl
o Cube
v 0.000000 0.156112 0.581917
v -0.356356 -0.305182 -0.113295
v -0.511893 0.361963 0.000000
v 0.356355 -0.305182 -0.113295
v 0.511893 0.361963 -0.000000
v -0.000001 0.000000 -1.644318
v 0.653389 -0.220028 1.078368
v 0.653389 0.220028 1.078368
v 0.536561 -0.125070 -2.203813
v 0.536561 0.125070 -2.203813
v 1.093444 -0.220028 1.078368
v 1.093444 0.220028 1.078368
v 0.786701 -0.125070 -2.203813
v 0.786701 0.125070 -2.203813
v 0.511453 -0.361963 -0.000000
v 0.511453 0.361963 -0.000000
v 1.235379 -0.361963 -0.000000
v 1.235379 0.361963 -0.000000
v 0.497939 0.163692 -2.118189
v 0.825323 -0.163692 -2.118189
v 0.497939 -0.163692 -2.118189
v 0.825323 0.163692 -2.118189
v 0.536561 0.125070 -2.144516
v 0.536561 -0.125070 -2.144516
v 0.786701 -0.125070 -2.144516
v 0.786701 0.125070 -2.144516
v 0.563828 0.097803 -2.205414
v 0.563828 -0.097803 -2.205414
v 0.759434 -0.097803 -2.205414
v 0.759434 0.097803 -2.205414
v 0.621722 -0.251695 1.173756
v 0.621722 0.251695 1.173756
v 1.125112 0.251695 1.173755
v 1.125112 -0.251695 1.173755
v 0.718788 -0.154629 0.969403
v 0.718788 0.154629 0.969403
v 1.028045 0.154629 0.969402
v 1.028045 -0.154629 0.969402
v -0.653388 -0.220028 1.078369
v -0.653388 0.220028 1.078369
v -0.536563 -0.125070 -2.203813
v -0.536563 0.125070 -2.203813
v -1.093443 -0.220028 1.078369
v -1.093443 0.220028 1.078369
v -0.786702 -0.125070 -2.203813
v -0.786702 0.125070 -2.203813
v -0.511453 -0.361963 0.000000
v -0.511453 0.361963 0.000000
v -1.235379 -0.361963 0.000000
v -1.235379 0.361963 0.000000
v -0.497940 0.163692 -2.118189
v -0.825325 -0.163692 -2.118188
v -0.497940 -0.163692 -2.118189
v -0.825325 0.163692 -2.118188
v -0.536563 0.125070 -2.144516
v -0.536563 -0.125070 -2.144516
v -0.786702 -0.125070 -2.144515
v -0.786702 0.125070 -2.144515
v -0.563829 0.097803 -2.205414
v -0.563829 -0.097803 -2.205414
v -0.759435 -0.097803 -2.205413
v -0.759435 0.097803 -2.205413
v -0.621721 -0.251695 1.173756
v -0.621721 0.251695 1.173756
v -1.125111 0.251695 1.173756
v -1.125111 -0.251695 1.173756
v -0.718787 -0.154629 0.969403
v -0.718787 0.154629 0.969403
v -1.028044 0.154629 0.969403
v -1.028044 -0.154629 0.969403
v -0.511893 -0.361963 0.000000
v 0.000000 0.300670 0.998649
v 0.511893 -0.361963 -0.000000
vn -0.8899 -0.0000 0.4562
vn -0.9548 -0.0000 -0.2972
vn 0.9548 -0.0000 -0.2972
vn 0.8899 -0.0000 0.4562
vn -0.0000 -0.9766 -0.2150
vn -0.0000 0.9766 -0.2150
vn -0.0000 0.9981 0.0613
vn -0.0000 -0.8333 0.5529
vn -0.9116 -0.0000 -0.4112
vn -1.0000 -0.0000 -0.0000
vn 0.9914 -0.0000 0.1305
vn -0.0000 -0.9491 -0.3151
vn -0.0000 -0.9914 0.1305
vn -0.0000 0.9914 0.1305
vn -0.0000 0.9956 -0.0932
vn -0.0000 -0.9956 -0.0932
vn 0.9818 -0.0000 -0.1901
vn -0.9914 -0.0000 0.1305
vn 0.9116 -0.0000 -0.4112
vn -0.0000 -0.9116 -0.4112
vn -0.0000 0.9116 -0.4112
vn -1.0000 -0.0000 0.0064
vn -0.0000 0.9127 -0.4086
vn -0.0000 1.0000 -0.0000
vn -0.0000 -1.0000 -0.0000
vn 1.0000 -0.0000 -0.0000
vn -0.0000 -0.0000 -1.0000
vn -0.9127 -0.0000 -0.4087
vn 0.9127 -0.0000 -0.4087
vn -0.0000 -0.9127 -0.4087
vn -0.0000 0.9033 0.4291
vn -0.0000 0.9491 -0.3151
vn 0.9491 -0.0000 -0.3151
vn -0.9491 -0.0000 -0.3151
vn -0.0000 -0.0000 1.0000
vn 0.9033 -0.0000 0.4291
vn -0.0000 -0.9033 0.4291
vn -0.9033 -0.0000 0.4291
vn -0.9818 -0.0000 -0.1901
vn 1.0000 -0.0000 0.0064
vn -0.0000 0.9127 -0.4087
vn -0.9127 -0.0000 -0.4086
vn 0.5041 -0.8160 0.2830
vn -0.0000 0.8940 0.4481
vn -0.5041 -0.8160 0.2830
vn -0.0000 -0.9127 -0.4086
vt 0.625000 0.000000
vt 0.625000 0.250000
vt 0.375000 0.250000
vt 0.375000 0.500000
vt 0.625000 0.500000
vt 0.625000 0.750000
vt 0.375000 0.750000
vt 0.375000 1.000000
vt 0.125000 0.500000
vt 0.875000 0.500000
vt 0.875000 0.750000
vt 0.326308 0.722730
vt 0.152270 0.722730
vt 0.152270 0.548692
vt 0.625000 0.235673
vt 0.375000 0.235673
vt 0.625000 0.625000
vt 0.375000 0.625000
vt 0.125000 0.750000
vt 0.125000 0.625000
vt 0.625000 0.514327
vt 0.875000 0.625000
vt 0.375000 0.514327
vt 0.125000 0.514327
vt 0.375000 0.125000
vt 0.375000 0.000000
vt 0.625000 0.125000
vt 0.875000 0.514327
vt 0.625000 1.000000
s 0
usemtl Body
f 72/1/1 3/2/1 71/3/1
f 71/3/2 3/2/2 6/4/2
f 6/5/3 5/6/3 73/7/3
f 73/7/4 5/6/4 72/8/4
f 71/9/5 6/4/5 73/7/5
f 6/5/6 3/10/6 5/6/6
f 5/6/7 3/10/7 72/11/7
f 1/13/43 71/9/43 2/14/43
f 2/14/44 73/7/44 4/12/44
f 1/13/45 73/7/45 72/19/45
f 1/13/43 72/19/43 71/9/43
f 2/14/44 71/9/44 73/7/44
f 1/13/45 4/12/45 73/7/45
usemtl Wings
f 19/15/9 9/3/9 21/16/9
f 13/4/10 26/5/10 14/5/10
f 18/17/11 11/7/11 17/18/11
f 7/19/12 34/7/12 31/19/12
f 17/18/13 7/19/13 15/20/13
f 18/17/14 8/11/14 12/6/14
f 22/21/15 16/22/15 18/17/15
f 20/23/16 15/20/16 21/24/16
f 22/21/17 17/18/17 20/23/17
f 8/1/18 15/25/18 7/26/18
f 14/5/19 20/23/19 13/4/19
f 9/9/20 20/23/20 21/24/20
f 10/10/21 22/21/21 14/5/21
f 16/27/22 21/16/22 15/25/22
f 9/9/24 25/4/24 13/4/24
f 10/10/25 26/5/25 23/10/25
f 10/2/26 24/3/26 9/3/26
f 34/7/31 35/19/31 31/19/31
f 8/11/32 33/6/32 12/6/32
f 12/6/33 34/7/33 11/7/33
f 7/26/34 32/1/34 8/1/34
f 31/26/36 36/1/36 32/1/36
f 32/11/37 37/6/37 33/6/37
f 33/6/38 38/7/38 34/7/38
f 41/3/19 51/15/19 53/16/19
f 58/5/26 45/4/26 46/5/26
f 43/7/18 50/17/18 49/18/18
f 63/19/12 43/7/12 39/19/12
f 39/19/13 49/18/13 47/20/13
f 44/6/14 48/22/14 50/17/14
f 54/21/15 48/22/15 51/28/15
f 47/20/16 52/23/16 53/24/16
f 49/18/39 54/21/39 52/23/39
f 47/25/11 40/1/11 39/26/11
f 52/23/9 46/5/9 45/4/9
f 53/24/20 45/4/20 41/9/20
f 46/5/21 51/28/21 42/10/21
f 53/16/40 48/27/40 47/25/40
f 45/4/24 56/9/24 41/9/24
f 55/10/25 46/5/25 42/10/25
f 56/3/10 42/2/10 41/3/10
f 67/19/31 66/7/31 63/19/31
f 65/6/32 40/11/32 44/6/32
f 66/7/34 44/6/34 43/7/34
f 64/1/33 39/26/33 40/1/33
f 68/1/38 63/26/38 64/1/38
f 69/6/37 64/11/37 65/6/37
f 70/7/36 65/6/36 66/7/36
f 19/15/9 10/2/9 9/3/9
f 13/4/10 25/4/10 26/5/10
f 18/17/11 12/6/11 11/7/11
f 7/19/12 11/7/12 34/7/12
f 17/18/13 11/7/13 7/19/13
f 18/17/14 16/22/14 8/11/14
f 22/21/15 19/28/15 16/22/15
f 20/23/16 17/18/16 15/20/16
f 22/21/17 18/17/17 17/18/17
f 8/1/18 16/27/18 15/25/18
f 14/5/19 22/21/19 20/23/19
f 9/9/20 13/4/20 20/23/20
f 10/10/21 19/28/21 22/21/21
f 16/27/22 19/15/22 21/16/22
f 9/9/24 24/9/24 25/4/24
f 10/10/25 14/5/25 26/5/25
f 10/2/26 23/2/26 24/3/26
f 34/7/31 38/7/31 35/19/31
f 8/11/32 32/11/32 33/6/32
f 12/6/33 33/6/33 34/7/33
f 7/26/34 31/26/34 32/1/34
f 31/26/36 35/26/36 36/1/36
f 32/11/37 36/11/37 37/6/37
f 33/6/38 37/6/38 38/7/38
f 41/3/19 42/2/19 51/15/19
f 58/5/26 57/4/26 45/4/26
f 43/7/18 44/6/18 50/17/18
f 63/19/12 66/7/12 43/7/12
f 39/19/13 43/7/13 49/18/13
f 44/6/14 40/11/14 48/22/14
f 54/21/15 50/17/15 48/22/15
f 47/20/16 49/18/16 52/23/16
f 49/18/39 50/17/39 54/21/39
f 47/25/11 48/27/11 40/1/11
f 52/23/9 54/21/9 46/5/9
f 53/24/20 52/23/20 45/4/20
f 46/5/21 54/21/21 51/28/21
f 53/16/40 51/15/40 48/27/40
f 45/4/24 57/4/24 56/9/24
f 55/10/25 58/5/25 46/5/25
f 56/3/10 55/2/10 42/2/10
f 67/19/31 70/7/31 66/7/31
f 65/6/32 64/11/32 40/11/32
f 66/7/34 65/6/34 44/6/34
f 64/1/33 63/26/33 39/26/33
f 68/1/38 67/26/38 63/26/38
f 69/6/37 68/11/37 64/11/37
f 70/7/36 69/6/36 65/6/36
usemtl Engine
f 4/12/8 1/13/8 2/14/8
f 37/6/35 35/8/35 38/7/35
f 67/8/35 69/6/35 70/7/35
f 37/6/35 36/29/35 35/8/35
f 67/8/35 68/29/35 69/6/35
usemtl Energy
f 23/10/23 30/5/23 27/10/23
f 27/2/27 29/4/27 28/3/27
f 23/2/28 28/3/28 24/3/28
f 25/4/29 30/5/29 26/5/29
f 24/9/30 29/4/30 25/4/30
f 59/10/41 58/5/41 55/10/41
f 61/4/27 59/2/27 60/3/27
f 56/3/29 59/2/29 55/2/29
f 62/5/42 57/4/42 58/5/42
f 57/4/30 60/9/30 56/9/30
f 23/10/41 26/5/41 30/5/41
f 27/2/27 30/5/27 29/4/27
f 23/2/28 27/2/28 28/3/28
f 25/4/29 29/4/29 30/5/29
f 24/9/46 28/9/46 29/4/46
f 59/10/41 62/5/41 58/5/41
f 61/4/27 62/5/27 59/2/27
f 56/3/29 60/3/29 59/2/29
f 62/5/42 61/4/42 57/4/42
f 57/4/30 61/4/30 60/9/30
