# Blender 4.5.0
# www.blender.org
mtllib Prototype_Ship_2.mtl
o Cube
v 0.000000 0.282238 -1.256910
v 0.000000 0.634787 -1.391178
v 0.000000 0.149036 0.213307
v 0.000000 0.958601 0.313521
v 0.000000 0.884713 -0.694519
v 0.000000 0.958601 -0.190499
v 0.000000 0.133107 0.486279
v 0.000000 0.203656 -1.521789
v 0.000000 0.383227 -0.253013
v 0.000000 0.357328 0.113833
v 0.000000 0.422779 -1.157396
v 0.000000 0.422634 -0.680454
v 0.000000 0.593430 0.613816
v 0.000000 0.351470 -1.661535
v 0.000000 0.958601 0.901573
v 0.000000 0.781474 1.190664
v 0.000000 0.517404 0.587537
v 0.000000 0.494339 0.423472
v 0.000000 0.212197 0.325950
v 0.586939 0.056341 0.053019
v 0.461121 0.826943 0.313521
v 0.258160 0.100650 -1.094653
v 0.371722 0.536975 -1.179618
v 0.534334 0.085284 -0.596837
v 0.512554 0.727503 -0.694519
v 0.545330 0.843052 -0.190499
v 0.607245 0.059049 -0.175769
v 0.692128 -0.002359 -0.694519
v 0.391697 0.007241 -1.298872
v 0.722959 0.145940 0.483787
v 0.904692 -0.009730 -0.176855
v 0.453148 0.255750 -0.597613
v 0.514981 0.233501 -0.240522
v 0.218935 0.268781 -1.019792
v 0.497760 0.231204 -0.046495
v 0.456653 0.253718 -1.375704
v 0.722959 0.307029 0.483787
v 0.765527 0.349959 -0.708283
v 0.904693 0.413162 -0.159003
v 0.280609 0.826943 0.558123
v 0.399305 0.541467 0.697870
v 0.586420 0.307029 0.483787
v 0.586420 0.145940 0.483787
v 0.310580 0.384887 0.404772
v 0.295435 0.244397 0.356588
v 0.000000 0.167106 0.486279
v 0.904692 0.414658 0.483787
v 0.904692 -0.009730 0.483787
v 0.361360 0.390056 0.483787
v 0.343739 0.226596 0.483787
v 0.705129 0.166975 0.386884
v 0.705129 0.285993 0.386884
v 0.604249 0.285993 0.386884
v 0.604249 0.166975 0.386884
v 0.000000 0.277563 -1.591662
v 0.000000 0.353268 0.374711
v 0.424175 0.130480 -1.337288
v 0.904692 0.202464 0.483787
v 0.754493 0.173800 -0.701401
v 0.904693 0.201716 -0.167929
v 0.352550 0.308326 0.483787
v 0.303008 0.314642 0.380680
v 0.749115 0.226484 0.483787
v 0.560264 0.226484 0.483787
v 0.724454 0.226484 0.386884
v 0.584924 0.226484 0.386884
v 1.484308 0.066499 1.045755
v 1.484308 0.338429 1.045755
v 1.340337 0.101674 -2.475679
v 1.340337 0.303253 -2.475679
v 0.757646 -0.009730 -2.509759
v 0.757646 0.414658 -2.509759
v 1.011525 0.066409 1.045950
v 1.011525 0.338519 1.045950
v 0.920471 0.453610 -2.651422
v 1.247360 -0.082420 1.045755
v 0.920471 -0.048682 -2.651422
v 1.247360 0.560413 1.302105
v 1.591304 -0.009730 -0.176855
v 1.591304 0.414658 -0.176855
v 0.904693 0.413162 -0.159003
v 0.904692 -0.009730 -0.176855
v 1.247360 0.821094 -0.176855
v 1.247360 -0.343102 -0.176855
v 1.591304 0.414658 0.483787
v 0.904692 0.414658 0.483787
v 0.904692 -0.009730 0.483787
v 1.247360 0.821094 0.483787
v 1.247360 -0.343102 0.483787
v 1.591304 -0.009730 0.483787
v 1.591304 0.414658 0.956350
v 1.591304 -0.009730 0.956350
v 1.247360 -0.224060 0.956350
v 1.247360 0.702052 1.243744
v 0.904692 0.414658 0.956350
v 0.904692 -0.009730 0.956350
v 1.419207 0.121893 0.838748
v 1.419207 0.283035 0.838748
v 1.076473 0.121840 0.838748
v 1.076473 0.283088 0.838748
v 1.247437 -0.009652 0.838748
v 1.247437 0.414580 0.838748
v 0.825172 0.582483 -2.691311
v 1.435636 0.363873 -2.435791
v 1.435636 0.041055 -2.435791
v 0.825172 -0.177555 -2.691311
v 0.963634 0.395240 -2.589266
v 1.297174 0.275797 -2.449657
v 1.297174 0.129131 -2.449657
v 0.963634 0.009688 -2.589266
v 0.920471 0.453610 -2.547121
v 1.340337 0.303253 -2.371378
v 1.340337 0.101674 -2.371378
v 0.920471 -0.048682 -2.547121
v -0.586939 0.056341 0.053019
v -0.461121 0.826943 0.313521
v -0.258160 0.100650 -1.094653
v -0.371722 0.536975 -1.179618
v -0.534334 0.085284 -0.596837
v -0.512554 0.727503 -0.694519
v -0.545330 0.843052 -0.190499
v -0.607245 0.059049 -0.175769
v -0.692128 -0.002359 -0.694519
v -0.391697 0.007241 -1.298872
v -0.722959 0.145940 0.483787
v -0.904692 -0.009730 -0.176855
v -0.453148 0.255750 -0.597613
v -0.514981 0.233501 -0.240522
v -0.218935 0.268781 -1.019792
v -0.497760 0.231204 -0.046495
v -0.456653 0.253718 -1.375704
v -0.722959 0.307029 0.483787
v -0.765527 0.349959 -0.708283
v -0.904693 0.413162 -0.159003
v -0.280609 0.826943 0.558123
v -0.399305 0.541467 0.697870
v -0.586420 0.307029 0.483787
v -0.586420 0.145940 0.483787
v -0.310580 0.384887 0.404772
v -0.295435 0.244397 0.356588
v -0.904692 0.414658 0.483787
v -0.904692 -0.009730 0.483787
v -0.361360 0.390056 0.483787
v -0.343739 0.226596 0.483787
v -0.705129 0.166975 0.386884
v -0.705129 0.285993 0.386884
v -0.604249 0.285993 0.386884
v -0.604249 0.166975 0.386884
v -0.424175 0.130480 -1.337288
v -0.904692 0.202464 0.483787
v -0.754493 0.173800 -0.701401
v -0.904693 0.201716 -0.167929
v -0.352550 0.308326 0.483787
v -0.303008 0.314642 0.380680
v -0.749115 0.226484 0.483787
v -0.560264 0.226484 0.483787
v -0.724454 0.226484 0.386884
v -0.584924 0.226484 0.386884
v -1.484308 0.066499 1.045755
v -1.484308 0.338429 1.045755
v -1.340337 0.101674 -2.475679
v -1.340337 0.303253 -2.475679
v -0.757646 -0.009730 -2.509759
v -0.757646 0.414658 -2.509759
v -1.011525 0.066409 1.045950
v -1.011525 0.338519 1.045950
v -0.920471 0.453610 -2.651422
v -1.247360 -0.082420 1.045755
v -0.920471 -0.048682 -2.651422
v -1.247360 0.560413 1.302105
v -1.591304 -0.009730 -0.176855
v -1.591304 0.414658 -0.176855
v -0.904693 0.413162 -0.159003
v -0.904692 -0.009730 -0.176855
v -1.247360 0.821094 -0.176855
v -1.247360 -0.343102 -0.176855
v -1.591304 0.414658 0.483787
v -0.904692 0.414658 0.483787
v -0.904692 -0.009730 0.483787
v -1.247360 0.821094 0.483787
v -1.247360 -0.343102 0.483787
v -1.591304 -0.009730 0.483787
v -1.591304 0.414658 0.956350
v -1.591304 -0.009730 0.956350
v -1.247360 -0.224060 0.956350
v -1.247360 0.702052 1.243744
v -0.904692 0.414658 0.956350
v -0.904692 -0.009730 0.956350
v -1.419207 0.121893 0.838748
v -1.419207 0.283035 0.838748
v -1.076473 0.121840 0.838748
v -1.076473 0.283088 0.838748
v -1.247437 -0.009652 0.838748
v -1.247437 0.414580 0.838748
v -0.825172 0.582483 -2.691311
v -1.435636 0.363873 -2.435791
v -1.435636 0.041055 -2.435791
v -0.825172 -0.177555 -2.691311
v -0.963634 0.395240 -2.589266
v -1.297174 0.275797 -2.449657
v -1.297174 0.129131 -2.449657
v -0.963634 0.009688 -2.589266
v -0.920471 0.453610 -2.547121
v -1.340337 0.303253 -2.371378
v -1.340337 0.101674 -2.371378
v -0.920471 -0.048682 -2.547121
vn -0.7547 -0.4056 0.5156
vn -0.7449 -0.4086 0.5274
vn -0.0000 -0.5779 0.8161
vn -0.0000 0.6875 -0.7262
vn -0.0000 0.8046 -0.5938
vn 0.5594 0.6821 -0.4710
vn 0.6164 0.5665 -0.5469
vn 0.7543 0.6523 -0.0750
vn 0.5280 0.8451 -0.0839
vn 0.4688 0.8815 0.0570
vn 0.7150 0.6964 0.0614
vn -0.6682 -0.5501 -0.5009
vn -0.6730 -0.5501 -0.4944
vn -0.8901 -0.4534 0.0466
vn -0.8835 -0.4684 -0.0032
vn -0.0000 0.9970 -0.0774
vn -0.0000 0.9982 0.0604
vn -0.1788 -0.9480 0.2632
vn -0.0000 0.9585 -0.2851
vn 0.5617 0.7679 -0.3079
vn 0.7675 0.5547 -0.3213
vn -0.0000 -0.5252 -0.8510
vn -0.4659 -0.8700 0.1614
vn -0.4822 -0.8617 0.1579
vn -0.3493 -0.9287 0.1241
vn -0.3435 -0.9322 0.1139
vn -0.1873 -0.9820 -0.0233
vn -0.1804 -0.9832 -0.0283
vn -0.0000 -0.9991 -0.0431
vn -0.0000 -0.9855 0.1695
vn -0.2542 -0.9669 0.0220
vn -0.2626 -0.9645 0.0276
vn -0.0000 -0.9984 -0.0559
vn -0.2871 -0.9564 -0.0538
vn -0.2701 -0.9612 -0.0566
vn -0.0000 -0.9983 -0.0588
vn -0.0000 -0.9929 0.1191
vn -0.4565 -0.8834 0.1060
vn -0.3567 -0.9342 0.0001
vn -0.0000 -0.9992 0.0405
vn -0.8603 -0.4083 0.3053
vn -0.8703 -0.4132 0.2681
vn 0.9190 -0.1721 -0.3547
vn 0.9372 -0.1043 -0.3329
vn 0.9926 -0.0123 -0.1208
vn 0.9885 -0.0425 -0.1449
vn 0.6315 -0.4054 -0.6610
vn 0.6513 -0.3760 -0.6591
vn -0.0000 0.0096 1.0000
vn 0.0046 0.0096 0.9999
vn 1.0000 -0.0000 -0.0000
vn -0.0000 -0.5245 -0.8514
vn -0.0000 -0.5281 -0.8492
vn 0.7544 0.5398 0.3735
vn -0.0000 0.9964 0.0852
vn 0.3659 0.9273 0.0793
vn 0.5001 0.6548 0.5668
vn 0.0462 -0.4785 0.8769
vn -0.0000 -0.4790 0.8778
vn -0.9691 -0.0000 0.2466
vn -0.5707 -0.7744 0.2731
vn -0.5585 -0.7833 0.2728
vn -0.0599 -0.3234 0.9444
vn -0.0585 -0.3235 0.9444
vn -0.0000 -0.3241 0.9460
vn -0.0000 -0.3240 0.9461
vn -0.0000 -0.9837 0.1798
vn -0.7147 -0.5753 0.3979
vn -0.7390 -0.5339 0.4110
vn -0.7107 0.5765 0.4033
vn -0.5700 0.7326 0.3720
vn -0.0000 0.9714 0.2376
vn -0.8983 0.0273 0.4386
vn -0.9020 0.0290 0.4307
vn -0.0000 -0.0000 1.0000
vn 0.5707 0.7744 0.2731
vn -0.5707 0.7744 0.2731
vn -0.5585 0.7833 0.2728
vn 0.5585 0.7833 0.2728
vn 0.5707 -0.7744 0.2731
vn 0.5585 -0.7833 0.2728
vn 0.9691 -0.0000 0.2466
vn -0.0612 -0.3234 0.9443
vn -0.0000 -0.5169 -0.8561
vn 0.6461 -0.4290 -0.6313
vn 0.9831 -0.0773 -0.1662
vn 0.8933 -0.2469 -0.3756
vn -0.3371 0.9415 -0.0000
vn 0.6199 -0.7785 0.0981
vn -0.7235 0.6871 0.0664
vn 0.9542 -0.0000 0.2991
vn -0.9980 -0.0013 0.0627
vn -0.5144 -0.8064 0.2919
vn 0.7222 0.6885 0.0665
vn -0.6213 -0.7774 0.0979
vn -0.9373 -0.0000 -0.3486
vn -0.7601 -0.6464 0.0672
vn 0.5660 0.8159 -0.1180
vn -1.0000 -0.0000 -0.0000
vn -0.8020 0.5938 0.0649
vn 0.5182 -0.8492 -0.1012
vn 0.9976 -0.0000 -0.0687
vn -0.6973 -0.7168 -0.0000
vn 0.7634 0.6460 -0.0000
vn -0.7651 0.6439 -0.0007
vn 0.6960 -0.7181 -0.0000
vn 0.6412 -0.0000 0.7674
vn 0.3155 -0.5046 0.8036
vn -0.7279 0.1034 0.6778
vn -0.6426 -0.0000 0.7662
vn -0.3166 -0.5048 0.8031
vn 0.7267 0.1037 0.6791
vn -0.5350 0.7797 0.3254
vn 0.5367 0.7786 0.3252
vn 0.5159 -0.8054 0.2918
vn -0.9539 -0.0000 0.3000
vn 0.3861 -0.0000 -0.9225
vn -0.3371 -0.9415 -0.0000
vn 0.4714 0.7182 -0.5118
vn 0.8757 -0.0000 -0.4829
vn 0.4714 -0.7182 -0.5118
vn -0.6986 -0.0000 -0.7155
vn 0.7547 -0.4056 0.5156
vn 0.7449 -0.4086 0.5274
vn -0.6164 0.5665 -0.5469
vn -0.5594 0.6821 -0.4710
vn -0.7543 0.6523 -0.0750
vn -0.7150 0.6964 0.0614
vn -0.4688 0.8815 0.0570
vn -0.5280 0.8451 -0.0839
vn 0.6682 -0.5501 -0.5009
vn 0.8835 -0.4684 -0.0032
vn 0.8901 -0.4534 0.0466
vn 0.6730 -0.5501 -0.4944
vn 0.1788 -0.9480 0.2632
vn -0.5617 0.7679 -0.3079
vn -0.7675 0.5547 -0.3213
vn 0.4659 -0.8700 0.1614
vn 0.3435 -0.9322 0.1139
vn 0.3493 -0.9287 0.1241
vn 0.4822 -0.8617 0.1579
vn 0.1873 -0.9820 -0.0233
vn 0.1804 -0.9832 -0.0283
vn 0.2626 -0.9645 0.0276
vn 0.2542 -0.9669 0.0220
vn 0.2701 -0.9612 -0.0566
vn 0.2871 -0.9564 -0.0538
vn 0.3567 -0.9342 0.0001
vn 0.4565 -0.8834 0.1060
vn 0.8703 -0.4132 0.2681
vn 0.8603 -0.4083 0.3053
vn -0.9190 -0.1721 -0.3547
vn -0.9885 -0.0425 -0.1449
vn -0.9926 -0.0123 -0.1208
vn -0.9372 -0.1043 -0.3329
vn -0.6315 -0.4054 -0.6610
vn -0.6513 -0.3760 -0.6591
vn -0.0046 0.0096 0.9999
vn -0.7544 0.5398 0.3735
vn -0.3659 0.9273 0.0793
vn -0.5001 0.6548 0.5668
vn -0.0462 -0.4785 0.8769
vn 0.0599 -0.3234 0.9444
vn 0.0585 -0.3235 0.9444
vn 0.7390 -0.5339 0.4110
vn 0.7147 -0.5753 0.3979
vn 0.7107 0.5765 0.4033
vn 0.5700 0.7326 0.3720
vn 0.8983 0.0273 0.4386
vn 0.9020 0.0290 0.4307
vn 0.0612 -0.3234 0.9443
vn -0.6461 -0.4290 -0.6313
vn -0.9831 -0.0773 -0.1662
vn -0.8933 -0.2469 -0.3756
vn 0.3371 0.9415 -0.0000
vn -0.6199 -0.7785 0.0981
vn 0.7235 0.6871 0.0664
vn -0.9542 -0.0000 0.2991
vn 0.9980 -0.0013 0.0627
vn 0.5144 -0.8064 0.2919
vn -0.7222 0.6885 0.0665
vn 0.6213 -0.7774 0.0979
vn 0.9373 -0.0000 -0.3486
vn 0.7601 -0.6464 0.0672
vn -0.5660 0.8159 -0.1180
vn 0.8020 0.5938 0.0649
vn -0.5182 -0.8492 -0.1012
vn -0.9976 -0.0000 -0.0687
vn 0.6973 -0.7168 -0.0000
vn -0.7634 0.6460 -0.0000
vn 0.7651 0.6439 -0.0007
vn -0.6960 -0.7181 -0.0000
vn -0.6412 -0.0000 0.7674
vn -0.3155 -0.5046 0.8036
vn 0.7279 0.1034 0.6778
vn 0.6426 -0.0000 0.7662
vn 0.3166 -0.5048 0.8031
vn -0.7267 0.1037 0.6791
vn 0.5350 0.7797 0.3254
vn -0.5367 0.7786 0.3252
vn -0.5159 -0.8054 0.2918
vn 0.9539 -0.0000 0.3000
vn -0.3861 -0.0000 -0.9225
vn 0.3371 -0.9415 -0.0000
vn -0.4714 0.7182 -0.5118
vn -0.8757 -0.0000 -0.4829
vn -0.4714 -0.7182 -0.5118
vn 0.6986 -0.0000 -0.7155
vt 0.405713 0.119622
vt 0.395021 0.102872
vt 0.428679 0.011629
vt 0.446264 0.011629
vt 0.711718 0.974641
vt 0.641850 0.974641
vt 0.581470 0.848094
vt 0.628899 0.780232
vt 0.354475 0.740842
vt 0.363610 0.858585
vt 0.258777 0.874216
vt 0.228837 0.759566
vt 0.223924 0.135426
vt 0.247635 0.111959
vt 0.275164 0.115299
vt 0.272251 0.140378
vt 0.371548 0.974641
vt 0.258373 0.974641
vt 0.152789 0.205825
vt 0.081374 0.232751
vt 0.012857 0.240997
vt 0.012857 0.215512
vt 0.485829 0.974641
vt 0.468776 0.844461
vt 0.475316 0.749274
vt 0.012857 0.037115
vt 0.012857 0.011629
vt 0.416404 0.136373
vt 0.334251 0.155011
vt 0.330483 0.134332
vt 0.177960 0.149743
vt 0.012857 0.062600
vt 0.480040 0.011629
vt 0.269338 0.165456
vt 0.281956 0.011629
vt 0.326715 0.113652
vt 0.352658 0.011629
vt 0.338019 0.175691
vt 0.341787 0.196370
vt 0.263512 0.215613
vt 0.266425 0.190535
vt 0.427096 0.153123
vt 0.437787 0.169873
vt 0.097158 0.149461
vt 0.012857 0.088085
vt 0.165375 0.177784
vt 0.492450 0.011629
vt 0.504614 0.011629
vt 0.162246 0.849258
vt 0.204306 0.908068
vt 0.130392 0.974641
vt 0.011340 0.974641
vt 0.083231 0.179174
vt 0.012857 0.190027
vt 0.148474 0.179433
vt 0.139346 0.187853
vt 0.135043 0.179794
vt 0.137783 0.176175
vt 0.077745 0.160427
vt 0.075752 0.168802
vt 0.012857 0.164541
vt 0.012857 0.139056
vt 0.078787 0.152274
vt 0.012857 0.113571
vt 0.090136 0.165099
vt 0.144849 0.167152
vt 0.117200 0.181104
vt 0.115259 0.166674
vt 0.126920 0.158002
vt 0.125060 0.170722
vt 0.128259 0.166927
vt 0.137779 0.171612
vt 0.124590 0.175785
vt 0.329605 0.326466
vt 0.373802 0.291111
vt 0.367693 0.304119
vt 0.336750 0.329003
vt 0.099580 0.320862
vt 0.098021 0.355460
vt 0.058483 0.357058
vt 0.063099 0.323761
vt 0.098992 0.278104
vt 0.059395 0.278104
vt 0.098285 0.397789
vt 0.099613 0.439268
vt 0.059799 0.438711
vt 0.017076 0.398209
vt 0.047536 0.442825
vt 0.054165 0.469552
vt 0.038218 0.469095
vt 0.034598 0.450769
vt 0.152042 0.439847
vt 0.351530 0.436889
vt 0.351944 0.471221
vt 0.155884 0.473143
vt 0.046109 0.353247
vt 0.017076 0.373208
vt 0.017076 0.345739
vt 0.032400 0.345475
vt 0.102085 0.473196
vt 0.102790 0.511401
vt 0.062724 0.511401
vt 0.065396 0.471577
vt 0.379911 0.397789
vt 0.379911 0.511401
vt 0.157662 0.511401
vt 0.322091 0.348147
vt 0.149785 0.397789
vt 0.150716 0.354348
vt 0.379911 0.278104
vt 0.322460 0.323929
vt 0.152214 0.318896
vt 0.154890 0.278104
vt 0.051954 0.326071
vt 0.047177 0.278104
vt 0.017076 0.423410
vt 0.050172 0.511401
vt 0.017076 0.511401
vt 0.017076 0.450918
vt 0.036590 0.327489
vt 0.017076 0.278104
vt 0.329306 0.345946
vt 0.373615 0.383653
vt 0.361584 0.317126
vt 0.361023 0.355381
vt 0.343736 0.341545
vt 0.343895 0.331540
vt 0.336521 0.343746
vt 0.367319 0.369517
s 1
usemtl Body
f 22/1/1 34/2/2 11/3/3 1/4/3
f 14/5/4 2/6/5 23/7/6 36/8/7
f 39/9/8 26/10/9 21/11/10 47/12/11
f 20/13/12 35/14/13 33/15/14 27/16/15
f 26/10/9 6/17/16 4/18/17 21/11/10
f 47/19/18 41/20/18 16/21/18 13/22/18
f 36/8/7 23/7/6 25/24/20 38/25/21
f 3/26/22 10/27/22 35/14/13 20/13/12
f 38/25/21 25/24/20 26/10/9 39/9/8
f 22/1/23 29/28/24 28/29/25 24/30/26
f 20/13/27 48/31/28 7/32/29 3/26/29
f 1/4/30 8/33/30 29/28/24 22/1/23
f 24/30/26 28/29/25 31/34/31 27/16/32
f 27/16/32 31/34/31 48/31/28 20/13/27
f 27/16/15 33/15/14 32/36/41 24/30/42
f 24/30/42 32/36/41 34/2/2 22/1/1
f 59/38/43 38/39/44 39/40/45 60/41/46
f 57/42/47 36/43/48 38/39/44 59/38/43
f 7/32/49 48/31/50 50/44/50 46/45/49
f 60/41/46 39/40/45 47/19/51 58/46/51
f 55/47/52 14/48/53 36/43/48 57/42/47
f 41/49/54 40/50/54 15/51/54 16/52/54
f 4/18/17 15/51/55 40/50/56 21/11/10
f 21/11/57 40/50/57 41/49/57 47/12/57
f 49/53/58 47/19/58 13/22/59 17/54/59
f 63/55/60 37/56/61 52/57/62 65/58/60
f 17/54/67 18/61/67 44/60/68 49/53/69
f 50/44/70 45/63/71 19/64/72 46/45/72
f 61/65/73 62/59/74 45/63/71 50/44/70
f 63/55/75 30/66/75 48/31/75 58/46/75
f 42/67/75 37/56/75 47/19/75 49/53/75
f 64/68/75 42/67/75 49/53/75 61/65/75
f 30/66/75 43/69/75 50/44/75 48/31/75
f 43/69/76 30/66/77 51/72/78 54/71/79
f 37/56/61 42/67/80 53/73/81 52/57/62
f 64/68/82 43/69/76 54/71/79 66/70/82
f 42/67/80 64/68/82 66/70/82 53/73/81
f 43/69/75 64/68/75 61/65/75 50/44/75
f 37/56/75 63/55/75 58/46/75 47/19/75
f 49/53/69 44/60/68 62/59/74 61/65/73
f 30/66/77 63/55/60 65/58/60 51/72/78
f 8/33/84 55/47/52 57/42/47 29/28/85
f 31/34/86 60/41/46 58/46/51 48/31/51
f 29/28/85 57/42/47 59/38/43 28/29/87
f 28/29/87 59/38/43 60/41/46 31/34/86
f 117/1/123 1/4/3 11/3/3 129/2/124
f 14/5/4 131/8/125 118/7/126 2/6/5
f 134/9/127 141/12/128 116/11/129 121/10/130
f 115/13/131 122/16/132 128/15/133 130/14/134
f 121/10/130 116/11/129 4/18/17 6/17/16
f 141/19/135 13/22/135 16/21/135 136/20/135
f 131/8/125 133/25/137 120/24/136 118/7/126
f 3/26/22 115/13/131 130/14/134 10/27/22
f 133/25/137 134/9/127 121/10/130 120/24/136
f 117/1/138 119/30/139 123/29/140 124/28/141
f 115/13/142 3/26/29 7/32/29 142/31/143
f 1/4/30 117/1/138 124/28/141 8/33/30
f 119/30/139 122/16/144 126/34/145 123/29/140
f 122/16/144 115/13/142 142/31/143 126/34/145
f 122/16/132 119/30/150 127/36/151 128/15/133
f 119/30/150 117/1/123 129/2/124 127/36/151
f 151/38/152 152/41/153 134/40/154 133/39/155
f 149/42/156 151/38/152 133/39/155 131/43/157
f 7/32/49 46/45/49 144/44/158 142/31/158
f 152/41/153 150/46/99 141/19/99 134/40/154
f 55/47/52 149/42/156 131/43/157 14/48/53
f 136/49/159 16/52/159 15/51/159 135/50/159
f 4/18/17 116/11/129 135/50/160 15/51/55
f 116/11/161 141/12/161 136/49/161 135/50/161
f 143/53/162 17/54/59 13/22/59 141/19/162
f 155/55/82 157/58/82 146/57/81 132/56/80
f 17/54/67 143/53/165 139/60/166 18/61/67
f 144/44/167 46/45/72 19/64/72 140/63/168
f 153/65/169 144/44/167 140/63/168 154/59/170
f 155/55/75 150/46/75 142/31/75 125/66/75
f 137/67/75 143/53/75 141/19/75 132/56/75
f 156/68/75 153/65/75 143/53/75 137/67/75
f 125/66/75 142/31/75 144/44/75 138/69/75
f 138/69/77 148/71/78 145/72/79 125/66/76
f 132/56/80 146/57/81 147/73/62 137/67/61
f 156/68/60 158/70/60 148/71/78 138/69/77
f 137/67/61 147/73/62 158/70/60 156/68/60
f 138/69/75 144/44/75 153/65/75 156/68/75
f 132/56/75 141/19/75 150/46/75 155/55/75
f 143/53/165 153/65/169 154/59/170 139/60/166
f 125/66/76 145/72/79 157/58/82 155/55/82
f 8/33/84 124/28/172 149/42/156 55/47/52
f 126/34/173 142/31/99 150/46/99 152/41/153
f 124/28/172 123/29/174 151/38/152 149/42/156
f 123/29/174 126/34/173 152/41/153 151/38/152
s 0
usemtl Wings
f 69/74/88 77/75/88 114/76/88 113/77/88
f 90/78/51 85/79/51 91/80/51 92/81/51
f 89/82/89 90/78/89 92/81/89 93/83/89
f 88/84/90 86/85/90 95/86/90 94/87/90
f 74/88/91 73/89/91 99/90/91 100/91/91
f 81/92/92 72/93/92 71/94/92 82/95/92
f 68/96/93 78/97/93 102/98/93 98/99/93
f 85/79/94 88/84/94 94/87/94 91/80/94
f 87/100/95 89/101/95 93/102/95 96/103/95
f 71/94/96 72/93/96 103/104/96 106/105/96
f 71/94/97 106/105/97 84/106/97 82/95/97
f 104/107/98 103/104/98 83/108/98 80/109/98
f 86/85/99 81/92/99 82/95/99 87/100/99
f 103/104/100 72/93/100 81/92/100 83/108/100
f 106/110/101 105/111/101 79/112/101 84/113/101
f 105/111/102 104/107/102 80/109/102 79/112/102
f 95/86/99 86/85/99 87/100/99 96/103/99
f 82/95/103 84/106/103 89/101/103 87/100/103
f 80/109/104 83/108/104 88/84/104 85/79/104
f 83/108/105 81/92/105 86/85/105 88/84/105
f 84/113/106 79/112/106 90/78/106 89/82/106
f 79/112/51 80/109/51 85/79/51 90/78/51
f 68/96/107 67/114/107 92/81/107 91/80/107
f 67/114/108 76/115/108 93/83/108 92/81/108
f 74/88/109 78/116/109 94/87/109 95/86/109
f 73/89/110 74/88/110 95/86/110 96/103/110
f 76/117/111 73/89/111 96/103/111 93/102/111
f 78/97/112 68/96/112 91/80/112 94/87/112
f 76/115/113 67/114/113 97/120/113 101/121/113
f 73/89/114 76/117/114 101/118/114 99/90/114
f 78/116/115 74/88/115 100/91/115 102/119/115
f 67/114/116 68/96/116 98/99/116 97/120/116
f 70/122/117 75/123/117 103/104/117 104/107/117
f 69/74/117 70/122/117 104/107/117 105/111/117
f 77/75/117 69/74/117 105/111/117 106/110/117
f 75/123/117 77/75/117 106/110/117 103/104/117
f 75/123/118 70/122/118 112/128/118 111/129/118
f 77/75/51 75/123/51 111/129/51 114/76/51
f 70/122/99 69/74/99 113/77/99 112/128/99
f 161/74/175 205/77/175 206/76/175 169/75/175
f 182/78/99 184/81/99 183/80/99 177/79/99
f 181/82/176 185/83/176 184/81/176 182/78/176
f 180/84/177 186/87/177 187/86/177 178/85/177
f 166/88/178 192/91/178 191/90/178 165/89/178
f 173/92/179 174/95/179 163/94/179 164/93/179
f 160/96/180 190/99/180 194/98/180 170/97/180
f 177/79/181 183/80/181 186/87/181 180/84/181
f 179/100/182 188/103/182 185/102/182 181/101/182
f 163/94/183 198/105/183 195/104/183 164/93/183
f 163/94/184 174/95/184 176/106/184 198/105/184
f 196/107/185 172/109/185 175/108/185 195/104/185
f 178/85/51 179/100/51 174/95/51 173/92/51
f 195/104/186 175/108/186 173/92/186 164/93/186
f 198/110/187 176/113/187 171/112/187 197/111/187
f 197/111/188 171/112/188 172/109/188 196/107/188
f 187/86/51 188/103/51 179/100/51 178/85/51
f 174/95/189 179/100/189 181/101/189 176/106/189
f 172/109/190 177/79/190 180/84/190 175/108/190
f 175/108/191 180/84/191 178/85/191 173/92/191
f 176/113/192 181/82/192 182/78/192 171/112/192
f 171/112/99 182/78/99 177/79/99 172/109/99
f 160/96/193 183/80/193 184/81/193 159/114/193
f 159/114/194 184/81/194 185/83/194 168/115/194
f 166/88/195 187/86/195 186/87/195 170/116/195
f 165/89/196 188/103/196 187/86/196 166/88/196
f 168/117/197 185/102/197 188/103/197 165/89/197
f 170/97/198 186/87/198 183/80/198 160/96/198
f 168/115/199 193/121/199 189/120/199 159/114/199
f 165/89/200 191/90/200 193/118/200 168/117/200
f 170/116/201 194/119/201 192/91/201 166/88/201
f 159/114/202 189/120/202 190/99/202 160/96/202
f 162/122/203 196/107/203 195/104/203 167/123/203
f 161/74/203 197/111/203 196/107/203 162/122/203
f 169/75/203 198/110/203 197/111/203 161/74/203
f 167/123/203 195/104/203 198/110/203 169/75/203
f 167/123/204 203/129/204 204/128/204 162/122/204
f 169/75/99 206/76/99 203/129/99 167/123/99
f 162/122/51 204/128/51 205/77/51 161/74/51
s 1
usemtl Engine
f 62/59/63 44/60/64 18/61/65 56/62/66
f 65/58/75 66/70/75 54/71/75 51/72/75
f 52/57/75 53/73/75 66/70/75 65/58/75
f 45/63/83 62/59/63 56/62/66 19/64/66
s 0
f 101/118/75 102/119/75 100/91/75 99/90/75
f 97/120/75 98/99/75 102/98/75 101/121/75
s 1
f 154/59/163 56/62/66 18/61/65 139/60/164
f 157/58/75 145/72/75 148/71/75 158/70/75
f 146/57/75 157/58/75 158/70/75 147/73/75
f 140/63/171 19/64/66 56/62/66 154/59/163
s 0
f 193/118/75 191/90/75 192/91/75 194/119/75
f 189/120/75 193/121/75 194/98/75 190/99/75
s 1
usemtl Energy
f 9/35/33 33/15/34 35/14/35 10/27/36
f 11/3/37 34/2/38 32/36/39 12/37/40
f 12/37/40 32/36/39 33/15/34 9/35/33
s 0
f 110/124/117 107/125/117 108/126/117 109/127/117
f 108/126/119 107/125/119 111/129/119 112/128/119
f 109/127/120 108/126/120 112/128/120 113/77/120
f 110/124/121 109/127/121 113/77/121 114/76/121
f 107/125/122 110/124/122 114/76/122 111/129/122
s 1
f 9/35/33 10/27/36 130/14/146 128/15/147
f 11/3/37 12/37/40 127/36/148 129/2/149
f 12/37/40 9/35/33 128/15/147 127/36/148
s 0
f 202/124/203 201/127/203 200/126/203 199/125/203
f 200/126/205 204/128/205 203/129/205 199/125/205
f 201/127/206 205/77/206 204/128/206 200/126/206
f 202/124/207 206/76/207 205/77/207 201/127/207
f 199/125/208 203/129/208 206/76/208 202/124/208
s 1
usemtl Glass
f 23/7/6 2/6/5 5/23/19 25/24/20
f 25/24/20 5/23/19 6/17/16 26/10/9
f 118/7/126 120/24/136 5/23/19 2/6/5
f 120/24/136 121/10/130 6/17/16 5/23/19
