# Blender 4.5.0
# www.blender.org
o Torus
v 11.241162 0.000000 0.000000
v 11.339657 0.000000 0.300475
v 11.631513 0.000000 0.488081
v 12.022433 -0.000000 0.399222
v 12.220093 -0.000000 -0.000000
v 12.022433 0.000000 -0.399222
v 11.631513 0.000000 -0.488081
v 11.339657 0.000000 -0.300475
v 10.858128 -2.909426 -0.000000
v 10.953267 -2.934918 0.300475
v 11.235177 -3.010456 0.488081
v 11.612779 -3.111634 0.399222
v 11.803702 -3.162792 -0.000000
v 11.612778 -3.111634 -0.399222
v 11.235177 -3.010456 -0.488081
v 10.953267 -2.934918 -0.300475
v 9.735131 -5.620583 -0.000000
v 9.820431 -5.669829 0.300475
v 10.073184 -5.815758 0.488081
v 10.411732 -6.011218 0.399221
v 10.582910 -6.110048 -0.000000
v 10.411732 -6.011217 -0.399222
v 10.073184 -5.815758 -0.488081
v 9.820431 -5.669829 -0.300475
v 7.948701 -7.948703 -0.000000
v 8.018348 -8.018350 0.300474
v 8.224720 -8.224722 0.488080
v 8.501143 -8.501144 0.399221
v 8.640910 -8.640910 -0.000001
v 8.501143 -8.501144 -0.399222
v 8.224720 -8.224722 -0.488081
v 8.018348 -8.018350 -0.300476
v 5.620580 -9.735133 -0.000001
v 5.669827 -9.820431 0.300474
v 5.815756 -10.073186 0.488080
v 6.011216 -10.411734 0.399221
v 6.110046 -10.582912 -0.000001
v 6.011216 -10.411734 -0.399222
v 5.815756 -10.073186 -0.488082
v 5.669827 -9.820433 -0.300475
v 2.909427 -10.858128 -0.000001
v 2.934920 -10.953268 0.300474
v 3.010457 -11.235177 0.488080
v 3.111635 -11.612779 0.399220
v 3.162793 -11.803702 -0.000001
v 3.111635 -11.612779 -0.399222
v 3.010457 -11.235177 -0.488082
v 2.934920 -10.953268 -0.300475
v 0.000001 -11.241162 -0.000001
v 0.000001 -11.339657 0.300474
v 0.000001 -11.631513 0.488080
v 0.000001 -12.022433 0.399220
v 0.000001 -12.220093 -0.000001
v 0.000001 -12.022433 -0.399222
v 0.000001 -11.631513 -0.488082
v 0.000001 -11.339657 -0.300476
v -2.909425 -10.858130 -0.000001
v -2.934918 -10.953268 0.300474
v -3.010455 -11.235178 0.488080
v -3.111633 -11.612779 0.399220
v -3.162791 -11.803703 -0.000001
v -3.111633 -11.612780 -0.399222
v -3.010455 -11.235178 -0.488082
v -2.934918 -10.953268 -0.300476
v -5.620579 -9.735134 -0.000001
v -5.669826 -9.820432 0.300475
v -5.815754 -10.073186 0.488080
v -6.011215 -10.411734 0.399220
v -6.110046 -10.582912 -0.000001
v -6.011215 -10.411734 -0.399222
v -5.815754 -10.073187 -0.488082
v -5.669827 -9.820432 -0.300476
v -7.948705 -7.948699 -0.000000
v -8.018351 -8.018347 0.300475
v -8.224723 -8.224718 0.488080
v -8.501145 -8.501141 0.399220
v -8.640912 -8.640909 -0.000001
v -8.501145 -8.501141 -0.399222
v -8.224723 -8.224718 -0.488081
v -8.018351 -8.018347 -0.300476
v -9.735130 -5.620584 -0.000000
v -9.820430 -5.669831 0.300475
v -10.073184 -5.815759 0.488081
v -10.411732 -6.011219 0.399221
v -10.582910 -6.110049 -0.000000
v -10.411732 -6.011219 -0.399222
v -10.073184 -5.815759 -0.488081
v -9.820430 -5.669831 -0.300476
v -10.858130 -2.909425 -0.000000
v -10.953268 -2.934918 0.300475
v -11.235178 -3.010455 0.488081
v -11.612779 -3.111633 0.399222
v -11.803702 -3.162792 -0.000000
v -11.612780 -3.111633 -0.399222
v -11.235177 -3.010455 -0.488081
v -10.953268 -2.934918 -0.300475
v -11.241162 -0.000001 -0.000000
v -11.339657 -0.000001 0.300475
v -11.631513 -0.000001 0.488081
v -12.022433 -0.000001 0.399222
v -12.220093 -0.000001 -0.000000
v -12.022433 -0.000001 -0.399222
v -11.631513 -0.000001 -0.488081
v -11.339657 -0.000001 -0.300475
v -10.858130 2.909425 0.000000
v -10.953268 2.934918 0.300475
v -11.235178 3.010455 0.488081
v -11.612779 3.111633 0.399222
v -11.803702 3.162791 0.000000
v -11.612779 3.111633 -0.399221
v -11.235177 3.010455 -0.488081
v -10.953268 2.934918 -0.300475
v -9.735133 5.620579 0.000000
v -9.820432 5.669827 0.300476
v -10.073187 5.815754 0.488081
v -10.411734 6.011214 0.399222
v -10.582912 6.110045 0.000000
v -10.411734 6.011214 -0.399221
v -10.073187 5.815754 -0.488081
v -9.820432 5.669827 -0.300475
v -7.948705 7.948700 0.000000
v -8.018351 8.018347 0.300476
v -8.224723 8.224718 0.488081
v -8.501145 8.501142 0.399222
v -8.640912 8.640908 0.000001
v -8.501145 8.501142 -0.399220
v -8.224723 8.224718 -0.488080
v -8.018351 8.018347 -0.300475
v -5.620579 9.735134 0.000001
v -5.669827 9.820432 0.300476
v -5.815754 10.073186 0.488082
v -6.011216 10.411733 0.399222
v -6.110046 10.582912 0.000001
v -6.011216 10.411733 -0.399220
v -5.815754 10.073186 -0.488080
v -5.669827 9.820432 -0.300475
v -2.909431 10.858128 0.000001
v -2.934924 10.953266 0.300476
v -3.010460 11.235176 0.488082
v -3.111638 11.612777 0.399222
v -3.162796 11.803702 0.000001
v -3.111638 11.612777 -0.399220
v -3.010461 11.235176 -0.488080
v -2.934924 10.953266 -0.300475
v 0.000002 11.241162 0.000001
v 0.000001 11.339657 0.300476
v 0.000001 11.631512 0.488082
v 0.000001 12.022433 0.399222
v 0.000000 12.220093 0.000001
v 0.000001 12.022433 -0.399220
v 0.000001 11.631512 -0.488080
v 0.000001 11.339657 -0.300474
v 2.909421 10.858130 0.000001
v 2.934914 10.953268 0.300476
v 3.010452 11.235179 0.488082
v 3.111629 11.612780 0.399222
v 3.162788 11.803705 0.000001
v 3.111629 11.612780 -0.399220
v 3.010452 11.235179 -0.488080
v 2.934914 10.953269 -0.300475
v 5.620581 9.735131 0.000001
v 5.669828 9.820432 0.300476
v 5.815756 10.073186 0.488082
v 6.011216 10.411735 0.399222
v 6.110045 10.582912 0.000001
v 6.011216 10.411735 -0.399220
v 5.815756 10.073186 -0.488080
v 5.669828 9.820432 -0.300474
v 7.948697 7.948707 0.000000
v 8.018344 8.018354 0.300476
v 8.224717 8.224726 0.488081
v 8.501140 8.501148 0.399222
v 8.640907 8.640916 0.000001
v 8.501140 8.501148 -0.399220
v 8.224717 8.224726 -0.488080
v 8.018344 8.018354 -0.300474
v 9.735131 5.620582 0.000000
v 9.820431 5.669829 0.300476
v 10.073184 5.815758 0.488081
v 10.411732 6.011217 0.399222
v 10.582911 6.110048 0.000000
v 10.411732 6.011217 -0.399221
v 10.073184 5.815758 -0.488081
v 9.820431 5.669829 -0.300474
v 10.858130 2.909423 0.000000
v 10.953268 2.934916 0.300475
v 11.235178 3.010454 0.488081
v 11.612780 3.111632 0.399222
v 11.803702 3.162790 0.000000
v 11.612779 3.111632 -0.399222
v 11.235178 3.010454 -0.488081
v 10.953268 2.934916 -0.300475
vn -0.9429 0.1241 0.3091
vn -0.5394 0.0710 0.8391
vn 0.2216 -0.0292 0.9747
vn 0.8900 -0.1172 0.4406
vn 0.8900 -0.1172 -0.4406
vn 0.2216 -0.0292 -0.9747
vn -0.5394 0.0710 -0.8391
vn -0.9429 0.1241 -0.3091
vn -0.8786 0.3639 0.3091
vn -0.5026 0.2082 0.8391
vn 0.2065 -0.0855 0.9747
vn 0.8293 -0.3435 0.4407
vn 0.8293 -0.3435 -0.4407
vn 0.2065 -0.0855 -0.9747
vn -0.5026 0.2082 -0.8391
vn -0.8786 0.3639 -0.3091
vn -0.7545 0.5790 0.3091
vn -0.4316 0.3312 0.8391
vn 0.1773 -0.1360 0.9747
vn 0.7122 -0.5465 0.4407
vn 0.7122 -0.5465 -0.4406
vn 0.1773 -0.1360 -0.9747
vn -0.4316 0.3312 -0.8391
vn -0.7545 0.5790 -0.3091
vn -0.5790 0.7545 0.3091
vn -0.3312 0.4316 0.8391
vn 0.1360 -0.1773 0.9747
vn 0.5465 -0.7122 0.4406
vn 0.5465 -0.7122 -0.4407
vn 0.1360 -0.1773 -0.9747
vn -0.3312 0.4316 -0.8391
vn -0.5790 0.7545 -0.3091
vn -0.3639 0.8786 0.3091
vn -0.2082 0.5026 0.8391
vn 0.0855 -0.2065 0.9747
vn 0.3435 -0.8293 0.4406
vn 0.3435 -0.8293 -0.4406
vn 0.0855 -0.2065 -0.9747
vn -0.2082 0.5026 -0.8391
vn -0.3639 0.8786 -0.3091
vn -0.1241 0.9429 0.3091
vn -0.0710 0.5394 0.8391
vn 0.0292 -0.2216 0.9747
vn 0.1172 -0.8900 0.4406
vn 0.1172 -0.8900 -0.4406
vn 0.0292 -0.2216 -0.9747
vn -0.0710 0.5394 -0.8391
vn -0.1241 0.9429 -0.3091
vn 0.1241 0.9429 0.3091
vn 0.0710 0.5394 0.8391
vn -0.0292 -0.2216 0.9747
vn -0.1172 -0.8900 0.4406
vn -0.1172 -0.8900 -0.4406
vn -0.0292 -0.2216 -0.9747
vn 0.0710 0.5394 -0.8391
vn 0.1241 0.9429 -0.3091
vn 0.3639 0.8786 0.3091
vn 0.2082 0.5026 0.8391
vn -0.0855 -0.2065 0.9747
vn -0.3435 -0.8293 0.4407
vn -0.3435 -0.8293 -0.4406
vn -0.0855 -0.2065 -0.9747
vn 0.2082 0.5026 -0.8391
vn 0.3639 0.8786 -0.3091
vn 0.5790 0.7545 0.3091
vn 0.3312 0.4316 0.8391
vn -0.1360 -0.1773 0.9747
vn -0.5465 -0.7122 0.4407
vn -0.5465 -0.7122 -0.4407
vn -0.1360 -0.1773 -0.9747
vn 0.3312 0.4316 -0.8391
vn 0.5790 0.7545 -0.3091
vn 0.7545 0.5790 0.3091
vn 0.4316 0.3312 0.8391
vn -0.1773 -0.1360 0.9747
vn -0.7122 -0.5465 0.4407
vn -0.7122 -0.5465 -0.4407
vn -0.1773 -0.1360 -0.9747
vn 0.4316 0.3312 -0.8391
vn 0.7545 0.5790 -0.3091
vn 0.8786 0.3639 0.3091
vn 0.5026 0.2082 0.8391
vn -0.2065 -0.0855 0.9747
vn -0.8293 -0.3435 0.4406
vn -0.8293 -0.3435 -0.4406
vn -0.2065 -0.0855 -0.9747
vn 0.5026 0.2082 -0.8391
vn 0.8786 0.3639 -0.3091
vn 0.9429 0.1241 0.3091
vn 0.5394 0.0710 0.8391
vn -0.2216 -0.0292 0.9747
vn -0.8900 -0.1172 0.4407
vn -0.8900 -0.1172 -0.4407
vn -0.2216 -0.0292 -0.9747
vn 0.5394 0.0710 -0.8391
vn 0.9429 0.1241 -0.3091
vn 0.9429 -0.1241 0.3091
vn 0.5394 -0.0710 0.8391
vn -0.2216 0.0292 0.9747
vn -0.8900 0.1172 0.4406
vn -0.8900 0.1172 -0.4406
vn -0.2216 0.0292 -0.9747
vn 0.5394 -0.0710 -0.8391
vn 0.9429 -0.1241 -0.3091
vn 0.8786 -0.3639 0.3091
vn 0.5026 -0.2082 0.8391
vn -0.2065 0.0855 0.9747
vn -0.8293 0.3435 0.4406
vn -0.8293 0.3435 -0.4406
vn -0.2065 0.0855 -0.9747
vn 0.5026 -0.2082 -0.8391
vn 0.8786 -0.3639 -0.3091
vn 0.7545 -0.5790 0.3091
vn 0.4316 -0.3312 0.8391
vn -0.1773 0.1360 0.9747
vn -0.7122 0.5465 0.4406
vn -0.7122 0.5465 -0.4406
vn -0.1773 0.1360 -0.9747
vn 0.4316 -0.3312 -0.8391
vn 0.7545 -0.5790 -0.3091
vn 0.5790 -0.7545 0.3091
vn 0.3312 -0.4316 0.8391
vn -0.1360 0.1773 0.9747
vn -0.5465 0.7122 0.4407
vn -0.5465 0.7122 -0.4407
vn -0.1360 0.1773 -0.9747
vn 0.3312 -0.4316 -0.8391
vn 0.5790 -0.7545 -0.3091
vn 0.3639 -0.8786 0.3091
vn 0.2082 -0.5026 0.8391
vn -0.0855 0.2065 0.9747
vn -0.3435 0.8293 0.4407
vn -0.3435 0.8293 -0.4407
vn -0.0855 0.2065 -0.9747
vn 0.2082 -0.5026 -0.8391
vn 0.3639 -0.8786 -0.3091
vn 0.1241 -0.9429 0.3091
vn 0.0710 -0.5394 0.8391
vn -0.0292 0.2216 0.9747
vn -0.1172 0.8900 0.4407
vn -0.1172 0.8900 -0.4407
vn -0.0292 0.2216 -0.9747
vn 0.0710 -0.5394 -0.8391
vn 0.1241 -0.9429 -0.3091
vn -0.1241 -0.9429 0.3091
vn -0.0710 -0.5394 0.8391
vn 0.0292 0.2216 0.9747
vn 0.1172 0.8900 0.4407
vn 0.1172 0.8900 -0.4407
vn 0.0292 0.2216 -0.9747
vn -0.0710 -0.5394 -0.8391
vn -0.1241 -0.9429 -0.3091
vn -0.3639 -0.8786 0.3091
vn -0.2082 -0.5026 0.8391
vn 0.0855 0.2065 0.9747
vn 0.3435 0.8293 0.4407
vn 0.3435 0.8293 -0.4407
vn 0.0855 0.2065 -0.9747
vn -0.2082 -0.5026 -0.8391
vn -0.3639 -0.8786 -0.3091
vn -0.5790 -0.7545 0.3091
vn -0.3312 -0.4316 0.8391
vn 0.1360 0.1773 0.9747
vn 0.5465 0.7122 0.4407
vn 0.5465 0.7122 -0.4407
vn 0.1360 0.1773 -0.9747
vn -0.3312 -0.4316 -0.8391
vn -0.5790 -0.7545 -0.3091
vn -0.7545 -0.5790 0.3091
vn -0.4316 -0.3312 0.8391
vn 0.1773 0.1360 0.9747
vn 0.7122 0.5465 0.4407
vn 0.7122 0.5465 -0.4407
vn 0.1773 0.1360 -0.9747
vn -0.4316 -0.3312 -0.8391
vn -0.7545 -0.5790 -0.3091
vn -0.8786 -0.3639 0.3091
vn -0.5026 -0.2082 0.8391
vn 0.2065 0.0855 0.9747
vn 0.8293 0.3435 0.4406
vn 0.8293 0.3435 -0.4407
vn 0.2065 0.0855 -0.9747
vn -0.5026 -0.2082 -0.8391
vn -0.8786 -0.3639 -0.3091
vn -0.9429 -0.1241 0.3091
vn -0.5394 -0.0710 0.8391
vn 0.2216 0.0292 0.9747
vn 0.8900 0.1172 0.4407
vn 0.8900 0.1172 -0.4407
vn 0.2216 0.0292 -0.9747
vn -0.5394 -0.0710 -0.8391
vn -0.9429 -0.1241 -0.3091
vt 0.500000 0.500000
vt 0.541667 0.500000
vt 0.541667 0.625000
vt 0.500000 0.625000
vt 0.541667 0.750000
vt 0.500000 0.750000
vt 0.541667 0.875000
vt 0.500000 0.875000
vt 0.541667 1.000000
vt 0.500000 1.000000
vt 0.500000 0.000000
vt 0.541667 0.000000
vt 0.541667 0.125000
vt 0.500000 0.125000
vt 0.541667 0.250000
vt 0.500000 0.250000
vt 0.541667 0.375000
vt 0.500000 0.375000
vt 0.583333 0.500000
vt 0.583333 0.625000
vt 0.583333 0.750000
vt 0.583333 0.875000
vt 0.583333 1.000000
vt 0.583333 0.000000
vt 0.583333 0.125000
vt 0.583333 0.250000
vt 0.583333 0.375000
vt 0.625000 0.500000
vt 0.625000 0.625000
vt 0.625000 0.750000
vt 0.625000 0.875000
vt 0.625000 1.000000
vt 0.625000 0.000000
vt 0.625000 0.125000
vt 0.625000 0.250000
vt 0.625000 0.375000
vt 0.666667 0.500000
vt 0.666667 0.625000
vt 0.666667 0.750000
vt 0.666667 0.875000
vt 0.666667 1.000000
vt 0.666667 0.000000
vt 0.666667 0.125000
vt 0.666667 0.250000
vt 0.666667 0.375000
vt 0.708333 0.500000
vt 0.708333 0.625000
vt 0.708333 0.750000
vt 0.708333 0.875000
vt 0.708333 1.000000
vt 0.708333 0.000000
vt 0.708333 0.125000
vt 0.708333 0.250000
vt 0.708333 0.375000
vt 0.750000 0.500000
vt 0.750000 0.625000
vt 0.750000 0.750000
vt 0.750000 0.875000
vt 0.750000 1.000000
vt 0.750000 0.000000
vt 0.750000 0.125000
vt 0.750000 0.250000
vt 0.750000 0.375000
vt 0.791667 0.500000
vt 0.791667 0.625000
vt 0.791667 0.750000
vt 0.791667 0.875000
vt 0.791667 1.000000
vt 0.791667 0.000000
vt 0.791667 0.125000
vt 0.791667 0.250000
vt 0.791667 0.375000
vt 0.833333 0.500000
vt 0.833333 0.625000
vt 0.833333 0.750000
vt 0.833333 0.875000
vt 0.833333 1.000000
vt 0.833333 0.000000
vt 0.833333 0.125000
vt 0.833333 0.250000
vt 0.833333 0.375000
vt 0.875000 0.500000
vt 0.875000 0.625000
vt 0.875000 0.750000
vt 0.875000 0.875000
vt 0.875000 1.000000
vt 0.875000 0.000000
vt 0.875000 0.125000
vt 0.875000 0.250000
vt 0.875000 0.375000
vt 0.916667 0.500000
vt 0.916667 0.625000
vt 0.916667 0.750000
vt 0.916667 0.875000
vt 0.916667 1.000000
vt 0.916667 0.000000
vt 0.916667 0.125000
vt 0.916667 0.250000
vt 0.916667 0.375000
vt 0.958333 0.500000
vt 0.958333 0.625000
vt 0.958333 0.750000
vt 0.958333 0.875000
vt 0.958333 1.000000
vt 0.958333 0.000000
vt 0.958333 0.125000
vt 0.958333 0.250000
vt 0.958333 0.375000
vt 1.000000 0.500000
vt 1.000000 0.625000
vt 1.000000 0.750000
vt 1.000000 0.875000
vt 1.000000 1.000000
vt 1.000000 0.000000
vt 1.000000 0.125000
vt 1.000000 0.250000
vt 1.000000 0.375000
vt -0.000000 0.500000
vt 0.041667 0.500000
vt 0.041667 0.625000
vt -0.000000 0.625000
vt 0.041667 0.750000
vt -0.000000 0.750000
vt 0.041667 0.875000
vt -0.000000 0.875000
vt 0.041667 1.000000
vt -0.000000 1.000000
vt -0.000000 0.000000
vt 0.041667 0.000000
vt 0.041667 0.125000
vt -0.000000 0.125000
vt 0.041667 0.250000
vt -0.000000 0.250000
vt 0.041667 0.375000
vt -0.000000 0.375000
vt 0.083333 0.500000
vt 0.083333 0.625000
vt 0.083333 0.750000
vt 0.083333 0.875000
vt 0.083333 1.000000
vt 0.083333 0.000000
vt 0.083333 0.125000
vt 0.083333 0.250000
vt 0.083333 0.375000
vt 0.125000 0.500000
vt 0.125000 0.625000
vt 0.125000 0.750000
vt 0.125000 0.875000
vt 0.125000 1.000000
vt 0.125000 0.000000
vt 0.125000 0.125000
vt 0.125000 0.250000
vt 0.125000 0.375000
vt 0.166667 0.500000
vt 0.166667 0.625000
vt 0.166667 0.750000
vt 0.166667 0.875000
vt 0.166667 1.000000
vt 0.166667 0.000000
vt 0.166667 0.125000
vt 0.166667 0.250000
vt 0.166667 0.375000
vt 0.208333 0.500000
vt 0.208333 0.625000
vt 0.208333 0.750000
vt 0.208333 0.875000
vt 0.208333 1.000000
vt 0.208333 0.000000
vt 0.208333 0.125000
vt 0.208333 0.250000
vt 0.208333 0.375000
vt 0.250000 0.500000
vt 0.250000 0.625000
vt 0.250000 0.750000
vt 0.250000 0.875000
vt 0.250000 1.000000
vt 0.250000 0.000000
vt 0.250000 0.125000
vt 0.250000 0.250000
vt 0.250000 0.375000
vt 0.291667 0.500000
vt 0.291667 0.625000
vt 0.291667 0.750000
vt 0.291667 0.875000
vt 0.291667 1.000000
vt 0.291667 0.000000
vt 0.291667 0.125000
vt 0.291667 0.250000
vt 0.291667 0.375000
vt 0.333333 0.500000
vt 0.333333 0.625000
vt 0.333333 0.750000
vt 0.333333 0.875000
vt 0.333333 1.000000
vt 0.333333 0.000000
vt 0.333333 0.125000
vt 0.333333 0.250000
vt 0.333333 0.375000
vt 0.375000 0.500000
vt 0.375000 0.625000
vt 0.375000 0.750000
vt 0.375000 0.875000
vt 0.375000 1.000000
vt 0.375000 0.000000
vt 0.375000 0.125000
vt 0.375000 0.250000
vt 0.375000 0.375000
vt 0.416667 0.500000
vt 0.416667 0.625000
vt 0.416667 0.750000
vt 0.416667 0.875000
vt 0.416667 1.000000
vt 0.416667 0.000000
vt 0.416667 0.125000
vt 0.416667 0.250000
vt 0.416667 0.375000
vt 0.458333 0.500000
vt 0.458333 0.625000
vt 0.458333 0.750000
vt 0.458333 0.875000
vt 0.458333 1.000000
vt 0.458333 0.000000
vt 0.458333 0.125000
vt 0.458333 0.250000
vt 0.458333 0.375000
s 0
f 1/1/1 9/2/1 10/3/1 2/4/1
f 2/4/2 10/3/2 11/5/2 3/6/2
f 3/6/3 11/5/3 12/7/3 4/8/3
f 4/8/4 12/7/4 13/9/4 5/10/4
f 5/11/5 13/12/5 14/13/5 6/14/5
f 6/14/6 14/13/6 15/15/6 7/16/6
f 7/16/7 15/15/7 16/17/7 8/18/7
f 8/18/8 16/17/8 9/2/8 1/1/8
f 9/2/9 17/19/9 18/20/9 10/3/9
f 10/3/10 18/20/10 19/21/10 11/5/10
f 11/5/11 19/21/11 20/22/11 12/7/11
f 12/7/12 20/22/12 21/23/12 13/9/12
f 13/12/13 21/24/13 22/25/13 14/13/13
f 14/13/14 22/25/14 23/26/14 15/15/14
f 15/15/15 23/26/15 24/27/15 16/17/15
f 16/17/16 24/27/16 17/19/16 9/2/16
f 17/19/17 25/28/17 26/29/17 18/20/17
f 18/20/18 26/29/18 27/30/18 19/21/18
f 19/21/19 27/30/19 28/31/19 20/22/19
f 20/22/20 28/31/20 29/32/20 21/23/20
f 21/24/21 29/33/21 30/34/21 22/25/21
f 22/25/22 30/34/22 31/35/22 23/26/22
f 23/26/23 31/35/23 32/36/23 24/27/23
f 24/27/24 32/36/24 25/28/24 17/19/24
f 25/28/25 33/37/25 34/38/25 26/29/25
f 26/29/26 34/38/26 35/39/26 27/30/26
f 27/30/27 35/39/27 36/40/27 28/31/27
f 28/31/28 36/40/28 37/41/28 29/32/28
f 29/33/29 37/42/29 38/43/29 30/34/29
f 30/34/30 38/43/30 39/44/30 31/35/30
f 31/35/31 39/44/31 40/45/31 32/36/31
f 32/36/32 40/45/32 33/37/32 25/28/32
f 33/37/33 41/46/33 42/47/33 34/38/33
f 34/38/34 42/47/34 43/48/34 35/39/34
f 35/39/35 43/48/35 44/49/35 36/40/35
f 36/40/36 44/49/36 45/50/36 37/41/36
f 37/42/37 45/51/37 46/52/37 38/43/37
f 38/43/38 46/52/38 47/53/38 39/44/38
f 39/44/39 47/53/39 48/54/39 40/45/39
f 40/45/40 48/54/40 41/46/40 33/37/40
f 41/46/41 49/55/41 50/56/41 42/47/41
f 42/47/42 50/56/42 51/57/42 43/48/42
f 43/48/43 51/57/43 52/58/43 44/49/43
f 44/49/44 52/58/44 53/59/44 45/50/44
f 45/51/45 53/60/45 54/61/45 46/52/45
f 46/52/46 54/61/46 55/62/46 47/53/46
f 47/53/47 55/62/47 56/63/47 48/54/47
f 48/54/48 56/63/48 49/55/48 41/46/48
f 49/55/49 57/64/49 58/65/49 50/56/49
f 50/56/50 58/65/50 59/66/50 51/57/50
f 51/57/51 59/66/51 60/67/51 52/58/51
f 52/58/52 60/67/52 61/68/52 53/59/52
f 53/60/53 61/69/53 62/70/53 54/61/53
f 54/61/54 62/70/54 63/71/54 55/62/54
f 55/62/55 63/71/55 64/72/55 56/63/55
f 56/63/56 64/72/56 57/64/56 49/55/56
f 57/64/57 65/73/57 66/74/57 58/65/57
f 58/65/58 66/74/58 67/75/58 59/66/58
f 59/66/59 67/75/59 68/76/59 60/67/59
f 60/67/60 68/76/60 69/77/60 61/68/60
f 61/69/61 69/78/61 70/79/61 62/70/61
f 62/70/62 70/79/62 71/80/62 63/71/62
f 63/71/63 71/80/63 72/81/63 64/72/63
f 64/72/64 72/81/64 65/73/64 57/64/64
f 65/73/65 73/82/65 74/83/65 66/74/65
f 66/74/66 74/83/66 75/84/66 67/75/66
f 67/75/67 75/84/67 76/85/67 68/76/67
f 68/76/68 76/85/68 77/86/68 69/77/68
f 69/78/69 77/87/69 78/88/69 70/79/69
f 70/79/70 78/88/70 79/89/70 71/80/70
f 71/80/71 79/89/71 80/90/71 72/81/71
f 72/81/72 80/90/72 73/82/72 65/73/72
f 73/82/73 81/91/73 82/92/73 74/83/73
f 74/83/74 82/92/74 83/93/74 75/84/74
f 75/84/75 83/93/75 84/94/75 76/85/75
f 76/85/76 84/94/76 85/95/76 77/86/76
f 77/87/77 85/96/77 86/97/77 78/88/77
f 78/88/78 86/97/78 87/98/78 79/89/78
f 79/89/79 87/98/79 88/99/79 80/90/79
f 80/90/80 88/99/80 81/91/80 73/82/80
f 81/91/81 89/100/81 90/101/81 82/92/81
f 82/92/82 90/101/82 91/102/82 83/93/82
f 83/93/83 91/102/83 92/103/83 84/94/83
f 84/94/84 92/103/84 93/104/84 85/95/84
f 85/96/85 93/105/85 94/106/85 86/97/85
f 86/97/86 94/106/86 95/107/86 87/98/86
f 87/98/87 95/107/87 96/108/87 88/99/87
f 88/99/88 96/108/88 89/100/88 81/91/88
f 89/100/89 97/109/89 98/110/89 90/101/89
f 90/101/90 98/110/90 99/111/90 91/102/90
f 91/102/91 99/111/91 100/112/91 92/103/91
f 92/103/92 100/112/92 101/113/92 93/104/92
f 93/105/93 101/114/93 102/115/93 94/106/93
f 94/106/94 102/115/94 103/116/94 95/107/94
f 95/107/95 103/116/95 104/117/95 96/108/95
f 96/108/96 104/117/96 97/109/96 89/100/96
f 97/118/97 105/119/97 106/120/97 98/121/97
f 98/121/98 106/120/98 107/122/98 99/123/98
f 99/123/99 107/122/99 108/124/99 100/125/99
f 100/125/100 108/124/100 109/126/100 101/127/100
f 101/128/101 109/129/101 110/130/101 102/131/101
f 102/131/102 110/130/102 111/132/102 103/133/102
f 103/133/103 111/132/103 112/134/103 104/135/103
f 104/135/104 112/134/104 105/119/104 97/118/104
f 105/119/105 113/136/105 114/137/105 106/120/105
f 106/120/106 114/137/106 115/138/106 107/122/106
f 107/122/107 115/138/107 116/139/107 108/124/107
f 108/124/108 116/139/108 117/140/108 109/126/108
f 109/129/109 117/141/109 118/142/109 110/130/109
f 110/130/110 118/142/110 119/143/110 111/132/110
f 111/132/111 119/143/111 120/144/111 112/134/111
f 112/134/112 120/144/112 113/136/112 105/119/112
f 113/136/113 121/145/113 122/146/113 114/137/113
f 114/137/114 122/146/114 123/147/114 115/138/114
f 115/138/115 123/147/115 124/148/115 116/139/115
f 116/139/116 124/148/116 125/149/116 117/140/116
f 117/141/117 125/150/117 126/151/117 118/142/117
f 118/142/118 126/151/118 127/152/118 119/143/118
f 119/143/119 127/152/119 128/153/119 120/144/119
f 120/144/120 128/153/120 121/145/120 113/136/120
f 121/145/121 129/154/121 130/155/121 122/146/121
f 122/146/122 130/155/122 131/156/122 123/147/122
f 123/147/123 131/156/123 132/157/123 124/148/123
f 124/148/124 132/157/124 133/158/124 125/149/124
f 125/150/125 133/159/125 134/160/125 126/151/125
f 126/151/126 134/160/126 135/161/126 127/152/126
f 127/152/127 135/161/127 136/162/127 128/153/127
f 128/153/128 136/162/128 129/154/128 121/145/128
f 129/154/129 137/163/129 138/164/129 130/155/129
f 130/155/130 138/164/130 139/165/130 131/156/130
f 131/156/131 139/165/131 140/166/131 132/157/131
f 132/157/132 140/166/132 141/167/132 133/158/132
f 133/159/133 141/168/133 142/169/133 134/160/133
f 134/160/134 142/169/134 143/170/134 135/161/134
f 135/161/135 143/170/135 144/171/135 136/162/135
f 136/162/136 144/171/136 137/163/136 129/154/136
f 137/163/137 145/172/137 146/173/137 138/164/137
f 138/164/138 146/173/138 147/174/138 139/165/138
f 139/165/139 147/174/139 148/175/139 140/166/139
f 140/166/140 148/175/140 149/176/140 141/167/140
f 141/168/141 149/177/141 150/178/141 142/169/141
f 142/169/142 150/178/142 151/179/142 143/170/142
f 143/170/143 151/179/143 152/180/143 144/171/143
f 144/171/144 152/180/144 145/172/144 137/163/144
f 145/172/145 153/181/145 154/182/145 146/173/145
f 146/173/146 154/182/146 155/183/146 147/174/146
f 147/174/147 155/183/147 156/184/147 148/175/147
f 148/175/148 156/184/148 157/185/148 149/176/148
f 149/177/149 157/186/149 158/187/149 150/178/149
f 150/178/150 158/187/150 159/188/150 151/179/150
f 151/179/151 159/188/151 160/189/151 152/180/151
f 152/180/152 160/189/152 153/181/152 145/172/152
f 153/181/153 161/190/153 162/191/153 154/182/153
f 154/182/154 162/191/154 163/192/154 155/183/154
f 155/183/155 163/192/155 164/193/155 156/184/155
f 156/184/156 164/193/156 165/194/156 157/185/156
f 157/186/157 165/195/157 166/196/157 158/187/157
f 158/187/158 166/196/158 167/197/158 159/188/158
f 159/188/159 167/197/159 168/198/159 160/189/159
f 160/189/160 168/198/160 161/190/160 153/181/160
f 161/190/161 169/199/161 170/200/161 162/191/161
f 162/191/162 170/200/162 171/201/162 163/192/162
f 163/192/163 171/201/163 172/202/163 164/193/163
f 164/193/164 172/202/164 173/203/164 165/194/164
f 165/195/165 173/204/165 174/205/165 166/196/165
f 166/196/166 174/205/166 175/206/166 167/197/166
f 167/197/167 175/206/167 176/207/167 168/198/167
f 168/198/168 176/207/168 169/199/168 161/190/168
f 169/199/169 177/208/169 178/209/169 170/200/169
f 170/200/170 178/209/170 179/210/170 171/201/170
f 171/201/171 179/210/171 180/211/171 172/202/171
f 172/202/172 180/211/172 181/212/172 173/203/172
f 173/204/173 181/213/173 182/214/173 174/205/173
f 174/205/174 182/214/174 183/215/174 175/206/174
f 175/206/175 183/215/175 184/216/175 176/207/175
f 176/207/176 184/216/176 177/208/176 169/199/176
f 177/208/177 185/217/177 186/218/177 178/209/177
f 178/209/178 186/218/178 187/219/178 179/210/178
f 179/210/179 187/219/179 188/220/179 180/211/179
f 180/211/180 188/220/180 189/221/180 181/212/180
f 181/213/181 189/222/181 190/223/181 182/214/181
f 182/214/182 190/223/182 191/224/182 183/215/182
f 183/215/183 191/224/183 192/225/183 184/216/183
f 184/216/184 192/225/184 185/217/184 177/208/184
f 185/217/185 1/1/185 2/4/185 186/218/185
f 186/218/186 2/4/186 3/6/186 187/219/186
f 187/219/187 3/6/187 4/8/187 188/220/187
f 188/220/188 4/8/188 5/10/188 189/221/188
f 189/222/189 5/11/189 6/14/189 190/223/189
f 190/223/190 6/14/190 7/16/190 191/224/190
f 191/224/191 7/16/191 8/18/191 192/225/191
f 192/225/192 8/18/192 1/1/192 185/217/192
