# Blender 4.5.0
# www.blender.org
mtllib simple_laser.mtl
o Laser
v -0.530933 0.211584 -9.974883
v -0.530933 -0.211584 -9.974883
v 0.000000 0.000000 0.000000
v 0.000000 0.000000 -15.000000
v 0.000000 0.211584 -9.974883
v 0.000000 -0.211584 -9.974883
v 0.530933 0.211584 -9.974883
v 0.530933 -0.211584 -9.974883
vn -0.0000 0.9991 -0.0421
vn -0.9986 -0.0000 0.0532
vn -0.0000 -0.9991 -0.0421
vn -0.0000 0.9998 0.0212
vn -0.0000 -0.9998 0.0212
vn -0.9945 -0.0000 -0.1051
vn 0.9986 -0.0000 0.0532
vn 0.9945 -0.0000 -0.1051
vt 0.750000 0.500000
vt 0.875000 0.500000
vt 0.750000 0.646793
vt 0.375000 0.250000
vt 0.500000 0.250000
vt 0.625000 0.250000
vt 0.125000 0.500000
vt 0.250000 0.500000
vt 0.250000 0.648230
vt 0.750000 0.750000
vt 0.125000 0.750000
vt 0.375000 0.375000
s 0
usemtl Material
f 4/1/1 1/2/1 5/3/1
f 2/4/2 3/5/2 1/6/2
f 2/7/3 4/8/3 6/9/3
f 5/3/4 1/2/4 3/10/4
f 6/9/5 3/11/5 2/7/5
f 1/6/6 4/12/6 2/4/6
f 4/1/1 5/3/1 7/2/1
f 8/4/7 7/6/7 3/5/7
f 8/7/3 6/9/3 4/8/3
f 5/3/4 3/10/4 7/2/4
f 6/9/5 8/7/5 3/11/5
f 7/6/8 8/4/8 4/12/8
