# Blender 4.5.0
# www.blender.org
mtllib Prototype_Ship_2_Combo.mtl
o Icosphere
v 0.000000 -0.518717 -0.441756
v 0.375347 -0.231980 -0.169053
v -0.143367 -0.231980 -0.000509
v -0.463954 -0.231978 -0.441756
v -0.143367 -0.231980 -0.883002
v 0.375347 -0.231980 -0.714458
v 0.143367 0.231980 -0.000509
v -0.375347 0.231980 -0.169053
v -0.375347 0.231980 -0.714458
v 0.143367 0.231980 -0.883002
v 0.463954 0.231978 -0.441756
v 0.000000 0.518717 -0.441756
v -0.084268 -0.441249 -0.182400
v 0.220622 -0.441249 -0.281466
v 0.136354 -0.272709 -0.022107
v 0.441245 -0.272708 -0.441756
v 0.220622 -0.441249 -0.602045
v -0.272705 -0.441247 -0.441756
v -0.356975 -0.272708 -0.182399
v -0.084268 -0.441249 -0.701111
v -0.356975 -0.272708 -0.701112
v 0.136354 -0.272709 -0.861403
v 0.493330 0.000000 -0.281465
v 0.493330 0.000000 -0.602046
v 0.000000 0.000000 0.076961
v 0.304894 0.000000 -0.022105
v -0.493330 0.000000 -0.281465
v -0.304894 0.000000 -0.022105
v -0.304894 0.000000 -0.861406
v -0.493330 0.000000 -0.602046
v 0.304894 0.000000 -0.861406
v 0.000000 0.000000 -0.960472
v 0.356975 0.272708 -0.182399
v -0.136354 0.272709 -0.022107
v -0.441245 0.272708 -0.441756
v -0.136354 0.272709 -0.861403
v 0.356975 0.272708 -0.701112
v 0.084268 0.441249 -0.182400
v 0.272705 0.441247 -0.441756
v -0.220622 0.441249 -0.281466
v -0.220622 0.441249 -0.602045
v 0.084268 0.441249 -0.701111
vn 0.1024 -0.9435 0.3151
vn 0.7002 -0.6617 0.2680
vn -0.2680 -0.9435 0.1947
vn -0.2680 -0.9435 -0.1947
vn 0.1024 -0.9435 -0.3151
vn 0.9050 -0.3304 0.2680
vn 0.0247 -0.3304 0.9435
vn -0.8897 -0.3304 0.3151
vn -0.5746 -0.3304 -0.7488
vn 0.5346 -0.3304 -0.7779
vn 0.8026 -0.1256 0.5831
vn -0.3066 -0.1256 0.9435
vn -0.9921 -0.1256 -0.0000
vn -0.3066 -0.1256 -0.9435
vn 0.8026 -0.1256 -0.5831
vn 0.4089 0.6617 0.6284
vn -0.4713 0.6617 0.5831
vn -0.7002 0.6617 -0.2680
vn 0.0385 0.6617 -0.7488
vn 0.7240 0.6617 -0.1947
vn 0.2680 0.9435 -0.1947
vn 0.4911 0.7947 -0.3568
vn 0.4089 0.6617 -0.6284
vn -0.1024 0.9435 -0.3151
vn -0.1876 0.7947 -0.5773
vn -0.4713 0.6617 -0.5831
vn -0.3313 0.9435 -0.0000
vn -0.6071 0.7947 -0.0000
vn -0.7002 0.6617 0.2680
vn -0.1024 0.9435 0.3151
vn -0.1876 0.7947 0.5773
vn 0.0385 0.6617 0.7488
vn 0.2680 0.9435 0.1947
vn 0.4911 0.7947 0.3568
vn 0.7240 0.6617 0.1947
vn 0.8897 0.3304 -0.3151
vn 0.7947 0.1876 -0.5773
vn 0.5746 0.3304 -0.7488
vn -0.0247 0.3304 -0.9435
vn -0.3035 0.1876 -0.9342
vn -0.5346 0.3304 -0.7779
vn -0.9050 0.3304 -0.2680
vn -0.9822 0.1876 -0.0000
vn -0.9050 0.3304 0.2680
vn -0.5346 0.3304 0.7779
vn -0.3035 0.1876 0.9342
vn -0.0247 0.3304 0.9435
vn 0.5746 0.3304 0.7488
vn 0.7947 0.1876 0.5773
vn 0.8897 0.3304 0.3151
vn 0.3066 0.1256 -0.9435
vn 0.3035 -0.1876 -0.9342
vn 0.0247 -0.3304 -0.9435
vn -0.8026 0.1256 -0.5831
vn -0.7947 -0.1876 -0.5773
vn -0.8897 -0.3304 -0.3151
vn -0.8026 0.1256 0.5831
vn -0.7947 -0.1876 0.5773
vn -0.5746 -0.3304 0.7488
vn 0.3066 0.1256 0.9435
vn 0.3035 -0.1876 0.9342
vn 0.5346 -0.3304 0.7779
vn 0.9921 0.1256 -0.0000
vn 0.9822 -0.1876 -0.0000
vn 0.9050 -0.3304 -0.2680
vn 0.4713 -0.6617 -0.5831
vn 0.1876 -0.7947 -0.5773
vn -0.0385 -0.6617 -0.7488
vn -0.4089 -0.6617 -0.6284
vn -0.4911 -0.7947 -0.3568
vn -0.7240 -0.6617 -0.1947
vn -0.7240 -0.6617 0.1947
vn -0.4911 -0.7947 0.3568
vn -0.4089 -0.6617 0.6284
vn 0.7002 -0.6617 -0.2680
vn 0.6071 -0.7947 -0.0000
vn 0.3313 -0.9435 -0.0000
vn -0.0385 -0.6617 0.7488
vn 0.1876 -0.7947 0.5773
vn 0.4713 -0.6617 0.5831
vt 0.585686 0.014869
vt 0.607992 0.053505
vt 0.563380 0.053505
vt 0.630299 0.092142
vt 0.652605 0.053505
vt 0.674912 0.092142
vt 0.942588 0.014869
vt 0.964895 0.053505
vt 0.920282 0.053505
vt 0.853363 0.014869
vt 0.875669 0.053505
vt 0.831056 0.053505
vt 0.764137 0.014869
vt 0.786444 0.053505
vt 0.741831 0.053505
vt 0.652605 0.130778
vt 0.541073 0.092142
vt 0.585686 0.092142
vt 0.563380 0.130778
vt 0.897976 0.092142
vt 0.942588 0.092142
vt 0.920282 0.130778
vt 0.808750 0.092142
vt 0.853363 0.092142
vt 0.831056 0.130778
vt 0.719524 0.092142
vt 0.764137 0.092142
vt 0.741831 0.130778
vt 0.607992 0.130778
vt 0.518767 0.130778
vt 0.875669 0.130778
vt 0.786444 0.130778
vt 0.697218 0.130778
vt 0.585686 0.169414
vt 0.630299 0.169414
vt 0.607992 0.208050
vt 0.496460 0.169414
vt 0.541073 0.169414
vt 0.518767 0.208050
vt 0.853363 0.169414
vt 0.897976 0.169414
vt 0.875669 0.208050
vt 0.764137 0.169414
vt 0.808750 0.169414
vt 0.786444 0.208050
vt 0.674912 0.169414
vt 0.719524 0.169414
vt 0.697218 0.208050
vt 0.741831 0.208050
vt 0.719524 0.246686
vt 0.831056 0.208050
vt 0.808750 0.246686
vt 0.920282 0.208050
vt 0.897976 0.246686
vt 0.942588 0.169414
vt 0.563380 0.208050
vt 0.541073 0.246686
vt 0.652605 0.208050
vt 0.630299 0.246686
vt 0.964895 0.130778
vt 0.987201 0.092142
vt 0.697218 0.053505
vt 0.674912 0.014869
s 0
usemtl IcoOrb
f 1/1/1 14/2/1 13/3/1
f 2/4/2 14/5/2 16/6/2
f 1/7/3 13/8/3 18/9/3
f 1/10/4 18/11/4 20/12/4
f 1/13/5 20/14/5 17/15/5
f 2/4/6 16/6/6 23/16/6
f 3/17/7 15/18/7 25/19/7
f 4/20/8 19/21/8 27/22/8
f 5/23/9 21/24/9 29/25/9
f 6/26/10 22/27/10 31/28/10
f 2/4/11 23/16/11 26/29/11
f 3/17/12 25/19/12 28/30/12
f 4/20/13 27/22/13 30/31/13
f 5/23/14 29/25/14 32/32/14
f 6/26/15 31/28/15 24/33/15
f 7/34/16 33/35/16 38/36/16
f 8/37/17 34/38/17 40/39/17
f 9/40/18 35/41/18 41/42/18
f 10/43/19 36/44/19 42/45/19
f 11/46/20 37/47/20 39/48/20
f 39/48/21 42/49/21 12/50/21
f 39/48/22 37/47/22 42/49/22
f 37/47/23 10/43/23 42/49/23
f 42/45/24 41/51/24 12/52/24
f 42/45/25 36/44/25 41/51/25
f 36/44/26 9/40/26 41/51/26
f 41/42/27 40/53/27 12/54/27
f 41/42/28 35/41/28 40/53/28
f 35/41/29 8/55/29 40/53/29
f 40/39/30 38/56/30 12/57/30
f 40/39/31 34/38/31 38/56/31
f 34/38/32 7/34/32 38/56/32
f 38/36/33 39/58/33 12/59/33
f 38/36/34 33/35/34 39/58/34
f 33/35/35 11/46/35 39/58/35
f 24/33/36 37/47/36 11/46/36
f 24/33/37 31/28/37 37/47/37
f 31/28/38 10/43/38 37/47/38
f 32/32/39 36/44/39 10/43/39
f 32/32/40 29/25/40 36/44/40
f 29/25/41 9/40/41 36/44/41
f 30/31/42 35/41/42 9/40/42
f 30/31/43 27/22/43 35/41/43
f 27/22/44 8/55/44 35/41/44
f 28/30/45 34/38/45 8/37/45
f 28/30/46 25/19/46 34/38/46
f 25/19/47 7/34/47 34/38/47
f 26/29/48 33/35/48 7/34/48
f 26/29/49 23/16/49 33/35/49
f 23/16/50 11/46/50 33/35/50
f 31/28/51 32/32/51 10/43/51
f 31/28/52 22/27/52 32/32/52
f 22/27/53 5/23/53 32/32/53
f 29/25/54 30/31/54 9/40/54
f 29/25/55 21/24/55 30/31/55
f 21/24/56 4/20/56 30/31/56
f 27/22/57 28/60/57 8/55/57
f 27/22/58 19/21/58 28/60/58
f 19/21/59 3/61/59 28/60/59
f 25/19/60 26/29/60 7/34/60
f 25/19/61 15/18/61 26/29/61
f 15/18/62 2/4/62 26/29/62
f 23/16/63 24/33/63 11/46/63
f 23/16/64 16/6/64 24/33/64
f 16/6/65 6/26/65 24/33/65
f 17/15/66 22/27/66 6/26/66
f 17/15/67 20/14/67 22/27/67
f 20/14/68 5/23/68 22/27/68
f 20/12/69 21/24/69 5/23/69
f 20/12/70 18/11/70 21/24/70
f 18/11/71 4/20/71 21/24/71
f 18/9/72 19/21/72 4/20/72
f 18/9/73 13/8/73 19/21/73
f 13/8/74 3/61/74 19/21/74
f 16/6/75 17/62/75 6/26/75
f 16/6/76 14/5/76 17/62/76
f 14/5/77 1/63/77 17/62/77
f 13/3/78 15/18/78 3/17/78
f 13/3/79 14/2/79 15/18/79
f 14/2/80 2/4/80 15/18/80
o Cube
v 0.000000 0.282238 -1.256910
v 0.000000 0.634787 -1.391178
v 0.000000 0.072073 0.213307
v 0.000000 0.958601 0.313521
v 0.000000 0.884713 -0.694519
v 0.000000 0.958601 -0.190499
v 0.000000 0.056143 0.486279
v 0.000000 0.203656 -1.521789
v 0.000000 0.383227 -0.253013
v 0.000000 0.357328 0.113833
v 0.000000 0.422779 -1.157396
v 0.000000 0.422634 -0.680454
v 0.000000 0.593430 0.613816
v 0.000000 0.351470 -1.661535
v 0.000000 0.958601 0.901573
v 0.000000 0.781474 1.190664
v 0.000000 0.517404 0.587537
v 0.000000 0.494339 0.423472
v 0.000000 0.212197 0.325950
v 0.586939 0.056341 0.053019
v 0.461121 0.826943 0.313521
v 0.258160 0.100650 -1.094653
v 0.371722 0.536975 -1.179618
v 0.534334 0.085284 -0.596837
v 0.512554 0.727503 -0.694519
v 0.545330 0.843052 -0.190499
v 0.607245 0.059049 -0.175769
v 0.692128 -0.002359 -0.694519
v 0.391697 0.007241 -1.298872
v 0.722959 0.145940 0.483787
v 0.904692 -0.009730 -0.176855
v 0.453148 0.255750 -0.597613
v 0.514981 0.233501 -0.240522
v 0.218935 0.268781 -1.019792
v 0.497760 0.231204 -0.046495
v 0.456653 0.253718 -1.375704
v 0.722959 0.307029 0.483787
v 0.765527 0.349959 -0.708283
v 0.904693 0.413162 -0.159003
v 0.280609 0.826943 0.558123
v 0.399305 0.541467 0.697870
v 0.586420 0.307029 0.483787
v 0.586420 0.145940 0.483787
v 0.310580 0.384887 0.404772
v 0.295435 0.244397 0.356588
v 0.000000 0.167106 0.486279
v 0.904692 0.414658 0.483787
v 0.904692 -0.009730 0.483787
v 0.361360 0.390056 0.483787
v 0.343739 0.226596 0.483787
v 0.705129 0.166975 0.386884
v 0.705129 0.285993 0.386884
v 0.604249 0.285993 0.386884
v 0.604249 0.166975 0.386884
v 0.000000 0.277563 -1.591662
v 0.000000 0.353268 0.374711
v 0.424175 0.130480 -1.337288
v 0.904692 0.202464 0.483787
v 0.754493 0.173800 -0.701401
v 0.904693 0.201716 -0.167929
v 0.352550 0.308326 0.483787
v 0.303008 0.314642 0.380680
v 0.749115 0.226484 0.483787
v 0.560264 0.226484 0.483787
v 0.724454 0.226484 0.386884
v 0.584924 0.226484 0.386884
v 1.484308 0.066499 1.045755
v 1.484308 0.338429 1.045755
v 1.340337 0.101674 -2.475679
v 1.340337 0.303253 -2.475679
v 0.757646 -0.009730 -2.509759
v 0.757646 0.414658 -2.509759
v 1.011525 0.066409 1.045950
v 1.011525 0.338519 1.045950
v 0.920471 0.453610 -2.651422
v 1.247360 -0.082420 1.045755
v 0.920471 -0.048682 -2.651422
v 1.247360 0.560413 1.302105
v 1.591304 -0.009730 -0.176855
v 1.591304 0.414658 -0.176855
v 0.904693 0.413162 -0.159003
v 0.904692 -0.009730 -0.176855
v 1.247360 0.821094 -0.176855
v 1.247360 -0.343102 -0.176855
v 1.591304 0.414658 0.483787
v 0.904692 0.414658 0.483787
v 0.904692 -0.009730 0.483787
v 1.247360 0.821094 0.483787
v 1.247360 -0.343102 0.483787
v 1.591304 -0.009730 0.483787
v 1.591304 0.414658 0.956350
v 1.591304 -0.009730 0.956350
v 1.247360 -0.224060 0.956350
v 1.247360 0.702052 1.243744
v 0.904692 0.414658 0.956350
v 0.904692 -0.009730 0.956350
v 1.419207 0.121893 0.838748
v 1.419207 0.283035 0.838748
v 1.076473 0.121840 0.838748
v 1.076473 0.283088 0.838748
v 1.247437 -0.009652 0.838748
v 1.247437 0.414580 0.838748
v 0.825172 0.582483 -2.691311
v 1.435636 0.363873 -2.435791
v 1.435636 0.041055 -2.435791
v 0.825172 -0.177555 -2.691311
v 0.963634 0.395240 -2.589266
v 1.297174 0.275797 -2.449657
v 1.297174 0.129131 -2.449657
v 0.963634 0.009688 -2.589266
v 0.920471 0.453610 -2.547121
v 1.340337 0.303253 -2.371378
v 1.340337 0.101674 -2.371378
v 0.920471 -0.048682 -2.547121
v -0.586939 0.056341 0.053019
v -0.461121 0.826943 0.313521
v -0.258160 0.100650 -1.094653
v -0.371722 0.536975 -1.179618
v -0.534334 0.085284 -0.596837
v -0.512554 0.727503 -0.694519
v -0.545330 0.843052 -0.190499
v -0.607245 0.059049 -0.175769
v -0.692128 -0.002359 -0.694519
v -0.391697 0.007241 -1.298872
v -0.722959 0.145940 0.483787
v -0.904692 -0.009730 -0.176855
v -0.453148 0.255750 -0.597613
v -0.514981 0.233501 -0.240522
v -0.218935 0.268781 -1.019792
v -0.497760 0.231204 -0.046495
v -0.456653 0.253718 -1.375704
v -0.722959 0.307029 0.483787
v -0.765527 0.349959 -0.708283
v -0.904693 0.413162 -0.159003
v -0.280609 0.826943 0.558123
v -0.399305 0.541467 0.697870
v -0.586420 0.307029 0.483787
v -0.586420 0.145940 0.483787
v -0.310580 0.384887 0.404772
v -0.295435 0.244397 0.356588
v -0.904692 0.414658 0.483787
v -0.904692 -0.009730 0.483787
v -0.361360 0.390056 0.483787
v -0.343739 0.226596 0.483787
v -0.705129 0.166975 0.386884
v -0.705129 0.285993 0.386884
v -0.604249 0.285993 0.386884
v -0.604249 0.166975 0.386884
v -0.424175 0.130480 -1.337288
v -0.904692 0.202464 0.483787
v -0.754493 0.173800 -0.701401
v -0.904693 0.201716 -0.167929
v -0.352550 0.308326 0.483787
v -0.303008 0.314642 0.380680
v -0.749115 0.226484 0.483787
v -0.560264 0.226484 0.483787
v -0.724454 0.226484 0.386884
v -0.584924 0.226484 0.386884
v -1.484308 0.066499 1.045755
v -1.484308 0.338429 1.045755
v -1.340337 0.101674 -2.475679
v -1.340337 0.303253 -2.475679
v -0.757646 -0.009730 -2.509759
v -0.757646 0.414658 -2.509759
v -1.011525 0.066409 1.045950
v -1.011525 0.338519 1.045950
v -0.920471 0.453610 -2.651422
v -1.247360 -0.082420 1.045755
v -0.920471 -0.048682 -2.651422
v -1.247360 0.560413 1.302105
v -1.591304 -0.009730 -0.176855
v -1.591304 0.414658 -0.176855
v -0.904693 0.413162 -0.159003
v -0.904692 -0.009730 -0.176855
v -1.247360 0.821094 -0.176855
v -1.247360 -0.343102 -0.176855
v -1.591304 0.414658 0.483787
v -0.904692 0.414658 0.483787
v -0.904692 -0.009730 0.483787
v -1.247360 0.821094 0.483787
v -1.247360 -0.343102 0.483787
v -1.591304 -0.009730 0.483787
v -1.591304 0.414658 0.956350
v -1.591304 -0.009730 0.956350
v -1.247360 -0.224060 0.956350
v -1.247360 0.702052 1.243744
v -0.904692 0.414658 0.956350
v -0.904692 -0.009730 0.956350
v -1.419207 0.121893 0.838748
v -1.419207 0.283035 0.838748
v -1.076473 0.121840 0.838748
v -1.076473 0.283088 0.838748
v -1.247437 -0.009652 0.838748
v -1.247437 0.414580 0.838748
v -0.825172 0.582483 -2.691311
v -1.435636 0.363873 -2.435791
v -1.435636 0.041055 -2.435791
v -0.825172 -0.177555 -2.691311
v -0.963634 0.395240 -2.589266
v -1.297174 0.275797 -2.449657
v -1.297174 0.129131 -2.449657
v -0.963634 0.009688 -2.589266
v -0.920471 0.453610 -2.547121
v -1.340337 0.303253 -2.371378
v -1.340337 0.101674 -2.371378
v -0.920471 -0.048682 -2.547121
vn -0.7547 -0.4056 0.5156
vn -0.7449 -0.4086 0.5274
vn -0.0000 -0.5779 0.8161
vn -0.0000 0.6875 -0.7262
vn -0.0000 0.8046 -0.5938
vn 0.5594 0.6821 -0.4710
vn 0.6164 0.5665 -0.5469
vn 0.7543 0.6523 -0.0750
vn 0.5280 0.8451 -0.0839
vn 0.4688 0.8815 0.0570
vn 0.7150 0.6964 0.0614
vn -0.6492 -0.5191 -0.5559
vn -0.6680 -0.5214 -0.5309
vn -0.8901 -0.4534 0.0466
vn -0.8835 -0.4684 -0.0032
vn -0.0000 0.9970 -0.0774
vn -0.0000 0.9982 0.0604
vn -0.1788 -0.9480 0.2632
vn -0.0000 0.9585 -0.2851
vn 0.5617 0.7679 -0.3079
vn 0.7675 0.5547 -0.3213
vn -0.0000 -0.4490 -0.8935
vn -0.4659 -0.8700 0.1614
vn -0.4822 -0.8617 0.1579
vn -0.3493 -0.9287 0.1241
vn -0.3435 -0.9322 0.1139
vn -0.1448 -0.9885 -0.0432
vn -0.1236 -0.9908 -0.0548
vn -0.0000 -0.9962 -0.0872
vn -0.0000 -0.9855 0.1695
vn -0.2542 -0.9669 0.0220
vn -0.2626 -0.9645 0.0276
vn -0.0000 -0.9984 -0.0559
vn -0.2871 -0.9564 -0.0538
vn -0.2701 -0.9612 -0.0566
vn -0.0000 -0.9983 -0.0588
vn -0.0000 -0.9929 0.1191
vn -0.4565 -0.8834 0.1060
vn -0.3567 -0.9342 0.0001
vn -0.0000 -0.9992 0.0405
vn -0.8603 -0.4083 0.3053
vn -0.8703 -0.4132 0.2681
vn 0.9190 -0.1721 -0.3547
vn 0.9372 -0.1043 -0.3329
vn 0.9926 -0.0123 -0.1208
vn 0.9885 -0.0425 -0.1449
vn 0.6315 -0.4054 -0.6610
vn 0.6513 -0.3760 -0.6591
vn -0.0000 0.0065 1.0000
vn 0.0040 0.0065 1.0000
vn 1.0000 -0.0000 -0.0000
vn -0.0000 -0.5245 -0.8514
vn -0.0000 -0.5281 -0.8492
vn 0.7544 0.5398 0.3735
vn -0.0000 0.9964 0.0852
vn 0.3659 0.9273 0.0793
vn 0.5001 0.6548 0.5668
vn 0.0462 -0.4785 0.8769
vn -0.0000 -0.4790 0.8778
vn -0.9691 -0.0000 0.2466
vn -0.5707 -0.7744 0.2731
vn -0.5585 -0.7833 0.2728
vn -0.0599 -0.3234 0.9444
vn -0.0585 -0.3235 0.9444
vn -0.0000 -0.3241 0.9460
vn -0.0000 -0.3240 0.9461
vn -0.0000 -0.9837 0.1798
vn -0.7147 -0.5753 0.3979
vn -0.7390 -0.5339 0.4110
vn -0.7107 0.5765 0.4033
vn -0.5700 0.7326 0.3720
vn -0.0000 0.9714 0.2376
vn -0.8983 0.0273 0.4386
vn -0.9020 0.0290 0.4307
vn -0.0000 -0.0000 1.0000
vn 0.5707 0.7744 0.2731
vn -0.5707 0.7744 0.2731
vn -0.5585 0.7833 0.2728
vn 0.5585 0.7833 0.2728
vn 0.5707 -0.7744 0.2731
vn 0.5585 -0.7833 0.2728
vn 0.9691 -0.0000 0.2466
vn -0.0612 -0.3234 0.9443
vn -0.0000 -0.5169 -0.8561
vn 0.6461 -0.4290 -0.6313
vn 0.9831 -0.0773 -0.1662
vn 0.8933 -0.2469 -0.3756
vn -0.3371 0.9415 -0.0000
vn 0.6199 -0.7785 0.0981
vn -0.7235 0.6871 0.0664
vn 0.9542 -0.0000 0.2991
vn -0.9980 -0.0013 0.0627
vn -0.5144 -0.8064 0.2919
vn 0.7222 0.6885 0.0665
vn -0.6213 -0.7774 0.0979
vn -0.9373 -0.0000 -0.3486
vn -0.7601 -0.6464 0.0672
vn 0.5660 0.8159 -0.1180
vn -1.0000 -0.0000 -0.0000
vn -0.8020 0.5938 0.0649
vn 0.5182 -0.8492 -0.1012
vn 0.9976 -0.0000 -0.0687
vn -0.6973 -0.7168 -0.0000
vn 0.7634 0.6460 -0.0000
vn -0.7651 0.6439 -0.0007
vn 0.6960 -0.7181 -0.0000
vn 0.6412 -0.0000 0.7674
vn 0.3155 -0.5046 0.8036
vn -0.7279 0.1034 0.6778
vn -0.6426 -0.0000 0.7662
vn -0.3166 -0.5048 0.8031
vn 0.7267 0.1037 0.6791
vn -0.5350 0.7797 0.3254
vn 0.5367 0.7786 0.3252
vn 0.5159 -0.8054 0.2918
vn -0.9539 -0.0000 0.3000
vn 0.3861 -0.0000 -0.9225
vn -0.3371 -0.9415 -0.0000
vn 0.4714 0.7182 -0.5118
vn 0.8757 -0.0000 -0.4829
vn 0.4714 -0.7182 -0.5118
vn -0.6986 -0.0000 -0.7155
vn 0.7547 -0.4056 0.5156
vn 0.7449 -0.4086 0.5274
vn -0.6164 0.5665 -0.5469
vn -0.5594 0.6821 -0.4710
vn -0.7543 0.6523 -0.0750
vn -0.7150 0.6964 0.0614
vn -0.4688 0.8815 0.0570
vn -0.5280 0.8451 -0.0839
vn 0.6492 -0.5191 -0.5559
vn 0.8835 -0.4684 -0.0032
vn 0.8901 -0.4534 0.0466
vn 0.6680 -0.5214 -0.5309
vn 0.1788 -0.9480 0.2632
vn -0.5617 0.7679 -0.3079
vn -0.7675 0.5547 -0.3213
vn 0.4659 -0.8700 0.1614
vn 0.3435 -0.9322 0.1139
vn 0.3493 -0.9287 0.1241
vn 0.4822 -0.8617 0.1579
vn 0.1448 -0.9885 -0.0432
vn 0.1236 -0.9908 -0.0548
vn 0.2626 -0.9645 0.0276
vn 0.2542 -0.9669 0.0220
vn 0.2701 -0.9612 -0.0566
vn 0.2871 -0.9564 -0.0538
vn 0.3567 -0.9342 0.0001
vn 0.4565 -0.8834 0.1060
vn 0.8703 -0.4132 0.2681
vn 0.8603 -0.4083 0.3053
vn -0.9190 -0.1721 -0.3547
vn -0.9885 -0.0425 -0.1449
vn -0.9926 -0.0123 -0.1208
vn -0.9372 -0.1043 -0.3329
vn -0.6315 -0.4054 -0.6610
vn -0.6513 -0.3760 -0.6591
vn -0.0040 0.0065 1.0000
vn -0.7544 0.5398 0.3735
vn -0.3659 0.9273 0.0793
vn -0.5001 0.6548 0.5668
vn -0.0462 -0.4785 0.8769
vn 0.0599 -0.3234 0.9444
vn 0.0585 -0.3235 0.9444
vn 0.7390 -0.5339 0.4110
vn 0.7147 -0.5753 0.3979
vn 0.7107 0.5765 0.4033
vn 0.5700 0.7326 0.3720
vn 0.8983 0.0273 0.4386
vn 0.9020 0.0290 0.4307
vn 0.0612 -0.3234 0.9443
vn -0.6461 -0.4290 -0.6313
vn -0.9831 -0.0773 -0.1662
vn -0.8933 -0.2469 -0.3756
vn 0.3371 0.9415 -0.0000
vn -0.6199 -0.7785 0.0981
vn 0.7235 0.6871 0.0664
vn -0.9542 -0.0000 0.2991
vn 0.9980 -0.0013 0.0627
vn 0.5144 -0.8064 0.2919
vn -0.7222 0.6885 0.0665
vn 0.6213 -0.7774 0.0979
vn 0.9373 -0.0000 -0.3486
vn 0.7601 -0.6464 0.0672
vn -0.5660 0.8159 -0.1180
vn 0.8020 0.5938 0.0649
vn -0.5182 -0.8492 -0.1012
vn -0.9976 -0.0000 -0.0687
vn 0.6973 -0.7168 -0.0000
vn -0.7634 0.6460 -0.0000
vn 0.7651 0.6439 -0.0007
vn -0.6960 -0.7181 -0.0000
vn -0.6412 -0.0000 0.7674
vn -0.3155 -0.5046 0.8036
vn 0.7279 0.1034 0.6778
vn 0.6426 -0.0000 0.7662
vn 0.3166 -0.5048 0.8031
vn -0.7267 0.1037 0.6791
vn 0.5350 0.7797 0.3254
vn -0.5367 0.7786 0.3252
vn -0.5159 -0.8054 0.2918
vn 0.9539 -0.0000 0.3000
vn -0.3861 -0.0000 -0.9225
vn 0.3371 -0.9415 -0.0000
vn -0.4714 0.7182 -0.5118
vn -0.8757 -0.0000 -0.4829
vn -0.4714 -0.7182 -0.5118
vn 0.6986 -0.0000 -0.7155
vt 0.405713 0.119622
vt 0.395021 0.102872
vt 0.428679 0.011629
vt 0.446264 0.011629
vt 0.711718 0.974641
vt 0.641850 0.974641
vt 0.581470 0.848094
vt 0.628899 0.780232
vt 0.354475 0.740842
vt 0.363610 0.858585
vt 0.258777 0.874216
vt 0.228837 0.759566
vt 0.223924 0.135426
vt 0.247635 0.111959
vt 0.275164 0.115299
vt 0.272251 0.140378
vt 0.371548 0.974641
vt 0.258373 0.974641
vt 0.152789 0.205825
vt 0.081374 0.232751
vt 0.012857 0.240997
vt 0.012857 0.215512
vt 0.485829 0.974641
vt 0.468776 0.844461
vt 0.475316 0.749274
vt 0.012857 0.037115
vt 0.012857 0.011629
vt 0.416404 0.136373
vt 0.334251 0.155011
vt 0.330483 0.134332
vt 0.177960 0.149743
vt 0.012857 0.062600
vt 0.480040 0.011629
vt 0.269338 0.165456
vt 0.281956 0.011629
vt 0.326715 0.113652
vt 0.352658 0.011629
vt 0.338019 0.175691
vt 0.341787 0.196370
vt 0.263512 0.215613
vt 0.266425 0.190535
vt 0.427096 0.153123
vt 0.437787 0.169873
vt 0.097158 0.149461
vt 0.012857 0.088085
vt 0.165375 0.177784
vt 0.492450 0.011629
vt 0.504614 0.011629
vt 0.162246 0.849258
vt 0.204306 0.908068
vt 0.130392 0.974641
vt 0.011340 0.974641
vt 0.083231 0.179174
vt 0.012857 0.190027
vt 0.148474 0.179433
vt 0.139346 0.187853
vt 0.135043 0.179794
vt 0.137783 0.176175
vt 0.077745 0.160427
vt 0.075752 0.168802
vt 0.012857 0.164541
vt 0.012857 0.139056
vt 0.078787 0.152274
vt 0.012857 0.113571
vt 0.090136 0.165099
vt 0.144849 0.167152
vt 0.117200 0.181104
vt 0.115259 0.166674
vt 0.126920 0.158002
vt 0.125060 0.170722
vt 0.128259 0.166927
vt 0.137779 0.171612
vt 0.124590 0.175785
vt 0.329605 0.326466
vt 0.373802 0.291111
vt 0.367693 0.304119
vt 0.336750 0.329003
vt 0.099580 0.320862
vt 0.098021 0.355460
vt 0.058483 0.357058
vt 0.063099 0.323761
vt 0.098992 0.278104
vt 0.059395 0.278104
vt 0.098285 0.397789
vt 0.099613 0.439268
vt 0.059799 0.438711
vt 0.017076 0.398209
vt 0.047536 0.442825
vt 0.054165 0.469552
vt 0.038218 0.469095
vt 0.034598 0.450769
vt 0.152042 0.439847
vt 0.351530 0.436889
vt 0.351944 0.471221
vt 0.155884 0.473143
vt 0.046109 0.353247
vt 0.017076 0.373208
vt 0.017076 0.345739
vt 0.032400 0.345475
vt 0.102085 0.473196
vt 0.102790 0.511401
vt 0.062724 0.511401
vt 0.065396 0.471577
vt 0.379911 0.397789
vt 0.379911 0.511401
vt 0.157662 0.511401
vt 0.322091 0.348147
vt 0.149785 0.397789
vt 0.150716 0.354348
vt 0.379911 0.278104
vt 0.322460 0.323929
vt 0.152214 0.318896
vt 0.154890 0.278104
vt 0.051954 0.326071
vt 0.047177 0.278104
vt 0.017076 0.423410
vt 0.050172 0.511401
vt 0.017076 0.511401
vt 0.017076 0.450918
vt 0.036590 0.327489
vt 0.017076 0.278104
vt 0.329306 0.345946
vt 0.373615 0.383653
vt 0.361584 0.317126
vt 0.361023 0.355381
vt 0.343736 0.341545
vt 0.343895 0.331540
vt 0.336521 0.343746
vt 0.367319 0.369517
s 1
usemtl Body
f 64/64/81 76/65/82 53/66/83 43/67/83
f 56/68/84 44/69/85 65/70/86 78/71/87
f 81/72/88 68/73/89 63/74/90 89/75/91
f 62/76/92 77/77/93 75/78/94 69/79/95
f 68/73/89 48/80/96 46/81/97 63/74/90
f 89/82/98 83/83/98 58/84/98 55/85/98
f 78/71/87 65/70/86 67/87/100 80/88/101
f 45/89/102 52/90/102 77/77/93 62/76/92
f 80/88/101 67/87/100 68/73/89 81/72/88
f 64/64/103 71/91/104 70/92/105 66/93/106
f 62/76/107 90/94/108 49/95/109 45/89/109
f 43/67/110 50/96/110 71/91/104 64/64/103
f 66/93/106 70/92/105 73/97/111 69/79/112
f 69/79/112 73/97/111 90/94/108 62/76/107
f 69/79/95 75/78/94 74/99/121 66/93/122
f 66/93/122 74/99/121 76/65/82 64/64/81
f 101/101/123 80/102/124 81/103/125 102/104/126
f 99/105/127 78/106/128 80/102/124 101/101/123
f 49/95/129 90/94/130 92/107/130 88/108/129
f 102/104/126 81/103/125 89/82/131 100/109/131
f 97/110/132 56/111/133 78/106/128 99/105/127
f 83/112/134 82/113/134 57/114/134 58/115/134
f 46/81/97 57/114/135 82/113/136 63/74/90
f 63/74/137 82/113/137 83/112/137 89/75/137
f 91/116/138 89/82/138 55/85/139 59/117/139
f 105/118/140 79/119/141 94/120/142 107/121/140
f 59/117/147 60/124/147 86/123/148 91/116/149
f 92/107/150 87/126/151 61/127/152 88/108/152
f 103/128/153 104/122/154 87/126/151 92/107/150
f 105/118/155 72/129/155 90/94/155 100/109/155
f 84/130/155 79/119/155 89/82/155 91/116/155
f 106/131/155 84/130/155 91/116/155 103/128/155
f 72/129/155 85/132/155 92/107/155 90/94/155
f 85/132/156 72/129/157 93/135/158 96/134/159
f 79/119/141 84/130/160 95/136/161 94/120/142
f 106/131/162 85/132/156 96/134/159 108/133/162
f 84/130/160 106/131/162 108/133/162 95/136/161
f 85/132/155 106/131/155 103/128/155 92/107/155
f 79/119/155 105/118/155 100/109/155 89/82/155
f 91/116/149 86/123/148 104/122/154 103/128/153
f 72/129/157 105/118/140 107/121/140 93/135/158
f 50/96/164 97/110/132 99/105/127 71/91/165
f 73/97/166 102/104/126 100/109/131 90/94/131
f 71/91/165 99/105/127 101/101/123 70/92/167
f 70/92/167 101/101/123 102/104/126 73/97/166
f 159/64/203 43/67/83 53/66/83 171/65/204
f 56/68/84 173/71/205 160/70/206 44/69/85
f 176/72/207 183/75/208 158/74/209 163/73/210
f 157/76/211 164/79/212 170/78/213 172/77/214
f 163/73/210 158/74/209 46/81/97 48/80/96
f 183/82/215 55/85/215 58/84/215 178/83/215
f 173/71/205 175/88/217 162/87/216 160/70/206
f 45/89/102 157/76/211 172/77/214 52/90/102
f 175/88/217 176/72/207 163/73/210 162/87/216
f 159/64/218 161/93/219 165/92/220 166/91/221
f 157/76/222 45/89/109 49/95/109 184/94/223
f 43/67/110 159/64/218 166/91/221 50/96/110
f 161/93/219 164/79/224 168/97/225 165/92/220
f 164/79/224 157/76/222 184/94/223 168/97/225
f 164/79/212 161/93/230 169/99/231 170/78/213
f 161/93/230 159/64/203 171/65/204 169/99/231
f 193/101/232 194/104/233 176/103/234 175/102/235
f 191/105/236 193/101/232 175/102/235 173/106/237
f 49/95/129 88/108/129 186/107/238 184/94/238
f 194/104/233 192/109/179 183/82/179 176/103/234
f 97/110/132 191/105/236 173/106/237 56/111/133
f 178/112/239 58/115/239 57/114/239 177/113/239
f 46/81/97 158/74/209 177/113/240 57/114/135
f 158/74/241 183/75/241 178/112/241 177/113/241
f 185/116/242 59/117/139 55/85/139 183/82/242
f 197/118/162 199/121/162 188/120/161 174/119/160
f 59/117/147 185/116/245 181/123/246 60/124/147
f 186/107/247 88/108/152 61/127/152 182/126/248
f 195/128/249 186/107/247 182/126/248 196/122/250
f 197/118/155 192/109/155 184/94/155 167/129/155
f 179/130/155 185/116/155 183/82/155 174/119/155
f 198/131/155 195/128/155 185/116/155 179/130/155
f 167/129/155 184/94/155 186/107/155 180/132/155
f 180/132/157 190/134/158 187/135/159 167/129/156
f 174/119/160 188/120/161 189/136/142 179/130/141
f 198/131/140 200/133/140 190/134/158 180/132/157
f 179/130/141 189/136/142 200/133/140 198/131/140
f 180/132/155 186/107/155 195/128/155 198/131/155
f 174/119/155 183/82/155 192/109/155 197/118/155
f 185/116/245 195/128/249 196/122/250 181/123/246
f 167/129/156 187/135/159 199/121/162 197/118/162
f 50/96/164 166/91/252 191/105/236 97/110/132
f 168/97/253 184/94/179 192/109/179 194/104/233
f 166/91/252 165/92/254 193/101/232 191/105/236
f 165/92/254 168/97/253 194/104/233 193/101/232
s 0
usemtl Wings
f 111/137/168 119/138/168 156/139/168 155/140/168
f 132/141/131 127/142/131 133/143/131 134/144/131
f 131/145/169 132/141/169 134/144/169 135/146/169
f 130/147/170 128/148/170 137/149/170 136/150/170
f 116/151/171 115/152/171 141/153/171 142/154/171
f 123/155/172 114/156/172 113/157/172 124/158/172
f 110/159/173 120/160/173 144/161/173 140/162/173
f 127/142/174 130/147/174 136/150/174 133/143/174
f 129/163/175 131/164/175 135/165/175 138/166/175
f 113/157/176 114/156/176 145/167/176 148/168/176
f 113/157/177 148/168/177 126/169/177 124/158/177
f 146/170/178 145/167/178 125/171/178 122/172/178
f 128/148/179 123/155/179 124/158/179 129/163/179
f 145/167/180 114/156/180 123/155/180 125/171/180
f 148/173/181 147/174/181 121/175/181 126/176/181
f 147/174/182 146/170/182 122/172/182 121/175/182
f 137/149/179 128/148/179 129/163/179 138/166/179
f 124/158/183 126/169/183 131/164/183 129/163/183
f 122/172/184 125/171/184 130/147/184 127/142/184
f 125/171/185 123/155/185 128/148/185 130/147/185
f 126/176/186 121/175/186 132/141/186 131/145/186
f 121/175/131 122/172/131 127/142/131 132/141/131
f 110/159/187 109/177/187 134/144/187 133/143/187
f 109/177/188 118/178/188 135/146/188 134/144/188
f 116/151/189 120/179/189 136/150/189 137/149/189
f 115/152/190 116/151/190 137/149/190 138/166/190
f 118/180/191 115/152/191 138/166/191 135/165/191
f 120/160/192 110/159/192 133/143/192 136/150/192
f 118/178/193 109/177/193 139/183/193 143/184/193
f 115/152/194 118/180/194 143/181/194 141/153/194
f 120/179/195 116/151/195 142/154/195 144/182/195
f 109/177/196 110/159/196 140/162/196 139/183/196
f 112/185/197 117/186/197 145/167/197 146/170/197
f 111/137/197 112/185/197 146/170/197 147/174/197
f 119/138/197 111/137/197 147/174/197 148/173/197
f 117/186/197 119/138/197 148/173/197 145/167/197
f 117/186/198 112/185/198 154/191/198 153/192/198
f 119/138/131 117/186/131 153/192/131 156/139/131
f 112/185/179 111/137/179 155/140/179 154/191/179
f 203/137/255 247/140/255 248/139/255 211/138/255
f 224/141/179 226/144/179 225/143/179 219/142/179
f 223/145/256 227/146/256 226/144/256 224/141/256
f 222/147/257 228/150/257 229/149/257 220/148/257
f 208/151/258 234/154/258 233/153/258 207/152/258
f 215/155/259 216/158/259 205/157/259 206/156/259
f 202/159/260 232/162/260 236/161/260 212/160/260
f 219/142/261 225/143/261 228/150/261 222/147/261
f 221/163/262 230/166/262 227/165/262 223/164/262
f 205/157/263 240/168/263 237/167/263 206/156/263
f 205/157/264 216/158/264 218/169/264 240/168/264
f 238/170/265 214/172/265 217/171/265 237/167/265
f 220/148/131 221/163/131 216/158/131 215/155/131
f 237/167/266 217/171/266 215/155/266 206/156/266
f 240/173/267 218/176/267 213/175/267 239/174/267
f 239/174/268 213/175/268 214/172/268 238/170/268
f 229/149/131 230/166/131 221/163/131 220/148/131
f 216/158/269 221/163/269 223/164/269 218/169/269
f 214/172/270 219/142/270 222/147/270 217/171/270
f 217/171/271 222/147/271 220/148/271 215/155/271
f 218/176/272 223/145/272 224/141/272 213/175/272
f 213/175/179 224/141/179 219/142/179 214/172/179
f 202/159/273 225/143/273 226/144/273 201/177/273
f 201/177/274 226/144/274 227/146/274 210/178/274
f 208/151/275 229/149/275 228/150/275 212/179/275
f 207/152/276 230/166/276 229/149/276 208/151/276
f 210/180/277 227/165/277 230/166/277 207/152/277
f 212/160/278 228/150/278 225/143/278 202/159/278
f 210/178/279 235/184/279 231/183/279 201/177/279
f 207/152/280 233/153/280 235/181/280 210/180/280
f 212/179/281 236/182/281 234/154/281 208/151/281
f 201/177/282 231/183/282 232/162/282 202/159/282
f 204/185/283 238/170/283 237/167/283 209/186/283
f 203/137/283 239/174/283 238/170/283 204/185/283
f 211/138/283 240/173/283 239/174/283 203/137/283
f 209/186/283 237/167/283 240/173/283 211/138/283
f 209/186/284 245/192/284 246/191/284 204/185/284
f 211/138/179 248/139/179 245/192/179 209/186/179
f 204/185/131 246/191/131 247/140/131 203/137/131
s 1
usemtl Engine
f 104/122/143 86/123/144 60/124/145 98/125/146
f 107/121/155 108/133/155 96/134/155 93/135/155
f 94/120/155 95/136/155 108/133/155 107/121/155
f 87/126/163 104/122/143 98/125/146 61/127/146
s 0
f 143/181/155 144/182/155 142/154/155 141/153/155
f 139/183/155 140/162/155 144/161/155 143/184/155
s 1
f 196/122/243 98/125/146 60/124/145 181/123/244
f 199/121/155 187/135/155 190/134/155 200/133/155
f 188/120/155 199/121/155 200/133/155 189/136/155
f 182/126/251 61/127/146 98/125/146 196/122/243
s 0
f 235/181/155 233/153/155 234/154/155 236/182/155
f 231/183/155 235/184/155 236/161/155 232/162/155
s 1
usemtl Energy
f 51/98/113 75/78/114 77/77/115 52/90/116
f 53/66/117 76/65/118 74/99/119 54/100/120
f 54/100/120 74/99/119 75/78/114 51/98/113
s 0
f 152/187/197 149/188/197 150/189/197 151/190/197
f 150/189/199 149/188/199 153/192/199 154/191/199
f 151/190/200 150/189/200 154/191/200 155/140/200
f 152/187/201 151/190/201 155/140/201 156/139/201
f 149/188/202 152/187/202 156/139/202 153/192/202
s 1
f 51/98/113 52/90/116 172/77/226 170/78/227
f 53/66/117 54/100/120 169/99/228 171/65/229
f 54/100/120 51/98/113 170/78/227 169/99/228
s 0
f 244/187/283 243/190/283 242/189/283 241/188/283
f 242/189/285 246/191/285 245/192/285 241/188/285
f 243/190/286 247/140/286 246/191/286 242/189/286
f 244/187/287 248/139/287 247/140/287 243/190/287
f 241/188/288 245/192/288 248/139/288 244/187/288
s 1
usemtl Glass
f 65/70/86 44/69/85 47/86/99 67/87/100
f 67/87/100 47/86/99 48/80/96 68/73/89
f 160/70/206 162/87/216 47/86/99 44/69/85
f 162/87/216 163/73/210 48/80/96 47/86/99
