# Blender 4.5.0
# www.blender.org
mtllib Prototype_Ship_2.mtl
o Protoship_2
v 0.000000 0.282238 -1.256910
v 0.000000 0.634787 -1.391178
v 0.000000 0.149036 0.213307
v 0.000000 0.958601 0.313521
v 0.000000 0.884713 -0.694519
v 0.000000 0.958601 -0.190499
v 0.000000 0.226243 0.691519
v 0.000000 0.203656 -1.521789
v 0.000000 0.383227 -0.253013
v 0.000000 0.357328 0.113833
v 0.000000 0.422779 -1.157396
v 0.000000 0.422634 -0.680454
v 0.000000 0.351470 -1.661535
v 0.000000 0.958601 0.901573
v 0.000000 0.781474 1.190664
v 0.586939 0.056341 0.053019
v 0.461121 0.826943 0.313521
v 0.258160 0.100650 -1.094653
v 0.371722 0.536975 -1.179618
v 0.534334 0.085284 -0.596837
v 0.512554 0.727503 -0.694519
v 0.545330 0.843052 -0.190499
v 0.607245 0.059049 -0.175769
v 0.692128 -0.002359 -0.694519
v 0.391697 0.007241 -1.298872
v 0.904692 -0.009730 -0.176855
v 0.453148 0.255750 -0.597613
v 0.514981 0.233501 -0.240522
v 0.218935 0.268781 -1.019792
v 0.497760 0.231204 -0.046495
v 0.456653 0.253718 -1.375704
v 0.765527 0.349959 -0.708283
v 0.904693 0.413162 -0.159003
v 0.280609 0.826943 0.558123
v 0.338207 0.500885 0.637060
v 0.810235 0.382946 0.436788
v 0.533598 0.205360 0.499793
v 1.484308 0.066499 1.045755
v 1.484308 0.338429 1.045755
v 1.340337 0.101674 -2.475679
v 1.340337 0.303253 -2.475679
v 0.757646 -0.009730 -2.509759
v 0.757646 0.414658 -2.509759
v 1.011525 0.066409 1.045950
v 1.011525 0.338519 1.045950
v 0.920471 0.453610 -2.651422
v 1.247360 -0.082420 1.045755
v 0.920471 -0.048682 -2.651422
v 1.247360 0.560413 1.302105
v 1.591304 -0.009730 -0.176855
v 1.591304 0.414658 -0.176855
v 0.904693 0.413162 -0.159003
v 0.904692 -0.009730 -0.176855
v 1.247360 0.821094 -0.176855
v 1.247360 -0.343102 -0.176855
v 1.591304 0.414658 0.483787
v 0.904692 0.414658 0.483787
v 0.904692 -0.009730 0.483787
v 1.247360 0.821094 0.483787
v 1.247360 -0.343102 0.483787
v 1.591304 -0.009730 0.483787
v 1.591304 0.414658 0.956350
v 1.591304 -0.009730 0.956350
v 1.247360 -0.224060 0.956350
v 1.247360 0.702052 1.243744
v 0.904692 0.414658 0.956350
v 0.904692 -0.009730 0.956350
v 1.419207 0.121893 0.838748
v 1.419207 0.283035 0.838748
v 1.076473 0.121840 0.838748
v 1.076473 0.283088 0.838748
v 1.247437 -0.009652 0.838748
v 1.247437 0.414580 0.838748
v 0.825172 0.582483 -2.691311
v 1.435636 0.363873 -2.435791
v 1.435636 0.041055 -2.435791
v 0.825172 -0.177555 -2.691311
v 0.963634 0.395240 -2.589266
v 1.297174 0.275797 -2.449657
v 1.297174 0.129131 -2.449657
v 0.963634 0.009688 -2.589266
v 0.920471 0.453610 -2.547121
v 1.340337 0.303253 -2.371378
v 1.340337 0.101674 -2.371378
v 0.920471 -0.048682 -2.547121
v -0.586939 0.056341 0.053019
v -0.461121 0.826943 0.313521
v -0.258160 0.100650 -1.094653
v -0.371722 0.536975 -1.179618
v -0.534334 0.085284 -0.596837
v -0.512554 0.727503 -0.694519
v -0.545330 0.843052 -0.190499
v -0.607245 0.059049 -0.175769
v -0.692128 -0.002359 -0.694519
v -0.391697 0.007241 -1.298872
v -0.904692 -0.009730 -0.176855
v -0.453148 0.255750 -0.597613
v -0.514981 0.233501 -0.240522
v -0.218935 0.268781 -1.019792
v -0.497760 0.231204 -0.046495
v -0.456653 0.253718 -1.375704
v -0.765527 0.349959 -0.708283
v -0.904693 0.413162 -0.159003
v -0.280609 0.826943 0.558123
v -0.338207 0.500885 0.637060
v -0.810235 0.382946 0.436788
v -0.533598 0.205360 0.499793
v -1.484308 0.066499 1.045755
v -1.484308 0.338429 1.045755
v -1.340337 0.101674 -2.475679
v -1.340337 0.303253 -2.475679
v -0.757646 -0.009730 -2.509759
v -0.757646 0.414658 -2.509759
v -1.011525 0.066409 1.045950
v -1.011525 0.338519 1.045950
v -0.920471 0.453610 -2.651422
v -1.247360 -0.082420 1.045755
v -0.920471 -0.048682 -2.651422
v -1.247360 0.560413 1.302105
v -1.591304 -0.009730 -0.176855
v -1.591304 0.414658 -0.176855
v -0.904693 0.413162 -0.159003
v -0.904692 -0.009730 -0.176855
v -1.247360 0.821094 -0.176855
v -1.247360 -0.343102 -0.176855
v -1.591304 0.414658 0.483787
v -0.904692 0.414658 0.483787
v -0.904692 -0.009730 0.483787
v -1.247360 0.821094 0.483787
v -1.247360 -0.343102 0.483787
v -1.591304 -0.009730 0.483787
v -1.591304 0.414658 0.956350
v -1.591304 -0.009730 0.956350
v -1.247360 -0.224060 0.956350
v -1.247360 0.702052 1.243744
v -0.904692 0.414658 0.956350
v -0.904692 -0.009730 0.956350
v -1.419207 0.121893 0.838748
v -1.419207 0.283035 0.838748
v -1.076473 0.121840 0.838748
v -1.076473 0.283088 0.838748
v -1.247437 -0.009652 0.838748
v -1.247437 0.414580 0.838748
v -0.825172 0.582483 -2.691311
v -1.435636 0.363873 -2.435791
v -1.435636 0.041055 -2.435791
v -0.825172 -0.177555 -2.691311
v -0.963634 0.395240 -2.589266
v -1.297174 0.275797 -2.449657
v -1.297174 0.129131 -2.449657
v -0.963634 0.009688 -2.589266
v -0.920471 0.453610 -2.547121
v -1.340337 0.303253 -2.371378
v -1.340337 0.101674 -2.371378
v -0.920471 -0.048682 -2.547121
v 0.000000 0.133107 0.681280
v 0.904692 -0.009730 0.483787
v 0.000000 0.691267 1.063611
v 0.399305 0.541467 0.697870
v 0.904692 0.414658 0.483787
v -0.904692 -0.009730 0.483787
v -0.399305 0.541467 0.697870
v -0.904692 0.414658 0.483787
v 0.000000 0.436522 0.349030
v 0.000000 0.673644 0.349030
v 0.599547 0.383620 0.349030
v -0.599547 0.383620 0.349030
v 0.000000 0.236216 0.349030
v 0.485371 0.222983 0.349030
v 0.318137 0.494560 0.349030
v -0.485371 0.222983 0.349030
v -0.318137 0.494560 0.349030
vn -0.7547 -0.4056 0.5156
vn -0.7449 -0.4086 0.5274
vn -0.0000 -0.5779 0.8161
vn 0.5134 0.5900 -0.6231
vn 0.7150 0.6964 0.0614
vn -0.6682 -0.5501 -0.5009
vn -0.6730 -0.5501 -0.4944
vn -0.8901 -0.4534 0.0466
vn -0.8835 -0.4684 -0.0032
vn 0.2384 0.9705 0.0354
vn 0.2461 -0.9550 0.1655
vn 0.3374 0.8682 -0.3638
vn -0.0000 0.9223 -0.3865
vn -0.0000 0.9585 -0.2851
vn 0.2909 0.9171 -0.2727
vn 0.7471 0.5154 -0.4198
vn -0.0000 0.9813 -0.1926
vn 0.2453 0.9513 -0.1867
vn -0.0000 -0.5252 -0.8510
vn 0.7785 0.5854 -0.2264
vn -0.4659 -0.8700 0.1614
vn -0.4822 -0.8617 0.1579
vn -0.3493 -0.9287 0.1241
vn -0.3435 -0.9322 0.1139
vn -0.1886 -0.9819 -0.0187
vn -0.1800 -0.9834 -0.0233
vn -0.0000 -0.9995 -0.0326
vn -0.0000 -0.9855 0.1695
vn -0.2542 -0.9669 0.0220
vn -0.2626 -0.9645 0.0276
vn -0.0000 -0.9984 -0.0559
vn -0.2871 -0.9564 -0.0538
vn -0.2701 -0.9612 -0.0566
vn -0.0000 -0.9983 -0.0588
vn -0.0000 -0.9929 0.1191
vn -0.4565 -0.8834 0.1060
vn -0.3567 -0.9342 0.0001
vn -0.0000 -0.9992 0.0405
vn -0.8603 -0.4083 0.3053
vn -0.8703 -0.4132 0.2681
vn -0.0000 -0.5227 -0.8525
vn -0.6864 -0.3877 -0.6153
vn -0.6254 -0.4141 -0.6614
vn 0.9164 -0.1788 -0.3580
vn 0.9207 -0.1682 -0.3523
vn 0.9884 -0.0417 -0.1458
vn 0.9862 -0.0456 -0.1593
vn 0.6864 -0.3877 -0.6153
vn 0.6254 -0.4141 -0.6614
vn 1.0000 -0.0000 -0.0000
vn 0.7544 0.5398 0.3735
vn 0.3659 0.9273 0.0793
vn 0.5001 0.6548 0.5668
vn -0.3371 0.9415 -0.0000
vn 0.6199 -0.7785 0.0981
vn -0.7235 0.6871 0.0664
vn 0.9542 -0.0000 0.2991
vn -0.9980 -0.0013 0.0627
vn -0.5144 -0.8064 0.2919
vn 0.7222 0.6885 0.0665
vn -0.6213 -0.7774 0.0979
vn -0.9373 -0.0000 -0.3486
vn -0.7601 -0.6464 0.0672
vn 0.5660 0.8159 -0.1180
vn -1.0000 -0.0000 -0.0000
vn -0.8020 0.5938 0.0649
vn 0.5182 -0.8492 -0.1012
vn 0.9976 -0.0000 -0.0687
vn -0.6973 -0.7168 -0.0000
vn 0.7634 0.6460 -0.0000
vn -0.7651 0.6439 -0.0007
vn 0.6960 -0.7181 -0.0000
vn 0.6412 -0.0000 0.7674
vn 0.3155 -0.5046 0.8036
vn -0.7279 0.1034 0.6778
vn -0.6426 -0.0000 0.7662
vn -0.3166 -0.5048 0.8031
vn 0.7267 0.1037 0.6791
vn -0.0000 -0.0000 1.0000
vn -0.5350 0.7797 0.3254
vn 0.5367 0.7786 0.3252
vn 0.5159 -0.8054 0.2918
vn -0.9539 -0.0000 0.3000
vn 0.3861 -0.0000 -0.9225
vn -0.3371 -0.9415 -0.0000
vn 0.4714 0.7182 -0.5118
vn 0.8757 -0.0000 -0.4829
vn 0.4714 -0.7182 -0.5118
vn -0.6986 -0.0000 -0.7155
vn 0.7547 -0.4056 0.5156
vn 0.7449 -0.4086 0.5274
vn -0.5134 0.5900 -0.6231
vn -0.7150 0.6964 0.0614
vn 0.6682 -0.5501 -0.5009
vn 0.8835 -0.4684 -0.0032
vn 0.8901 -0.4534 0.0466
vn 0.6730 -0.5501 -0.4944
vn -0.2384 0.9705 0.0354
vn -0.4752 -0.8794 0.0305
vn -0.3374 0.8682 -0.3638
vn -0.2909 0.9171 -0.2727
vn -0.7471 0.5154 -0.4198
vn -0.2453 0.9513 -0.1867
vn -0.7785 0.5854 -0.2264
vn 0.4659 -0.8700 0.1614
vn 0.3435 -0.9322 0.1139
vn 0.3493 -0.9287 0.1241
vn 0.4822 -0.8617 0.1579
vn 0.1886 -0.9819 -0.0187
vn 0.1800 -0.9834 -0.0233
vn 0.2626 -0.9645 0.0276
vn 0.2542 -0.9669 0.0220
vn 0.2701 -0.9612 -0.0566
vn 0.2871 -0.9564 -0.0538
vn 0.3567 -0.9342 0.0001
vn 0.4565 -0.8834 0.1060
vn 0.8703 -0.4132 0.2681
vn 0.8603 -0.4083 0.3053
vn -0.9164 -0.1788 -0.3580
vn -0.9862 -0.0456 -0.1593
vn -0.9884 -0.0417 -0.1458
vn -0.9207 -0.1682 -0.3523
vn -0.7544 0.5398 0.3735
vn -0.3659 0.9273 0.0793
vn -0.5001 0.6548 0.5668
vn 0.3371 0.9415 -0.0000
vn -0.6199 -0.7785 0.0981
vn 0.7235 0.6871 0.0664
vn -0.9542 -0.0000 0.2991
vn 0.9980 -0.0013 0.0627
vn 0.5144 -0.8064 0.2919
vn -0.7222 0.6885 0.0665
vn 0.6213 -0.7774 0.0979
vn 0.9373 -0.0000 -0.3486
vn 0.7601 -0.6464 0.0672
vn -0.5660 0.8159 -0.1180
vn 0.8020 0.5938 0.0649
vn -0.5182 -0.8492 -0.1012
vn -0.9976 -0.0000 -0.0687
vn 0.6973 -0.7168 -0.0000
vn -0.7634 0.6460 -0.0000
vn 0.7651 0.6439 -0.0007
vn -0.6960 -0.7181 -0.0000
vn -0.6412 -0.0000 0.7674
vn -0.3155 -0.5046 0.8036
vn 0.7279 0.1034 0.6778
vn 0.6426 -0.0000 0.7662
vn 0.3166 -0.5048 0.8031
vn -0.7267 0.1037 0.6791
vn 0.5350 0.7797 0.3254
vn -0.5367 0.7786 0.3252
vn -0.5159 -0.8054 0.2918
vn 0.9539 -0.0000 0.3000
vn -0.3861 -0.0000 -0.9225
vn 0.3371 -0.9415 -0.0000
vn -0.4714 0.7182 -0.5118
vn -0.8757 -0.0000 -0.4829
vn -0.4714 -0.7182 -0.5118
vn 0.6986 -0.0000 -0.7155
vn -0.4813 0.6630 0.5734
vn 0.4752 -0.8794 0.0305
vn 0.2796 0.2579 0.9248
vn 0.1687 -0.8338 0.5256
vn 0.0177 -0.8420 0.5391
vn -0.0213 0.1138 0.9933
vn -0.2796 0.2579 0.9248
vn -0.1687 -0.8338 0.5256
vn -0.0177 -0.8420 0.5391
vn 0.0213 0.1138 0.9933
vn -0.0431 0.9977 0.0516
vn -0.2461 -0.9550 0.1655
vn 0.0431 0.9977 0.0516
vn 0.4813 0.6630 0.5734
vt 0.405713 0.119622
vt 0.395021 0.102872
vt 0.428679 0.011629
vt 0.446264 0.011629
vt 0.711718 0.974641
vt 0.641850 0.974641
vt 0.581470 0.848094
vt 0.628899 0.780232
vt 0.354475 0.740842
vt 0.363610 0.858585
vt 0.258777 0.874216
vt 0.228837 0.759566
vt 0.223924 0.135426
vt 0.247635 0.111959
vt 0.275164 0.115299
vt 0.272251 0.140378
vt 0.371548 0.974641
vt 0.258373 0.974641
vt 0.067922 0.204309
vt 0.140538 0.194986
vt 0.485829 0.974641
vt 0.468776 0.844461
vt 0.475316 0.749274
vt 0.012857 0.037115
vt 0.012857 0.011629
vt 0.416404 0.136373
vt 0.334251 0.155011
vt 0.330483 0.134332
vt 0.177960 0.149743
vt 0.012857 0.062600
vt 0.480040 0.011629
vt 0.269338 0.165456
vt 0.281956 0.011629
vt 0.326715 0.113652
vt 0.352658 0.011629
vt 0.437787 0.169873
vt 0.504614 0.011629
vt 0.341787 0.196370
vt 0.263512 0.215613
vt 0.152789 0.205825
vt 0.162246 0.849258
vt 0.204306 0.908068
vt 0.130392 0.974641
vt 0.011340 0.974641
vt 0.329605 0.326466
vt 0.373802 0.291111
vt 0.367693 0.304119
vt 0.336750 0.329003
vt 0.099580 0.320862
vt 0.098021 0.355460
vt 0.058483 0.357058
vt 0.063099 0.323761
vt 0.098992 0.278104
vt 0.059395 0.278104
vt 0.098285 0.397789
vt 0.099613 0.439268
vt 0.059799 0.438711
vt 0.017076 0.398209
vt 0.047536 0.442825
vt 0.054165 0.469552
vt 0.038218 0.469095
vt 0.034598 0.450769
vt 0.152042 0.439847
vt 0.351530 0.436889
vt 0.351944 0.471221
vt 0.155884 0.473143
vt 0.046109 0.353247
vt 0.017076 0.373208
vt 0.017076 0.345739
vt 0.032400 0.345475
vt 0.102085 0.473196
vt 0.102790 0.511401
vt 0.062724 0.511401
vt 0.065396 0.471577
vt 0.379911 0.397789
vt 0.379911 0.511401
vt 0.157662 0.511401
vt 0.322091 0.348147
vt 0.149785 0.397789
vt 0.150716 0.354348
vt 0.379911 0.278104
vt 0.322460 0.323929
vt 0.152214 0.318896
vt 0.154890 0.278104
vt 0.051954 0.326071
vt 0.047177 0.278104
vt 0.017076 0.423410
vt 0.050172 0.511401
vt 0.017076 0.511401
vt 0.017076 0.450918
vt 0.036590 0.327489
vt 0.017076 0.278104
vt 0.329306 0.345946
vt 0.373615 0.383653
vt 0.361584 0.317126
vt 0.361023 0.355381
vt 0.343736 0.341545
vt 0.343895 0.331540
vt 0.336521 0.343746
vt 0.367319 0.369517
vt 0.067922 0.204309
vt 0.012693 0.224033
vt 0.156031 0.155039
vt 0.012956 0.093016
vt 0.081374 0.232751
vt 0.012857 0.240997
vt 0.156031 0.155039
vt 0.012857 0.164275
s 1
usemtl Body
f 18/1/1 29/2/2 11/3/3 1/4/3
s 0
f 13/5/4 2/6/4 19/7/4 31/8/4
f 33/9/5 22/10/5 17/11/5 160/12/5
s 1
f 16/13/6 30/14/7 28/15/8 23/16/9
s 0
f 22/10/10 6/17/10 4/18/10 17/11/10
f 105/19/11 106/20/11 167/20/11 172/19/11
f 31/8/16 19/7/16 21/22/16 32/23/16
s 1
f 3/24/19 10/25/19 30/14/7 16/13/6
s 0
f 32/23/20 21/22/20 22/10/20 33/9/20
s 1
f 18/1/21 25/26/22 24/27/23 20/28/24
f 16/13/25 157/29/26 156/30/27 3/24/27
f 1/4/28 8/31/28 25/26/22 18/1/21
f 20/28/24 24/27/23 26/32/29 23/16/30
f 23/16/30 26/32/29 157/29/26 16/13/25
f 23/16/9 28/15/8 27/34/39 20/28/40
f 20/28/40 27/34/39 29/2/2 18/1/1
f 8/31/41 95/26/42 101/36/43 13/37/41
f 24/27/44 32/38/45 33/39/46 26/32/47
f 25/26/48 31/36/49 32/38/45 24/27/44
f 26/32/47 33/39/46 160/40/50 157/29/50
f 159/41/51 34/42/51 14/43/51 15/44/51
s 0
f 4/18/52 14/43/52 34/42/52 17/11/52
s 1
f 17/11/53 34/42/53 159/41/53 160/12/53
f 88/1/90 1/4/3 11/3/3 99/2/91
s 0
f 13/5/92 101/8/92 89/7/92 2/6/92
f 103/9/93 163/12/93 87/11/93 92/10/93
s 1
f 86/13/94 93/16/95 98/15/96 100/14/97
s 0
f 92/10/98 87/11/98 4/18/98 6/17/98
f 35/101/99 158/102/99 165/102/99 170/101/99
f 101/8/102 102/23/102 91/22/102 89/7/102
s 1
f 3/24/19 86/13/94 100/14/97 10/25/19
s 0
f 102/23/104 103/9/104 92/10/104 91/22/104
s 1
f 88/1/105 90/28/106 94/27/107 95/26/108
f 86/13/109 3/24/27 156/30/27 161/29/110
f 1/4/28 88/1/105 95/26/108 8/31/28
f 90/28/106 93/16/111 96/32/112 94/27/107
f 93/16/111 86/13/109 161/29/110 96/32/112
f 93/16/95 90/28/117 97/34/118 98/15/96
f 90/28/117 88/1/90 99/2/91 97/34/118
f 94/27/119 96/32/120 103/39/121 102/38/122
f 95/26/42 94/27/119 102/38/122 101/36/43
f 96/32/120 161/29/65 163/40/65 103/39/121
f 162/41/123 15/44/123 14/43/123 104/42/123
s 0
f 4/18/124 87/11/124 104/42/124 14/43/124
s 1
f 87/11/125 163/12/125 162/41/125 104/42/125
f 8/31/41 13/37/41 31/36/49 25/26/48
s 0
f 37/103/160 36/20/160 166/20/160 169/103/160
f 158/102/161 105/19/161 172/19/161 165/102/161
f 37/103/162 7/104/162 156/30/162 157/29/162
f 158/102/163 35/101/163 159/105/163 15/106/163
f 35/101/164 36/20/164 160/40/164 159/105/164
f 36/20/165 37/103/165 157/29/165 160/40/165
f 7/104/166 107/107/166 161/29/166 156/30/166
f 105/19/167 158/102/167 15/106/167 162/105/167
f 106/20/168 105/19/168 162/105/168 163/40/168
f 107/107/169 106/20/169 163/40/169 161/29/169
f 107/107/170 7/104/170 168/104/170 171/107/170
f 36/20/171 35/101/171 170/101/171 166/20/171
f 7/104/172 37/103/172 169/103/172 168/104/172
f 106/20/173 107/107/173 171/107/173 167/20/173
usemtl Wings
f 40/45/54 48/46/54 85/47/54 84/48/54
f 61/49/50 56/50/50 62/51/50 63/52/50
f 60/53/55 61/49/55 63/52/55 64/54/55
f 59/55/56 57/56/56 66/57/56 65/58/56
f 45/59/57 44/60/57 70/61/57 71/62/57
f 52/63/58 43/64/58 42/65/58 53/66/58
f 39/67/59 49/68/59 73/69/59 69/70/59
f 56/50/60 59/55/60 65/58/60 62/51/60
f 58/71/61 60/72/61 64/73/61 67/74/61
f 42/65/62 43/64/62 74/75/62 77/76/62
f 42/65/63 77/76/63 55/77/63 53/66/63
f 75/78/64 74/75/64 54/79/64 51/80/64
f 57/56/65 52/63/65 53/66/65 58/71/65
f 74/75/66 43/64/66 52/63/66 54/79/66
f 77/81/67 76/82/67 50/83/67 55/84/67
f 76/82/68 75/78/68 51/80/68 50/83/68
f 66/57/65 57/56/65 58/71/65 67/74/65
f 53/66/69 55/77/69 60/72/69 58/71/69
f 51/80/70 54/79/70 59/55/70 56/50/70
f 54/79/71 52/63/71 57/56/71 59/55/71
f 55/84/72 50/83/72 61/49/72 60/53/72
f 50/83/50 51/80/50 56/50/50 61/49/50
f 39/67/73 38/85/73 63/52/73 62/51/73
f 38/85/74 47/86/74 64/54/74 63/52/74
f 45/59/75 49/87/75 65/58/75 66/57/75
f 44/60/76 45/59/76 66/57/76 67/74/76
f 47/88/77 44/60/77 67/74/77 64/73/77
f 49/68/78 39/67/78 62/51/78 65/58/78
f 47/86/80 38/85/80 68/91/80 72/92/80
f 44/60/81 47/88/81 72/89/81 70/61/81
f 49/87/82 45/59/82 71/62/82 73/90/82
f 38/85/83 39/67/83 69/70/83 68/91/83
f 41/93/84 46/94/84 74/75/84 75/78/84
f 40/45/84 41/93/84 75/78/84 76/82/84
f 48/46/84 40/45/84 76/82/84 77/81/84
f 46/94/84 48/46/84 77/81/84 74/75/84
f 46/94/85 41/93/85 83/99/85 82/100/85
f 48/46/50 46/94/50 82/100/50 85/47/50
f 41/93/65 40/45/65 84/48/65 83/99/65
f 110/45/126 154/48/126 155/47/126 118/46/126
f 131/49/65 133/52/65 132/51/65 126/50/65
f 130/53/127 134/54/127 133/52/127 131/49/127
f 129/55/128 135/58/128 136/57/128 127/56/128
f 115/59/129 141/62/129 140/61/129 114/60/129
f 122/63/130 123/66/130 112/65/130 113/64/130
f 109/67/131 139/70/131 143/69/131 119/68/131
f 126/50/132 132/51/132 135/58/132 129/55/132
f 128/71/133 137/74/133 134/73/133 130/72/133
f 112/65/134 147/76/134 144/75/134 113/64/134
f 112/65/135 123/66/135 125/77/135 147/76/135
f 145/78/136 121/80/136 124/79/136 144/75/136
f 127/56/50 128/71/50 123/66/50 122/63/50
f 144/75/137 124/79/137 122/63/137 113/64/137
f 147/81/138 125/84/138 120/83/138 146/82/138
f 146/82/139 120/83/139 121/80/139 145/78/139
f 136/57/50 137/74/50 128/71/50 127/56/50
f 123/66/140 128/71/140 130/72/140 125/77/140
f 121/80/141 126/50/141 129/55/141 124/79/141
f 124/79/142 129/55/142 127/56/142 122/63/142
f 125/84/143 130/53/143 131/49/143 120/83/143
f 120/83/65 131/49/65 126/50/65 121/80/65
f 109/67/144 132/51/144 133/52/144 108/85/144
f 108/85/145 133/52/145 134/54/145 117/86/145
f 115/59/146 136/57/146 135/58/146 119/87/146
f 114/60/147 137/74/147 136/57/147 115/59/147
f 117/88/148 134/73/148 137/74/148 114/60/148
f 119/68/149 135/58/149 132/51/149 109/67/149
f 117/86/150 142/92/150 138/91/150 108/85/150
f 114/60/151 140/61/151 142/89/151 117/88/151
f 119/87/152 143/90/152 141/62/152 115/59/152
f 108/85/153 138/91/153 139/70/153 109/67/153
f 111/93/154 145/78/154 144/75/154 116/94/154
f 110/45/154 146/82/154 145/78/154 111/93/154
f 118/46/154 147/81/154 146/82/154 110/45/154
f 116/94/154 144/75/154 147/81/154 118/46/154
f 116/94/155 152/100/155 153/99/155 111/93/155
f 118/46/65 155/47/65 152/100/65 116/94/65
f 111/93/50 153/99/50 154/48/50 110/45/50
usemtl Engine
f 72/89/79 73/90/79 71/62/79 70/61/79
f 68/91/79 69/70/79 73/69/79 72/92/79
f 142/89/79 140/61/79 141/62/79 143/90/79
f 138/91/79 142/92/79 143/69/79 139/70/79
s 1
f 166/20/79 170/101/79 165/102/79 164/108/79
f 167/20/79 164/108/79 165/102/79 172/19/79
f 169/103/79 166/20/79 164/108/79 168/104/79
f 171/107/79 168/104/79 164/108/79 167/20/79
usemtl Energy
f 9/33/31 28/15/32 30/14/33 10/25/34
f 11/3/35 29/2/36 27/34/37 12/35/38
f 12/35/38 27/34/37 28/15/32 9/33/31
s 0
f 81/95/84 78/96/84 79/97/84 80/98/84
f 79/97/86 78/96/86 82/100/86 83/99/86
f 80/98/87 79/97/87 83/99/87 84/48/87
f 81/95/88 80/98/88 84/48/88 85/47/88
f 78/96/89 81/95/89 85/47/89 82/100/89
s 1
f 9/33/31 10/25/34 100/14/113 98/15/114
f 11/3/35 12/35/38 97/34/115 99/2/116
f 12/35/38 9/33/31 98/15/114 97/34/115
s 0
f 151/95/154 150/98/154 149/97/154 148/96/154
f 149/97/156 153/99/156 152/100/156 148/96/156
f 150/98/157 154/48/157 153/99/157 149/97/157
f 151/95/158 155/47/158 154/48/158 150/98/158
f 148/96/159 152/100/159 155/47/159 151/95/159
s 1
usemtl Glass
f 19/7/12 2/6/13 5/21/14 21/22/15
f 21/22/15 5/21/14 6/17/17 22/10/18
f 89/7/100 91/22/101 5/21/14 2/6/13
f 91/22/101 92/10/103 6/17/17 5/21/14
