<?xml version="1.0" encoding="UTF-8"?>
<!DOCTYPE svg PUBLIC "-//W3C//DTD SVG 1.1//EN" "http://www.w3.org/Graphics/SVG/1.1/DTD/svg11.dtd">
<svg version="1.2" width="54.45mm" height="54.45mm" viewBox="0 0 5445 5445" preserveAspectRatio="xMidYMid" fill-rule="evenodd" stroke-width="28.222" stroke-linejoin="round" xmlns="http://www.w3.org/2000/svg" xmlns:ooo="http://xml.openoffice.org/svg/export" xmlns:xlink="http://www.w3.org/1999/xlink" xmlns:presentation="http://sun.com/xmlns/staroffice/presentation" xmlns:smil="http://www.w3.org/2001/SMIL20/" xmlns:anim="urn:oasis:names:tc:opendocument:xmlns:animation:1.0" xmlns:svg="urn:oasis:names:tc:opendocument:xmlns:svg-compatible:1.0" xml:space="preserve">
 <defs class="ClipPathGroup">
  <clipPath id="presentation_clip_path" clipPathUnits="userSpaceOnUse">
   <rect x="0" y="0" width="5445" height="5445"/>
  </clipPath>
  <clipPath id="presentation_clip_path_shrink" clipPathUnits="userSpaceOnUse">
   <rect x="5" y="5" width="5435" height="5435"/>
  </clipPath>
 </defs>
 <defs class="TextShapeIndex">
  <g ooo:slide="id1" ooo:id-list="id3 id4 id5 id6 id7 id8 id9"/>
 </defs>
 <defs class="EmbeddedBulletChars">
  <g id="bullet-char-template-57356" transform="scale(0.00048828125,-0.00048828125)">
   <path d="M 580,1141 L 1163,571 580,0 -4,571 580,1141 Z"/>
  </g>
  <g id="bullet-char-template-57354" transform="scale(0.00048828125,-0.00048828125)">
   <path d="M 8,1128 L 1137,1128 1137,0 8,0 8,1128 Z"/>
  </g>
  <g id="bullet-char-template-10146" transform="scale(0.00048828125,-0.00048828125)">
   <path d="M 174,0 L 602,739 174,1481 1456,739 174,0 Z M 1358,739 L 309,1346 659,739 1358,739 Z"/>
  </g>
  <g id="bullet-char-template-10132" transform="scale(0.00048828125,-0.00048828125)">
   <path d="M 2015,739 L 1276,0 717,0 1260,543 174,543 174,936 1260,936 717,1481 1274,1481 2015,739 Z"/>
  </g>
  <g id="bullet-char-template-10007" transform="scale(0.00048828125,-0.00048828125)">
   <path d="M 0,-2 C -7,14 -16,27 -25,37 L 356,567 C 262,823 215,952 215,954 215,979 228,992 255,992 264,992 276,990 289,987 310,991 331,999 354,1012 L 381,999 492,748 772,1049 836,1024 860,1049 C 881,1039 901,1025 922,1006 886,937 835,863 770,784 769,783 710,716 594,584 L 774,223 C 774,196 753,168 711,139 L 727,119 C 717,90 699,76 672,76 641,76 570,178 457,381 L 164,-76 C 142,-110 111,-127 72,-127 30,-127 9,-110 8,-76 1,-67 -2,-52 -2,-32 -2,-23 -1,-13 0,-2 Z"/>
  </g>
  <g id="bullet-char-template-10004" transform="scale(0.00048828125,-0.00048828125)">
   <path d="M 285,-33 C 182,-33 111,30 74,156 52,228 41,333 41,471 41,549 55,616 82,672 116,743 169,778 240,778 293,778 328,747 346,684 L 369,508 C 377,444 397,411 428,410 L 1163,1116 C 1174,1127 1196,1133 1229,1133 1271,1133 1292,1118 1292,1087 L 1292,965 C 1292,929 1282,901 1262,881 L 442,47 C 390,-6 338,-33 285,-33 Z"/>
  </g>
  <g id="bullet-char-template-9679" transform="scale(0.00048828125,-0.00048828125)">
   <path d="M 813,0 C 632,0 489,54 383,161 276,268 223,411 223,592 223,773 276,916 383,1023 489,1130 632,1184 813,1184 992,1184 1136,1130 1245,1023 1353,916 1407,772 1407,592 1407,412 1353,268 1245,161 1136,54 992,0 813,0 Z"/>
  </g>
  <g id="bullet-char-template-8226" transform="scale(0.00048828125,-0.00048828125)">
   <path d="M 346,457 C 273,457 209,483 155,535 101,586 74,649 74,723 74,796 101,859 155,911 209,963 273,989 346,989 419,989 480,963 531,910 582,859 608,796 608,723 608,648 583,586 532,535 482,483 420,457 346,457 Z"/>
  </g>
  <g id="bullet-char-template-8211" transform="scale(0.00048828125,-0.00048828125)">
   <path d="M -4,459 L 1135,459 1135,606 -4,606 -4,459 Z"/>
  </g>
  <g id="bullet-char-template-61548" transform="scale(0.00048828125,-0.00048828125)">
   <path d="M 173,740 C 173,903 231,1043 346,1159 462,1274 601,1332 765,1332 928,1332 1067,1274 1183,1159 1299,1043 1357,903 1357,740 1357,577 1299,437 1183,322 1067,206 928,148 765,148 601,148 462,206 346,322 231,437 173,577 173,740 Z"/>
  </g>
 </defs>
 <g>
  <g id="id2" class="Master_Slide">
   <g id="bg-id2" class="Background"/>
   <g id="bo-id2" class="BackgroundObjects"/>
  </g>
 </g>
 <g class="SlideGroup">
  <g>
   <g id="container-id1">
    <g id="id1" class="Slide" clip-path="url(#presentation_clip_path)">
     <g class="Page">
      <g class="Group">
       <g class="com.sun.star.drawing.PolyPolygonShape">
        <g id="id3">
         <rect class="BoundingBox" stroke="none" fill="none" x="1451" y="266" width="2542" height="679"/>
         <path fill="rgb(255,253,6)" stroke="none" d="M 1452,521 L 1706,267 3737,267 3991,521 3567,944 1876,944 1452,521 Z"/>
        </g>
       </g>
       <g class="com.sun.star.drawing.PolyPolygonShape">
        <g id="id4">
         <rect class="BoundingBox" stroke="none" fill="none" x="3737" y="689" width="679" height="1949"/>
         <path fill="rgb(255,253,6)" stroke="none" d="M 4160,690 L 4414,944 4414,2383 4160,2637 3737,2214 3737,1114 4160,690 Z"/>
        </g>
       </g>
       <g class="com.sun.star.drawing.PolyPolygonShape">
        <g id="id5">
         <rect class="BoundingBox" stroke="none" fill="none" x="3737" y="2806" width="679" height="1949"/>
         <path fill="rgb(255,253,6)" stroke="none" d="M 4160,2806 L 4414,3060 4414,4499 4160,4753 3737,4329 3737,3229 4160,2806 Z"/>
        </g>
       </g>
       <g class="com.sun.star.drawing.PolyPolygonShape">
        <g id="id6">
         <rect class="BoundingBox" stroke="none" fill="none" x="1028" y="689" width="679" height="1949"/>
         <path fill="rgb(255,253,6)" stroke="none" d="M 1283,690 L 1706,1114 1706,2214 1283,2637 1029,2383 1029,944 1283,690 Z"/>
        </g>
       </g>
       <g class="com.sun.star.drawing.PolyPolygonShape">
        <g id="id7">
         <rect class="BoundingBox" stroke="none" fill="none" x="1536" y="2382" width="2372" height="680"/>
         <path fill="rgb(255,253,6)" stroke="none" d="M 3906,2722 L 3567,2383 1876,2383 1537,2722 1876,3060 3567,3060 3906,2722 Z"/>
        </g>
       </g>
       <g class="com.sun.star.drawing.PolyPolygonShape">
        <g id="id8">
         <rect class="BoundingBox" stroke="none" fill="none" x="1451" y="4499" width="2542" height="679"/>
         <path fill="rgb(255,253,6)" stroke="none" d="M 3567,4499 L 3991,4922 3737,5176 1706,5176 1452,4922 1876,4499 3567,4499 Z"/>
        </g>
       </g>
       <g class="com.sun.star.drawing.PolyPolygonShape">
        <g id="id9">
         <rect class="BoundingBox" stroke="none" fill="none" x="1028" y="2806" width="679" height="1949"/>
         <path fill="rgb(255,253,6)" stroke="none" d="M 1283,2806 L 1706,3229 1706,4329 1283,4753 1029,4499 1029,3060 1283,2806 Z"/>
        </g>
       </g>
      </g>
     </g>
    </g>
   </g>
  </g>
 </g>
</svg>